<svg width="1813" height="446" viewBox="0 0 1813 446" fill="none" xmlns="http://www.w3.org/2000/svg">
<path d="M30.9574 441.593L45.0256 444.835M30.9574 441.593L72.6474 441.593M30.9574 441.593L16.4216 438.244M30.9574 441.593L1.43234 441.593M45.0256 444.835L39.9066 444.834L34.8404 444.827L29.8798 444.807L25.0747 444.768L20.478 444.705L16.1387 444.61L12.1085 444.478L8.36788 444.31L5.15788 444.077L2.23547 443.808L1.43234 443.713L1.43234 441.593M45.0256 444.835L86.0453 444.835M86.0453 444.835L127.065 444.835M86.0453 444.835L72.6474 441.593M127.065 444.835L168.086 444.835M127.065 444.835L114.337 441.593M168.086 444.835L209.105 444.835M168.086 444.835L156.026 441.593M209.105 444.835L250.125 444.835M209.105 444.835L197.716 441.593M250.125 444.835L291.146 444.835M250.125 444.835L239.406 441.593M291.146 444.835L332.165 444.835M291.146 444.835L281.096 441.593M332.165 444.835L373.185 444.835M332.165 444.835L322.786 441.593M373.185 444.835L414.206 444.835M373.185 444.835L364.476 441.593M414.206 444.835L455.225 444.835M414.206 444.835L406.166 441.593M455.225 444.835L496.245 444.835M455.225 444.835L447.856 441.593M496.245 444.835L537.265 444.835M496.245 444.835L489.546 441.593M537.265 444.835L578.285 444.835M537.265 444.835L535.776 444.034L533.519 442.822L531.236 441.593M578.285 444.835L619.305 444.835M578.285 444.835L576.962 444.034L572.926 441.593M619.305 444.835L660.325 444.835M619.305 444.835L614.616 441.593M660.325 444.835L701.345 444.835M660.325 444.835L658.834 443.631L657.322 442.414L656.815 442.004L656.305 441.593M701.345 444.835L742.365 444.835M701.345 444.835L700.102 443.631L699.684 443.227L699.264 442.822L697.995 441.593M742.365 444.835L783.385 444.835M742.365 444.835L739.685 441.593M783.385 444.835L783.137 444.435L782.889 444.034L781.631 442.004L781.375 441.593M783.385 444.835L824.404 444.835M824.404 444.835L865.425 444.835M824.404 444.835L823.065 441.593M865.425 444.835L906.445 444.835M865.425 444.835L865.176 443.631L864.755 441.593M906.445 444.835L947.465 444.835M906.445 444.835L906.445 441.593M947.465 444.835L988.485 444.835M947.465 444.835L947.713 443.631L948.135 441.593M988.485 444.835L1029.5 444.835M988.485 444.835L989.825 441.593M1029.5 444.835L1029.75 444.435L1030 444.034L1031.26 442.004L1031.51 441.593M1029.5 444.835L1070.52 444.835M1070.52 444.835L1111.55 444.835M1070.52 444.835L1072.86 442.004L1073.2 441.593M1111.55 444.835L1152.57 444.835M1111.55 444.835L1112.79 443.631L1113.21 443.227L1114.05 442.414L1114.47 442.004L1114.89 441.593M1152.57 444.835L1193.58 444.835M1152.57 444.835L1154.06 443.631L1155.57 442.414L1156.07 442.004L1156.58 441.593M1193.58 444.835L1234.6 444.835M1193.58 444.835L1198.27 441.593M1234.6 444.835L1275.63 444.835M1234.6 444.835L1235.93 444.034L1239.96 441.593M1275.63 444.835L1316.64 444.835M1275.63 444.835L1281.65 441.593M1316.64 444.835L1357.66 444.835M1316.64 444.835L1323.34 441.593M1357.66 444.835L1398.69 444.835M1357.66 444.835L1365.03 441.593M1398.69 444.835L1439.7 444.835M1398.69 444.835L1406.72 441.593M1439.7 444.835L1480.72 444.835M1439.7 444.835L1448.41 441.593M1480.72 444.835L1521.74 444.835M1480.72 444.835L1490.1 441.593M1521.74 444.835L1562.76 444.835M1521.74 444.835L1531.79 441.593M1562.76 444.835L1603.78 444.835M1562.76 444.835L1573.48 441.593M1603.78 444.835L1644.8 444.835M1603.78 444.835L1615.17 441.593M1644.8 444.835L1685.82 444.835M1644.8 444.835L1656.86 441.593M1685.82 444.835L1726.84 444.835M1685.82 444.835L1698.55 441.593M1726.84 444.835L1767.86 444.835M1726.84 444.835L1740.24 441.593M1767.86 444.835L1772.98 444.834L1778.05 444.827L1783.01 444.807L1787.82 444.768L1792.41 444.705L1796.75 444.61L1800.78 444.478L1804.52 444.31L1807.73 444.077L1810.65 443.808L1811.46 443.713L1811.46 441.593M1767.86 444.835L1781.93 441.593M1698.55 441.593L1656.86 441.593M1698.55 441.593L1740.24 441.593M1698.55 441.593L1711.7 438.244M1656.86 441.593L1669.32 438.244M1656.86 441.593L1615.17 441.593M1531.79 441.593L1490.1 441.593M1531.79 441.593L1573.48 441.593M1531.79 441.593L1534.36 440.766L1542.18 438.244M1490.1 441.593L1499.79 438.244M1490.1 441.593L1448.41 441.593M1365.03 441.593L1323.34 441.593M1365.03 441.593L1406.72 441.593M1365.03 441.593L1366.91 440.766L1367.86 440.351L1372.65 438.244M1323.34 441.593L1324.2 441.181L1325.05 440.766L1330.27 438.244M1323.34 441.593L1281.65 441.593M1198.27 441.593L1198.87 441.181L1203.12 438.244M1198.27 441.593L1156.58 441.593M1198.27 441.593L1239.96 441.593M1156.58 441.593L1157.61 440.766L1158.13 440.351L1158.64 439.933L1160.74 438.244M1156.58 441.593L1114.89 441.593M1031.51 441.593L989.825 441.593M1031.51 441.593L1073.2 441.593M1031.51 441.593L1033.59 438.244M989.825 441.593L989.995 441.181L990.166 440.766L990.339 440.351L990.859 439.092L991.209 438.244M989.825 441.593L948.135 441.593M864.755 441.593L823.065 441.593M864.755 441.593L906.445 441.593M864.755 441.593L864.063 438.244M823.065 441.593L822.894 441.181L822.724 440.766L822.551 440.351L821.681 438.244M823.065 441.593L781.375 441.593M697.995 441.593L656.305 441.593M697.995 441.593L739.685 441.593M697.995 441.593L697.141 440.766L695.41 439.092L694.974 438.669L694.534 438.244M656.305 441.593L655.28 440.766L654.764 440.351L654.246 439.933L652.152 438.244M656.305 441.593L614.616 441.593M531.236 441.593L489.546 441.593M531.236 441.593L572.926 441.593M531.236 441.593L529.698 440.766L528.924 440.351L525.007 438.244M489.546 441.593L488.693 441.181L487.837 440.766L482.625 438.244M489.546 441.593L447.856 441.593M364.476 441.593L322.786 441.593M364.476 441.593L406.166 441.593M364.476 441.593L362.254 440.766L361.136 440.351L355.478 438.244M322.786 441.593L313.096 438.244M322.786 441.593L281.096 441.593M197.716 441.593L156.026 441.593M197.716 441.593L239.406 441.593M197.716 441.593L185.95 438.244M156.026 441.593L143.567 438.244M156.026 441.593L114.337 441.593M1811.6 411.279L1811.46 411.279M1769.64 411.279L1753.73 415.557M1769.64 411.279L1786.17 406.836M1769.64 411.279L1721.69 411.279M1769.64 411.279L1811.46 411.279M1753.73 415.557L1800.8 415.557M1753.73 415.557L1738.38 419.68M1753.73 415.557L1706.65 415.557M1800.8 415.557L1784.6 419.68M1800.8 415.557L1811.46 415.557M1800.8 415.557L1811.46 412.843M1753.92 427.495L1709.31 427.495M1753.92 427.495L1739.36 431.202M1753.92 427.495L1798.52 427.495M1753.92 427.495L1768.99 423.657M1709.31 427.495L1695.52 431.202M1709.31 427.495L1723.59 423.657M1709.31 427.495L1664.71 427.495M1739.36 431.202L1695.52 431.202M1739.36 431.202L1725.3 434.782M1739.36 431.202L1783.2 431.202M1695.52 431.202L1651.69 431.202M1695.52 431.202L1682.2 434.782M1811.92 343.749L1811.46 343.749M1773.22 343.749L1752.7 350.842M1773.22 343.749L1794.77 336.303M1773.22 343.749L1711.31 343.749M1773.22 343.749L1811.46 343.749M1752.7 350.842L1733.12 357.607M1752.7 350.842L1692.25 350.842M1752.7 350.842L1811.46 350.842M1792.17 357.607L1733.12 357.607M1792.17 357.607L1772.14 364.066M1792.17 357.607L1811.46 357.607M1792.17 357.607L1811.46 351.386M1753.01 370.24L1696.57 370.24M1753.01 370.24L1734.69 376.146M1753.01 370.24L1809.44 370.24M1753.01 370.24L1772.14 364.066M1696.57 370.24L1679.48 376.146M1696.57 370.24L1714.43 364.066M1696.57 370.24L1640.13 370.24M1734.69 376.146L1679.48 376.146M1734.69 376.146L1789.91 376.146M1734.69 376.146L1717.16 381.803M1679.48 376.146L1663.11 381.803M1679.48 376.146L1624.26 376.146M1684.22 392.426L1632.37 392.426M1684.22 392.426L1668.74 397.421M1684.22 392.426L1736.07 392.426M1684.22 392.426L1700.35 387.225M1632.37 392.426L1617.92 397.421M1632.37 392.426L1647.42 387.225M1632.37 392.426L1580.52 392.426M1668.74 397.421L1617.92 397.421M1668.74 397.421L1719.56 397.421M1668.74 397.421L1653.86 402.22M1617.92 397.421L1604.03 402.22M1617.92 397.421L1567.1 397.421M1625.78 411.279L1577.82 411.279M1625.78 411.279L1612.51 415.557M1625.78 411.279L1673.73 411.279M1625.78 411.279L1639.55 406.836M1577.82 411.279L1565.44 415.557M1577.82 411.279L1590.68 406.836M1577.82 411.279L1529.87 411.279M1612.51 415.557L1565.44 415.557M1612.51 415.557L1659.58 415.557M1612.51 415.557L1599.73 419.68M1565.44 415.557L1553.51 419.68M1565.44 415.557L1518.37 415.557M1575.5 427.495L1530.9 427.495M1575.5 427.495L1564.01 431.202M1575.5 427.495L1620.1 427.495M1575.5 427.495L1587.4 423.657M1530.9 427.495L1520.17 431.202M1530.9 427.495L1542 423.657M1530.9 427.495L1486.29 427.495M1564.01 431.202L1520.17 431.202M1564.01 431.202L1552.91 434.782M1564.01 431.202L1607.85 431.202M1520.17 431.202L1476.34 431.202M1520.17 431.202L1509.81 434.782M1779.74 220.774L1750.85 234.75M1779.74 220.774L1810.67 205.807M1779.74 220.774L1692.41 220.774M1779.74 220.774L1811.46 220.774M1750.85 234.75L1723.81 247.832M1750.85 234.75L1666.41 234.75M1750.85 234.75L1811.46 234.75M1751.44 271.634L1674.62 271.634M1751.44 271.634L1726.75 282.491M1751.44 271.634L1777.65 260.102M1751.44 271.634L1811.46 271.634M1674.62 271.634L1652.18 282.491M1674.62 271.634L1698.45 260.102M1674.62 271.634L1597.8 271.634M1726.75 282.491L1652.18 282.491M1726.75 282.491L1801.33 282.491M1726.75 282.491L1703.47 292.733M1652.18 282.491L1631.01 292.733M1652.18 282.491L1577.61 282.491M1660.65 311.566L1592.09 311.566M1660.65 311.566L1640.92 320.243M1660.65 311.566L1729.22 311.566M1660.65 311.566L1681.47 302.409M1592.09 311.566L1574.15 320.243M1592.09 311.566L1611.01 302.409M1592.09 311.566L1523.52 311.566M1640.92 320.243L1574.15 320.243M1640.92 320.243L1707.7 320.243M1640.92 320.243L1622.2 328.478M1574.15 320.243L1557.13 328.478M1574.15 320.243L1507.38 320.243M1587.48 343.749L1525.57 343.749M1587.48 343.749L1571.36 350.842M1587.48 343.749L1649.4 343.749M1587.48 343.749L1604.41 336.303M1525.57 343.749L1510.91 350.842M1525.57 343.749L1540.96 336.303M1525.57 343.749L1463.66 343.749M1571.36 350.842L1510.91 350.842M1571.36 350.842L1631.8 350.842M1571.36 350.842L1555.98 357.607M1510.91 350.842L1496.93 357.607M1510.91 350.842L1450.46 350.842M1527.26 370.24L1470.82 370.24M1527.26 370.24L1513.83 376.146M1527.26 370.24L1583.69 370.24M1527.26 370.24L1541.29 364.066M1470.82 370.24L1458.61 376.146M1470.82 370.24L1483.58 364.066M1470.82 370.24L1414.38 370.24M1513.83 376.146L1458.61 376.146M1513.83 376.146L1569.04 376.146M1513.83 376.146L1500.97 381.803M1458.61 376.146L1446.92 381.803M1458.61 376.146L1403.39 376.146M1476.82 392.426L1424.96 392.426M1476.82 392.426L1465.46 397.421M1476.82 392.426L1528.67 392.426M1476.82 392.426L1488.64 387.225M1424.96 392.426L1423.65 393.062L1414.64 397.421M1424.96 392.426L1435.71 387.225M1424.96 392.426L1373.11 392.426M1465.46 397.421L1414.64 397.421M1465.46 397.421L1516.28 397.421M1465.46 397.421L1454.55 402.22M1414.64 397.421L1404.72 402.22M1414.64 397.421L1363.82 397.421M1433.96 411.278L1386 411.278M1433.96 411.278L1424.23 415.557M1433.96 411.278L1481.91 411.278M1433.96 411.278L1444.05 406.836M1386 411.278L1377.16 415.557M1386 411.278L1389.4 409.632L1395.18 406.836M1386 411.278L1338.04 411.278M1424.23 415.557L1377.16 415.557M1424.23 415.557L1471.3 415.557M1424.23 415.557L1414.85 419.68M1377.16 415.557L1368.63 419.68M1377.16 415.557L1330.09 415.557M1397.09 427.495L1352.48 427.495M1397.09 427.495L1388.66 431.202M1397.09 427.495L1441.69 427.495M1397.09 427.495L1405.81 423.657M1352.48 427.495L1346.71 430.287L1345.77 430.745L1344.82 431.202M1352.48 427.495L1360.41 423.657M1352.48 427.495L1307.88 427.495M1388.66 431.202L1344.82 431.202M1388.66 431.202L1380.52 434.782M1388.66 431.202L1432.5 431.202M1344.82 431.202L1300.98 431.202M1344.82 431.202L1337.42 434.782M1748.1 61.5597L1627.86 61.5597M1748.1 61.5597L1710.24 87.7279M1748.1 61.5597L1789.7 32.8041M1748.1 61.5597L1811.46 61.5592M1627.86 61.5597L1595.41 87.7279M1627.86 61.5597L1663.52 32.8041M1627.86 61.5597L1507.63 61.5597M1710.24 87.7279L1595.41 87.7279M1710.24 87.7279L1675.64 111.643M1710.24 87.7279L1811.46 87.7279M1595.41 87.7279L1565.75 111.643M1595.41 87.7279L1480.58 87.7279M1614.66 153.787L1513.49 153.787M1614.66 153.787L1587.66 172.449M1614.66 153.787L1715.84 153.787M1614.66 153.787L1643.89 133.585M1513.49 153.787L1490.35 172.449M1513.49 153.787L1538.54 133.585M1513.49 153.787L1412.32 153.787M1587.66 172.449L1490.35 172.449M1587.66 172.449L1684.98 172.449M1587.66 172.449L1562.65 189.74M1490.35 172.449L1468.9 189.74M1490.35 172.449L1393.03 172.449M1517.75 220.774L1430.42 220.774M1517.75 220.774L1497.53 234.75M1517.75 220.774L1605.08 220.774M1517.75 220.774L1539.4 205.807M1430.42 220.774L1413.09 234.75M1430.42 220.774L1448.98 205.807M1430.42 220.774L1343.09 220.774M1497.53 234.75L1413.09 234.75M1497.53 234.75L1581.97 234.75M1497.53 234.75L1478.6 247.832M1413.09 234.75L1396.87 247.832M1413.09 234.75L1328.65 234.75M1444.17 271.634L1367.35 271.634M1444.17 271.634L1428.46 282.491M1444.17 271.634L1520.98 271.634M1444.17 271.634L1460.85 260.102M1367.35 271.634L1353.89 282.491M1367.35 271.634L1381.65 260.102M1367.35 271.634L1290.53 271.634M1428.46 282.491L1353.89 282.491M1428.46 282.491L1503.03 282.491M1428.46 282.491L1413.64 292.733M1353.89 282.491L1341.18 292.733M1353.89 282.491L1279.31 282.491M1386.4 311.566L1317.83 311.566M1386.4 311.566L1373.84 320.243M1386.4 311.566L1454.96 311.566M1386.4 311.566L1399.64 302.409M1317.83 311.566L1307.07 320.243M1317.83 311.566L1329.19 302.409M1317.83 311.566L1249.27 311.566M1373.84 320.243L1307.07 320.243M1373.84 320.243L1440.61 320.243M1373.84 320.243L1361.93 328.478M1307.07 320.243L1296.86 328.478M1307.07 320.243L1240.3 320.243M1339.83 343.749L1277.92 343.749M1339.83 343.749L1329.57 350.842M1339.83 343.749L1401.75 343.749M1339.83 343.749L1350.61 336.303M1277.92 343.749L1269.12 350.842M1277.92 343.749L1287.15 336.303M1277.92 343.749L1216.01 343.749M1329.57 350.842L1269.12 350.842M1329.57 350.842L1390.02 350.842M1329.57 350.842L1319.78 357.607M1269.12 350.842L1260.73 357.607M1269.12 350.842L1208.68 350.842M1301.51 370.24L1245.07 370.24M1301.51 370.24L1292.96 376.146M1301.51 370.24L1357.94 370.24M1301.51 370.24L1310.44 364.066M1245.07 370.24L1237.74 376.146M1245.07 370.24L1252.72 364.066M1245.07 370.24L1188.63 370.24M1292.96 376.146L1237.74 376.146M1292.96 376.146L1348.18 376.146M1292.96 376.146L1284.78 381.803M1237.74 376.146L1230.73 381.803M1237.74 376.146L1182.53 376.146M1269.41 392.426L1217.56 392.426M1269.41 392.426L1262.18 397.421M1269.41 392.426L1321.26 392.426M1269.41 392.426L1276.93 387.225M1217.56 392.426L1218.35 391.788L1224.01 387.225M1217.56 392.426L1211.36 397.421M1217.56 392.426L1165.7 392.426M1262.18 397.421L1211.36 397.421M1262.18 397.421L1313 397.421M1262.18 397.421L1255.24 402.22M1211.36 397.421L1205.41 402.22M1211.36 397.421L1160.54 397.421M1242.13 411.278L1194.18 411.278M1242.13 411.278L1235.94 415.557M1242.13 411.278L1290.09 411.278M1242.13 411.278L1248.56 406.836M1194.18 411.278L1188.87 415.557M1194.18 411.278L1196.22 409.632L1197.6 408.522L1199.69 406.836M1194.18 411.278L1146.22 411.278M1235.94 415.557L1188.87 415.557M1235.94 415.557L1283.01 415.557M1235.94 415.557L1229.98 419.68M1188.87 415.557L1186.93 417.121L1185.65 418.152L1183.76 419.68M1188.87 415.557L1141.8 415.557M1218.67 427.495L1174.07 427.495M1218.67 427.495L1214.63 430.287L1213.31 431.202M1218.67 427.495L1263.27 427.495M1218.67 427.495L1223.52 424.145L1224.22 423.657M1174.07 427.495L1170.6 430.287L1170.04 430.745L1169.47 431.202M1174.07 427.495L1176.43 425.594L1178.83 423.657M1174.07 427.495L1129.46 427.495M1213.31 431.202L1169.47 431.202M1213.31 431.202L1208.13 434.782M1213.31 431.202L1257.15 431.202M1169.47 431.202L1125.63 431.202M1169.47 431.202L1165.03 434.782M1267.15 61.5597L1146.92 61.5597M1267.15 61.5597L1250.93 87.7279M1267.15 61.5597L1387.39 61.5597M1267.15 61.5597L1284.98 32.804M1146.92 61.5597L1136.1 87.7279M1146.92 61.5597L1158.8 32.804M1146.92 61.5597L1026.68 61.5596M1250.93 87.7279L1136.1 87.7279M1250.93 87.7279L1365.75 87.7279M1250.93 87.7279L1236.1 111.643M1136.1 87.7279L1126.21 111.643M1136.1 87.7279L1021.27 87.7279M1209.97 153.787L1108.79 153.787M1209.97 153.787L1198.4 172.449M1209.97 153.787L1311.14 153.787M1209.97 153.787L1222.49 133.585M1108.79 153.787L1101.08 172.449M1108.79 153.787L1117.14 133.585M1108.79 153.787L1007.62 153.787M1198.4 172.449L1101.08 172.449M1198.4 172.449L1295.71 172.449M1198.4 172.449L1187.67 189.74M1101.08 172.449L1093.93 189.74M1101.08 172.449L1003.76 172.449M1168.43 220.774L1081.1 220.774M1168.43 220.774L1159.77 234.75M1168.43 220.774L1255.76 220.774M1168.43 220.774L1177.71 205.807M1081.1 220.774L1075.33 234.75M1081.1 220.774L1087.29 205.807M1081.1 220.774L993.774 220.774M1159.77 234.75L1075.33 234.75M1159.77 234.75L1244.21 234.75M1159.77 234.75L1151.66 247.832M1075.33 234.75L1069.92 247.832M1075.33 234.75L990.885 234.75M1136.9 271.634L1060.08 271.634M1136.9 271.634L1130.16 282.491M1136.9 271.634L1213.71 271.634M1136.9 271.634L1144.05 260.102M1060.08 271.634L1055.59 282.491M1060.08 271.634L1064.85 260.102M1060.08 271.634L983.263 271.634M1130.16 282.491L1055.59 282.491M1130.16 282.491L1204.74 282.491M1130.16 282.491L1123.81 292.733M1055.59 282.491L1051.36 292.733M1055.59 282.491L981.018 282.491M1112.14 311.566L1043.57 311.566M1112.14 311.566L1106.76 320.243M1112.14 311.566L1180.7 311.566M1112.14 311.566L1117.82 302.409M1043.57 311.566L1039.99 320.243M1043.57 311.566L1047.36 302.409M1043.57 311.566L975.009 311.566M1106.76 320.243L1039.99 320.243M1106.76 320.243L1173.53 320.243M1106.76 320.243L1101.65 328.478M1039.99 320.243L1036.58 328.478M1039.99 320.243L973.216 320.243M1092.18 343.749L1030.27 343.749M1092.18 343.749L1087.78 350.842M1092.18 343.749L1154.1 343.749M1092.18 343.749L1096.8 336.303M1030.27 343.749L1027.34 350.842M1030.27 343.749L1033.35 336.303M1030.27 343.749L968.357 343.749M1087.78 350.842L1027.34 350.842M1087.78 350.842L1148.23 350.842M1087.78 350.842L1086.19 353.416L1083.59 357.607M1027.34 350.842L1024.54 357.607M1027.34 350.842L966.891 350.842M1075.76 370.24L1019.32 370.24M1075.76 370.24L1072.09 376.146M1075.76 370.24L1132.19 370.24M1075.76 370.24L1078.61 365.636L1079.59 364.066M1019.32 370.24L1018.39 372.485L1016.88 376.146M1019.32 370.24L1021.87 364.066M1019.32 370.24L962.882 370.24M1072.09 376.146L1071.65 376.867L1068.59 381.803M1072.09 376.146L1016.88 376.146M1072.09 376.146L1127.31 376.146M1016.88 376.146L1015.99 378.296L1015.7 379.005L1015.4 379.71L1014.54 381.803M1016.88 376.146L961.661 376.146M1062 392.426L1010.15 392.426M1062 392.426L1060.44 394.949L1060.05 395.571L1059.67 396.191L1059.28 396.807L1058.9 397.421M1062 392.426L1113.85 392.426M1062 392.426L1065.23 387.225M1010.15 392.426L1008.59 396.191L1008.34 396.807L1008.08 397.421M1010.15 392.426L1012.3 387.225M1010.15 392.426L958.296 392.426M1058.9 397.421L1008.08 397.421M1058.9 397.421L1109.72 397.421M1058.9 397.421L1057.03 400.443L1056.66 401.038L1055.93 402.22M1008.08 397.421L1006.84 400.443L1006.59 401.038L1006.34 401.631L1006.1 402.22M1008.08 397.421L957.264 397.421M1050.31 411.278L1002.36 411.278M1050.31 411.278L1047.66 415.557M1050.31 411.278L1098.27 411.278M1050.31 411.278L1050.99 410.184L1052.02 408.522L1053.07 406.836M1002.36 411.278L1002.58 410.732L1003.96 407.401L1004.19 406.836M1002.36 411.278L1000.59 415.557M1002.36 411.278L954.4 411.278M1047.66 415.557L1000.59 415.557M1047.66 415.557L1094.73 415.557M1047.66 415.557L1045.1 419.68M1000.59 415.557L999.94 417.121L999.727 417.638L999.514 418.152L998.883 419.68M1000.59 415.557L953.516 415.557M1040.26 427.495L995.653 427.495M1040.26 427.495L1038.52 430.287L1037.96 431.202M1040.26 427.495L1084.86 427.495M1040.26 427.495L1041.14 426.072L1041.44 425.594L1041.73 425.113L1042.64 423.657M995.653 427.495L995.458 427.966L995.072 428.9L994.688 429.827L994.121 431.202M995.653 427.495L996.439 425.594L996.637 425.112L997.038 424.145L997.238 423.657M995.653 427.495L951.049 427.495M1037.96 431.202L994.121 431.202M1037.96 431.202L1036.01 434.341L1035.74 434.782M1037.96 431.202L1081.8 431.202M994.121 431.202L993.932 431.656L993.746 432.108L993.559 432.559L993.374 433.007L992.823 434.341L992.64 434.782M994.121 431.202L950.282 431.202M786.209 61.5596L665.973 61.5596M786.209 61.5596L791.618 87.7279M786.209 61.5596L906.445 61.5596M786.209 61.5596L780.266 32.804M665.973 61.5596L676.79 87.7278M665.973 61.5596L654.087 32.804M665.973 61.5596L545.737 61.5596M791.618 87.7279L676.79 87.7278M791.618 87.7279L906.445 87.7279M791.618 87.7279L796.56 111.643M676.79 87.7278L686.676 111.643M676.79 87.7278L561.962 87.7278M805.271 153.787L704.096 153.787M805.271 153.787L809.128 172.449M805.271 153.787L906.445 153.787M805.271 153.787L801.095 133.585M704.096 153.787L711.811 172.449M704.096 153.787L695.746 133.585M704.096 153.787L602.923 153.787M809.128 172.449L711.811 172.449M809.128 172.449L906.445 172.449M809.128 172.449L812.702 189.74M711.811 172.449L718.958 189.74M711.811 172.449L614.494 172.449M819.116 220.774L731.786 220.774M819.116 220.774L822.004 234.75M819.116 220.774L906.445 220.774M819.116 220.774L816.022 205.807M731.786 220.774L737.564 234.75M731.786 220.774L725.6 205.807M731.786 220.774L644.457 220.774M822.004 234.75L737.564 234.75M822.004 234.75L906.445 234.75M822.004 234.75L824.708 247.832M737.564 234.75L742.971 247.832M737.564 234.75L653.123 234.75M829.627 271.634L752.81 271.634M829.627 271.634L831.872 282.491M829.627 271.634L906.445 271.634M829.627 271.634L827.244 260.102M752.81 271.634L757.298 282.491M752.81 271.634L748.043 260.102M752.81 271.634L675.993 271.634M831.872 282.491L757.298 282.491M831.872 282.491L906.445 282.491M831.872 282.491L833.988 292.733M757.298 282.491L761.532 292.733M757.298 282.491L682.725 282.491M837.881 311.566L769.317 311.565M837.881 311.566L839.674 320.243M837.881 311.566L906.445 311.566M837.881 311.566L835.988 302.409M769.317 311.565L772.903 320.243M769.317 311.565L765.532 302.409M769.317 311.565L700.752 311.565M839.674 320.243L772.903 320.243M839.674 320.243L906.445 320.243M839.674 320.243L841.376 328.477M772.903 320.243L776.307 328.477M772.903 320.243L706.132 320.243M844.533 343.749L782.619 343.749M844.533 343.749L845.999 350.842M844.533 343.749L906.445 343.749M844.533 343.749L842.993 336.303M782.619 343.749L785.552 350.842M782.619 343.749L779.541 336.303M782.619 343.749L720.707 343.749M845.999 350.842L785.552 350.842M845.999 350.842L906.445 350.842M845.999 350.842L847.397 357.607M785.552 350.842L788.348 357.607M785.552 350.842L725.105 350.842M850.008 370.24L793.57 370.24M850.008 370.24L851.229 376.146M850.008 370.24L906.445 370.24M850.008 370.24L848.732 364.066M793.57 370.24L795.713 375.422L796.012 376.146M793.57 370.24L791.018 364.066M793.57 370.24L737.133 370.24M851.229 376.146L851.377 376.867L852.398 381.803M851.229 376.146L796.012 376.146M851.229 376.146L906.445 376.146M796.012 376.146L796.901 378.296L797.193 379.005L797.485 379.71L798.35 381.803M796.012 376.146L740.796 376.146M854.593 392.426L802.741 392.426M854.593 392.426L855.626 397.421M854.593 392.426L906.445 392.426M854.593 392.426L854.195 390.501L854.061 389.852L853.927 389.201L853.655 387.887L853.518 387.225M802.741 392.426L804.297 396.191L804.806 397.421M802.741 392.426L800.591 387.225M802.741 392.426L750.889 392.426M855.626 397.421L804.806 397.421M855.626 397.421L906.445 397.421M855.626 397.421L856.617 402.22M804.806 397.421L806.055 400.443L806.302 401.038L806.546 401.631L806.79 402.22M804.806 397.421L753.986 397.421M858.49 411.278L810.534 411.278M858.49 411.278L859.374 415.557M858.49 411.278L906.445 411.278M858.49 411.278L857.571 406.836M810.534 411.278L810.308 410.732L808.931 407.401L808.698 406.836M810.534 411.278L812.303 415.557M810.534 411.278L762.579 411.278M859.374 415.557L812.303 415.557M859.374 415.557L906.445 415.557M859.374 415.557L860.226 419.68M812.303 415.557L812.95 417.121L813.163 417.638L813.376 418.152L814.007 419.68M812.303 415.557L765.232 415.557M861.841 427.495L817.237 427.495M861.841 427.495L862.607 431.202M861.841 427.495L906.445 427.495M861.841 427.495L861.048 423.657M817.237 427.495L817.432 427.966L817.819 428.9L818.01 429.365L818.392 430.287L818.58 430.745L818.77 431.202M817.237 427.495L816.451 425.594L816.253 425.112L815.852 424.145L815.651 423.657M817.237 427.495L772.634 427.495M862.607 431.202L862.701 431.656L862.795 432.108L862.887 432.559L863.347 434.782M862.607 431.202L818.77 431.202M862.607 431.202L906.445 431.202M818.77 431.202L774.932 431.202M818.77 431.202L819.144 432.108L819.331 432.559L819.516 433.007L820.067 434.341L820.25 434.782M305.265 61.5596L185.029 61.5596M305.265 61.5596L332.308 87.7278M305.265 61.5596L425.501 61.5596M305.265 61.5596L275.548 32.8039M185.029 61.5596L217.481 87.7278M185.029 61.5596L149.37 32.8039M185.029 61.5596L64.7926 61.5596M332.308 87.7278L217.481 87.7278M332.308 87.7278L447.135 87.7278M332.308 87.7278L357.022 111.643M217.481 87.7278L247.138 111.643M217.481 87.7278L102.652 87.7278M400.574 153.787L299.399 153.787M400.574 153.787L419.859 172.449M400.574 153.787L501.748 153.787M400.574 153.787L379.696 133.585M299.399 153.787L322.542 172.449M299.399 153.787L274.347 133.585M299.399 153.787L198.225 153.787M419.859 172.449L322.542 172.449M419.859 172.449L517.176 172.449M419.859 172.449L437.729 189.74M322.542 172.449L343.985 189.74M322.542 172.449L225.225 172.449M469.798 220.774L382.469 220.774M469.798 220.774L484.242 234.75M469.798 220.774L557.128 220.774M469.798 220.774L454.331 205.807M382.469 220.774L399.801 234.75M382.469 220.774L363.909 205.807M382.469 220.774L295.14 220.774M484.242 234.75L399.801 234.75M484.242 234.75L568.683 234.75M484.242 234.75L497.761 247.832M399.801 234.75L416.024 247.832M399.801 234.75L315.361 234.75M522.358 271.634L445.54 271.634M522.358 271.634L533.578 282.491M522.358 271.634L599.175 271.634M522.358 271.634L510.441 260.102M445.54 271.634L459.005 282.491M445.54 271.634L431.24 260.102M445.54 271.634L368.722 271.634M533.578 282.491L459.005 282.491M533.578 282.491L608.152 282.491M533.578 282.491L544.162 292.733M459.005 282.491L471.705 292.733M459.005 282.491L384.432 282.491M563.623 311.565L495.059 311.565M563.623 311.565L572.59 320.243M563.623 311.565L632.187 311.565M563.623 311.565L554.161 302.409M495.059 311.565L505.819 320.243M495.059 311.565L483.704 302.409M495.059 311.565L426.494 311.565M572.59 320.243L505.819 320.243M572.59 320.243L639.362 320.243M572.59 320.243L581.1 328.477M505.819 320.243L516.031 328.477M505.819 320.243L439.048 320.243M596.882 343.749L534.969 343.749M596.882 343.749L604.212 350.842M596.882 343.749L658.795 343.749M596.882 343.749L589.187 336.303M534.969 343.749L543.766 350.842M534.969 343.749L525.735 336.303M534.969 343.749L473.057 343.749M604.212 350.842L543.766 350.842M604.212 350.842L664.659 350.842M604.212 350.842L611.203 357.607M543.766 350.842L552.155 357.607M543.766 350.842L483.32 350.842M624.258 370.24L623.477 369.483L622.69 368.723L617.879 364.066M624.258 370.24L567.821 370.24M624.258 370.24L630.362 376.146M624.258 370.24L680.695 370.24M567.821 370.24L575.145 376.146M567.821 370.24L560.165 364.066M567.821 370.24L511.383 370.24M630.362 376.146L575.145 376.146M630.362 376.146L685.579 376.146M630.362 376.146L636.207 381.803M575.145 376.146L582.16 381.803M575.145 376.146L519.929 376.146M647.186 392.426L595.334 392.426M647.186 392.426L652.348 397.421M647.186 392.426L699.038 392.426M647.186 392.426L641.811 387.225M595.334 392.426L599.235 395.571L601.527 397.421M595.334 392.426L588.884 387.225M595.334 392.426L543.482 392.426M652.348 397.421L601.527 397.421M652.348 397.421L703.167 397.421M652.348 397.421L656.697 401.631L657.307 402.22M601.527 397.421L607.48 402.22M601.527 397.421L550.708 397.421M666.668 411.278L618.712 411.278M666.668 411.278L667.788 412.363L671.089 415.557M666.668 411.278L714.623 411.278M666.668 411.278L665.536 410.184L663.241 407.963L662.077 406.836M618.712 411.278L624.018 415.557M618.712 411.278L616.671 409.632L615.294 408.522L613.204 406.836M618.712 411.278L570.757 411.278M671.089 415.557L624.018 415.557M671.089 415.557L718.161 415.557M671.089 415.557L674.3 418.664L675.351 419.68M624.018 415.557L625.958 417.121L627.236 418.152L629.132 419.68M624.018 415.557L576.947 415.557M683.426 427.495L638.822 427.495M683.426 427.495L685.836 429.827L687.257 431.202M683.426 427.495L728.03 427.495M683.426 427.495L679.46 423.657M638.822 427.495L642.285 430.287L642.852 430.745L643.419 431.202M638.822 427.495L636.464 425.594L634.063 423.657M638.822 427.495L594.219 427.495M687.257 431.202L643.419 431.202M687.257 431.202L689.122 433.007L690.043 433.899L690.501 434.341L690.957 434.782M687.257 431.202L731.094 431.202M643.419 431.202L599.581 431.202M643.419 431.202L647.859 434.782M30.5908 172.449L127.908 172.449M30.5908 172.449L62.7545 189.74M30.5908 172.449L1.43236 172.449M30.5908 172.449L1.43236 156.773M120.481 220.774L33.1521 220.774M120.481 220.774L146.479 234.75M120.481 220.774L207.81 220.774M120.481 220.774L92.6407 205.807M33.1521 220.774L62.0389 234.75M33.1521 220.774L2.21765 205.807M33.1521 220.774L1.43236 220.774M146.479 234.75L62.0389 234.75M146.479 234.75L230.92 234.75M146.479 234.75L170.814 247.832M62.0389 234.75L89.0771 247.832M62.0389 234.75L1.43235 234.75M215.088 271.634L138.27 271.634M215.088 271.634L235.285 282.491M215.088 271.634L291.906 271.634M215.088 271.634L193.637 260.102M138.27 271.634L160.711 282.491M138.27 271.634L114.436 260.102M138.27 271.634L61.4526 271.634M235.285 282.491L160.711 282.491M235.285 282.491L309.858 282.491M235.285 282.491L254.335 292.733M160.711 282.491L181.879 292.733M160.711 282.491L86.1378 282.491M289.366 311.565L220.802 311.565M289.366 311.565L305.506 320.243M289.366 311.565L357.93 311.565M289.366 311.565L272.334 302.409M220.802 311.565L238.736 320.243M220.802 311.565L201.877 302.409M220.802 311.565L152.237 311.565M305.506 320.243L238.736 320.243M305.506 320.243L372.277 320.243M305.506 320.243L320.824 328.477M238.736 320.243L255.756 328.477M238.736 320.243L171.965 320.243M349.232 343.749L287.319 343.749M349.232 343.749L362.426 350.842M349.232 343.749L411.144 343.749M349.232 343.749L335.381 336.303M287.319 343.749L301.979 350.842M287.319 343.749L271.929 336.303M287.319 343.749L225.407 343.749M362.426 350.842L301.979 350.842M362.426 350.842L422.872 350.842M362.426 350.842L375.01 357.607M301.979 350.842L315.962 357.607M301.979 350.842L241.533 350.842M398.509 370.24L342.072 370.24M398.509 370.24L409.496 376.146M398.509 370.24L454.946 370.24M398.509 370.24L387.025 364.066M342.072 370.24L354.28 376.146M342.072 370.24L329.312 364.066M342.072 370.24L285.635 370.24M409.496 376.146L354.28 376.146M409.496 376.146L464.712 376.146M409.496 376.146L420.018 381.803M354.28 376.146L365.97 381.803M354.28 376.146L299.063 376.146M439.779 392.426L387.927 392.426M439.779 392.426L449.069 397.421M439.779 392.426L491.631 392.426M439.779 392.426L430.103 387.225M387.927 392.426L398.249 397.421M387.927 392.426L377.176 387.225M387.927 392.426L336.075 392.426M449.069 397.421L398.249 397.421M449.069 397.421L499.889 397.421M449.069 397.421L457.997 402.22M398.249 397.421L408.169 402.22M398.249 397.421L347.43 397.421M474.846 411.278L426.891 411.278M474.846 411.278L482.805 415.557M474.846 411.278L522.802 411.278M474.846 411.278L472.809 410.184L471.784 409.632L466.582 406.836M426.891 411.278L435.734 415.557M426.891 411.278L417.709 406.836M426.891 411.278L378.936 411.278M482.805 415.557L435.734 415.557M482.805 415.557L529.876 415.557M482.805 415.557L490.475 419.68M435.734 415.557L444.256 419.68M435.734 415.557L388.663 415.557M505.012 427.495L460.408 427.495M505.012 427.495L511.906 431.202M505.012 427.495L549.615 427.495M505.012 427.495L497.872 423.657M460.408 427.495L466.178 430.287L467.125 430.745L468.068 431.202M460.408 427.495L452.476 423.657M460.408 427.495L415.805 427.495M511.906 431.202L468.068 431.202M511.906 431.202L517.746 434.341L518.567 434.782M511.906 431.202L555.743 431.202M468.068 431.202L424.23 431.202M468.068 431.202L475.469 434.782M15.1084 311.565L38.4229 320.242M15.1084 311.565L83.6726 311.565M15.1084 311.565L1.43235 306.475M15.1084 311.565L1.43235 311.565M38.4229 320.242L105.194 320.243M38.4229 320.242L60.5485 328.477M38.4229 320.242L1.43235 320.242M101.581 343.749L39.6681 343.749M101.581 343.749L120.64 350.842M101.581 343.749L163.494 343.749M101.581 343.749L81.5749 336.303M39.6681 343.749L60.1932 350.842M39.6681 343.749L18.1232 336.303M39.6681 343.749L1.43235 343.749M120.64 350.842L60.1932 350.842M120.64 350.842L181.087 350.842M120.64 350.842L138.817 357.607M60.1932 350.842L79.7687 357.607M60.1932 350.842L1.43234 350.842M172.76 370.24L116.322 370.24M172.76 370.24L188.63 376.146M172.76 370.24L229.197 370.24M172.76 370.24L156.172 364.066M116.322 370.24L133.413 376.146M116.322 370.24L98.4591 364.066M116.322 370.24L59.8849 370.24M188.63 376.146L133.413 376.146M188.63 376.146L243.847 376.146M188.63 376.146L203.828 381.803M133.413 376.146L149.78 381.803M133.413 376.146L78.1962 376.146M232.372 392.426L180.52 392.426M232.372 392.426L245.791 397.421M232.372 392.426L284.223 392.426M232.372 392.426L218.396 387.225M180.52 392.426L194.971 397.421M180.52 392.426L165.469 387.225M180.52 392.426L128.668 392.426M245.791 397.421L194.971 397.421M245.791 397.421L296.611 397.421M245.791 397.421L258.687 402.22M194.971 397.421L208.859 402.22M194.971 397.421L144.152 397.421M283.024 411.278L235.069 411.278M283.024 411.278L294.52 415.557M283.024 411.278L330.979 411.278M283.024 411.278L271.088 406.836M235.069 411.278L247.449 415.557M235.069 411.278L222.215 406.836M235.069 411.278L187.114 411.278M294.52 415.557L247.449 415.557M294.52 415.557L341.592 415.557M294.52 415.557L305.599 419.68M247.449 415.557L259.381 419.68M247.449 415.557L200.378 415.557M326.597 427.495L281.993 427.495M326.597 427.495L336.555 431.202M326.597 427.495L371.201 427.495M326.597 427.495L316.285 423.657M281.993 427.495L292.717 431.202M281.993 427.495L270.888 423.657M281.993 427.495L237.389 427.495M336.555 431.202L292.717 431.202M336.555 431.202L346.176 434.782M336.555 431.202L380.392 431.202M292.717 431.202L248.879 431.202M292.717 431.202L303.079 434.782M24.9646 392.426L42.5133 397.421M24.9646 392.426L76.8161 392.426M24.9646 392.426L6.68797 387.225M24.9646 392.426L1.43234 392.426M42.5133 397.421L93.3326 397.421M42.5133 397.421L59.3767 402.22M42.5133 397.421L1.43234 397.421M91.203 411.278L43.2477 411.278M91.203 411.278L106.236 415.557M91.203 411.278L139.158 411.278M91.203 411.278L75.5943 406.836M43.2477 411.278L59.1646 415.557M43.2477 411.278L26.7208 406.836M43.2477 411.278L1.43234 411.278M106.236 415.557L59.1646 415.557M106.236 415.557L153.307 415.557M106.236 415.557L120.724 419.68M59.1646 415.557L74.5055 419.68M59.1646 415.557L12.0935 415.557M148.182 427.495L103.578 427.495M148.182 427.495L161.204 431.201M148.182 427.495L192.786 427.495M148.182 427.495L134.697 423.657M103.578 427.495L117.366 431.201M103.578 427.495L89.3006 423.657M103.578 427.495L58.9741 427.495M161.204 431.201L117.366 431.201M161.204 431.201L173.785 434.782M161.204 431.201L205.041 431.201M117.366 431.201L73.5279 431.201M117.366 431.201L130.688 434.782M89.3006 423.657L74.5055 419.68M89.3006 423.657L43.9029 423.657M89.3006 423.657L134.697 423.657M58.9741 427.495L73.5279 431.201M58.9741 427.495L43.9029 423.657M58.9741 427.495L14.3712 427.495M73.5279 431.201L29.6904 431.201M73.5279 431.201L87.5904 434.782M130.688 434.782L173.785 434.782M130.688 434.782L87.5904 434.782M130.688 434.782L143.567 438.244M43.9029 423.657L28.2857 419.68M43.9029 423.657L1.43234 423.657M14.3712 427.495L29.6904 431.201M14.3712 427.495L1.43234 424.365M14.3712 427.495L1.43234 427.495M29.6904 431.201L44.493 434.782M29.6904 431.201L1.43234 431.201M87.5904 434.782L44.493 434.782M87.5904 434.782L101.185 438.244M44.493 434.782L58.8036 438.244M44.493 434.782L1.43234 434.782M74.5055 419.68L28.2857 419.68M74.5055 419.68L120.724 419.68M12.0935 415.557L28.2857 419.68M12.0935 415.557L1.43234 412.842M12.0935 415.557L1.43234 415.557M28.2857 419.68L1.43234 419.68M120.724 419.68L166.943 419.68M120.724 419.68L134.697 423.657M134.697 423.657L180.094 423.657M26.7208 406.836L9.54916 402.22M26.7208 406.836L75.5943 406.836M26.7208 406.836L1.43234 406.836M1.28619 411.278L1.43234 411.278M9.54916 402.22L59.3767 402.22M9.54916 402.22L1.43234 400.039M9.54916 402.22L1.43234 402.22M59.3767 402.22L109.204 402.22M59.3767 402.22L75.5943 406.836M75.5943 406.836L124.468 406.836M270.888 423.657L259.381 419.68M270.888 423.657L225.491 423.657M270.888 423.657L316.285 423.657M237.389 427.495L248.879 431.202M237.389 427.495L225.491 423.657M237.389 427.495L192.786 427.495M248.879 431.202L205.041 431.201M248.879 431.202L259.981 434.782M303.079 434.782L259.981 434.782M303.079 434.782L313.096 438.244M303.079 434.782L346.176 434.782M225.491 423.657L213.162 419.68M225.491 423.657L180.094 423.657M192.786 427.495L205.041 431.201M192.786 427.495L180.094 423.657M205.041 431.201L216.883 434.782M259.981 434.782L216.883 434.782M259.981 434.782L270.714 438.244M180.094 423.657L166.943 419.68M173.785 434.782L216.883 434.782M173.785 434.782L185.95 438.244M216.883 434.782L228.332 438.244M259.381 419.68L213.162 419.68M259.381 419.68L305.599 419.68M200.378 415.557L213.162 419.68M200.378 415.557L187.114 411.278M200.378 415.557L153.307 415.557M213.162 419.68L166.943 419.68M305.599 419.68L351.818 419.68M305.599 419.68L316.285 423.657M166.943 419.68L153.307 415.557M316.285 423.657L361.682 423.657M187.114 411.278L173.341 406.836M187.114 411.278L139.158 411.278M153.307 415.557L139.158 411.278M139.158 411.278L124.468 406.836M222.215 406.836L208.859 402.22M222.215 406.836L173.341 406.836M222.215 406.836L271.088 406.836M173.341 406.836L159.032 402.22M173.341 406.836L124.468 406.836M124.468 406.836L109.204 402.22M208.859 402.22L159.032 402.22M208.859 402.22L258.687 402.22M144.152 397.421L159.032 402.22M144.152 397.421L128.668 392.426M144.152 397.421L93.3326 397.421M159.032 402.22L109.204 402.22M258.687 402.22L308.514 402.22M258.687 402.22L271.088 406.836M109.204 402.22L93.3326 397.421M271.088 406.836L319.962 406.836M128.668 392.426L112.541 387.225M128.668 392.426L76.8161 392.426M93.3326 397.421L76.8161 392.426M76.8161 392.426L59.6152 387.225M165.469 387.225L149.78 381.803M165.469 387.225L112.541 387.225M165.469 387.225L218.396 387.225M112.541 387.225L95.7328 381.803M112.541 387.225L59.6152 387.225M59.6152 387.225L41.6856 381.803M59.6152 387.225L6.68797 387.225M6.68797 387.225L1.43234 387.225M6.68797 387.225L1.43234 385.729M149.78 381.803L95.7328 381.803M149.78 381.803L203.828 381.803M78.1962 376.146L95.7328 381.803M78.1962 376.146L59.8849 370.24M78.1962 376.146L22.9802 376.146M95.7328 381.803L41.6856 381.803M203.828 381.803L257.875 381.803M203.828 381.803L218.396 387.225M41.6856 381.803L22.9802 376.146M41.6856 381.803L1.43234 381.803M218.396 387.225L271.322 387.225M59.8849 370.24L40.7457 364.066M59.8849 370.24L3.44782 370.24M22.9802 376.146L3.44782 370.24M22.9802 376.146L1.43234 376.146M1.14948 381.803L1.43234 381.803M3.44782 370.24L1.43234 369.631M3.44782 370.24L1.43234 370.24M98.4591 364.066L79.7687 357.607M98.4591 364.066L40.7457 364.066M98.4591 364.066L156.172 364.066M40.7457 364.066L20.7204 357.607M40.7457 364.066L1.43234 364.066M0.944986 369.483L1.43234 369.631M79.7687 357.607L20.7204 357.607M79.7687 357.607L138.817 357.607M20.7204 357.607L1.43234 357.607M20.7204 357.607L1.43234 351.386M138.817 357.607L197.865 357.607M138.817 357.607L156.172 364.066M156.172 364.066L213.885 364.066M18.1232 336.303L81.5749 336.303M18.1232 336.303L1.43235 330.535M18.1232 336.303L1.43235 336.303M0.973183 343.749L1.43235 343.749M81.5749 336.303L145.027 336.303M81.5749 336.303L60.5485 328.477M1.24857 330.471L1.43235 330.535M452.476 423.657L444.256 419.68M452.476 423.657L407.079 423.657M452.476 423.657L497.872 423.657M415.805 427.495L424.23 431.202M415.805 427.495L407.079 423.657M415.805 427.495L371.201 427.495M424.23 431.202L380.392 431.202M424.23 431.202L432.371 434.782M475.469 434.782L432.371 434.782M475.469 434.782L478.181 436.094L482.625 438.244M475.469 434.782L518.567 434.782M407.079 423.657L398.037 419.68M407.079 423.657L361.682 423.657M371.201 427.495L380.392 431.202M371.201 427.495L361.682 423.657M380.392 431.202L389.274 434.782M432.371 434.782L389.274 434.782M432.371 434.782L440.242 438.244M361.682 423.657L351.818 419.68M346.176 434.782L355.478 438.244M346.176 434.782L389.274 434.782M389.274 434.782L390.362 435.222L392.528 436.094L397.86 438.244M444.256 419.68L398.037 419.68M444.256 419.68L490.475 419.68M388.663 415.557L398.037 419.68M388.663 415.557L378.936 411.278M388.663 415.557L341.592 415.557M398.037 419.68L351.818 419.68M490.475 419.68L536.694 419.68M490.475 419.68L497.872 423.657M351.818 419.68L341.592 415.557M497.872 423.657L543.27 423.657M378.936 411.278L368.835 406.836M378.936 411.278L330.979 411.278M341.592 415.557L340.286 415.031L330.979 411.278M330.979 411.278L319.962 406.836M417.709 406.836L416.537 406.269L408.169 402.22M417.709 406.836L368.835 406.836M417.709 406.836L466.582 406.836M368.835 406.836L358.342 402.22M368.835 406.836L319.962 406.836M319.962 406.836L308.514 402.22M408.169 402.22L358.342 402.22M408.169 402.22L457.997 402.22M347.43 397.421L358.342 402.22M347.43 397.421L336.075 392.426M347.43 397.421L296.611 397.421M358.342 402.22L308.514 402.22M457.997 402.22L507.825 402.22M457.997 402.22L466.582 406.836M308.514 402.22L296.611 397.421M466.582 406.836L515.456 406.836M336.075 392.426L324.249 387.225M336.075 392.426L284.223 392.426M296.611 397.421L284.223 392.426M284.223 392.426L271.322 387.225M377.176 387.225L365.97 381.803M377.176 387.225L324.249 387.225M377.176 387.225L430.103 387.225M324.249 387.225L311.922 381.803M324.249 387.225L271.322 387.225M271.322 387.225L257.875 381.803M365.97 381.803L311.922 381.803M365.97 381.803L420.018 381.803M299.063 376.146L311.922 381.803M299.063 376.146L285.635 370.24M299.063 376.146L243.847 376.146M311.922 381.803L257.875 381.803M420.018 381.803L474.065 381.803M420.018 381.803L430.103 387.225M257.875 381.803L243.847 376.146M430.103 387.225L483.03 387.225M285.635 370.24L271.598 364.066M285.635 370.24L229.197 370.24M243.847 376.146L229.197 370.24M229.197 370.24L213.885 364.066M329.312 364.066L315.962 357.607M329.312 364.066L271.598 364.066M329.312 364.066L387.025 364.066M271.598 364.066L256.914 357.607M271.598 364.066L213.885 364.066M213.885 364.066L197.865 357.607M315.962 357.607L256.914 357.607M315.962 357.607L375.01 357.607M241.533 350.842L256.914 357.607M241.533 350.842L225.407 343.749M241.533 350.842L181.087 350.842M256.914 357.607L197.865 357.607M375.01 357.607L434.059 357.607M375.01 357.607L387.025 364.066M197.865 357.607L181.087 350.842M387.025 364.066L444.739 364.066M225.407 343.749L208.478 336.303M225.407 343.749L163.494 343.749M181.087 350.842L163.494 343.749M163.494 343.749L145.027 336.303M271.929 336.303L255.756 328.477M271.929 336.303L208.478 336.303M271.929 336.303L335.381 336.303M208.478 336.303L190.687 328.477M208.478 336.303L145.027 336.303M145.027 336.303L125.618 328.477M255.756 328.477L190.687 328.477M255.756 328.477L320.824 328.477M171.965 320.243L190.687 328.477M171.965 320.243L152.237 311.565M171.965 320.243L105.194 320.243M190.687 328.477L125.618 328.477M320.824 328.477L385.894 328.477M320.824 328.477L335.381 336.303M125.618 328.477L105.194 320.243M125.618 328.477L60.5485 328.477M335.381 336.303L398.833 336.303M152.237 311.565L131.42 302.409M152.237 311.565L83.6726 311.565M105.194 320.243L83.6726 311.565M60.5485 328.477L1.43235 328.477M83.6726 311.565L60.9633 302.409M201.877 302.409L181.879 292.733M201.877 302.409L131.42 302.409M201.877 302.409L272.334 302.409M131.42 302.409L109.422 292.733M131.42 302.409L60.9633 302.409M60.9633 302.409L36.9654 292.733M60.9633 302.409L1.43235 302.409M181.879 292.733L109.422 292.733M181.879 292.733L254.335 292.733M86.1378 282.491L109.422 292.733M86.1378 282.491L61.4526 271.634M86.1378 282.491L11.5648 282.491M109.422 292.733L36.9654 292.733M254.335 292.733L326.792 292.733M254.335 292.733L272.334 302.409M36.9654 292.733L11.5648 282.491M36.9654 292.733L1.43235 292.733M272.334 302.409L342.791 302.409M61.4526 271.634L35.2356 260.102M61.4526 271.634L1.43235 271.634M11.5648 282.491L1.43235 282.491M11.5648 282.491L1.43235 278.406M114.436 260.102L89.0771 247.832M114.436 260.102L35.2356 260.102M114.436 260.102L193.637 260.102M35.2356 260.102L7.34036 247.832M35.2356 260.102L1.43235 260.102M89.0771 247.832L7.34036 247.832M89.0771 247.832L170.814 247.832M7.34036 247.832L1.43235 245.233M7.34036 247.832L1.43235 247.832M170.814 247.832L252.551 247.832M170.814 247.832L193.637 260.102M193.637 260.102L272.838 260.102M2.21765 205.807L92.6407 205.807M2.21765 205.807L1.43236 205.807M2.21765 205.807L1.43236 205.427M92.6407 205.807L183.063 205.807M92.6407 205.807L62.7545 189.74M634.063 423.657L632.235 422.183L631.62 421.687L629.132 419.68M634.063 423.657L588.667 423.657M634.063 423.657L679.46 423.657M594.219 427.495L598.258 430.287L599.581 431.202M594.219 427.495L589.371 424.145L588.667 423.657M594.219 427.495L549.615 427.495M599.581 431.202L555.743 431.202M599.581 431.202L604.762 434.782M647.859 434.782L604.762 434.782M647.859 434.782L649.486 436.094L652.152 438.244M647.859 434.782L690.957 434.782M588.667 423.657L587.247 422.677L582.912 419.68M588.667 423.657L543.27 423.657M549.615 427.495L555.743 431.202M549.615 427.495L543.27 423.657M555.743 431.202L560.203 433.899L561.664 434.782M604.762 434.782L561.664 434.782M604.762 434.782L609.771 438.244M543.27 423.657L536.694 419.68M518.567 434.782L519.383 435.222L525.007 438.244M518.567 434.782L561.664 434.782M561.664 434.782L563.834 436.094L567.389 438.244M629.132 419.68L582.912 419.68M629.132 419.68L675.351 419.68M576.947 415.557L582.912 419.68M576.947 415.557L570.757 411.278M576.947 415.557L529.876 415.557M582.912 419.68L536.694 419.68M675.351 419.68L721.57 419.68M675.351 419.68L679.46 423.657M536.694 419.68L529.876 415.557M679.46 423.657L724.857 423.657M570.757 411.278L566.769 408.522L565.959 407.963L564.33 406.836M570.757 411.278L522.802 411.278M529.876 415.557L522.802 411.278M522.802 411.278L515.456 406.836M613.204 406.836L607.48 402.22M613.204 406.836L564.33 406.836M613.204 406.836L662.077 406.836M564.33 406.836L557.652 402.22M564.33 406.836L515.456 406.836M515.456 406.836L507.825 402.22M607.48 402.22L557.652 402.22M607.48 402.22L657.307 402.22M550.708 397.421L555.08 400.443L555.941 401.038L557.652 402.22M550.708 397.421L543.482 392.426M550.708 397.421L499.889 397.421M557.652 402.22L507.825 402.22M657.307 402.22L707.135 402.22M657.307 402.22L662.077 406.836M507.825 402.22L499.889 397.421M662.077 406.836L710.951 406.836M543.482 392.426L535.956 387.225M543.482 392.426L491.631 392.426M499.889 397.421L491.631 392.426M491.631 392.426L483.03 387.225M588.884 387.225L585.557 384.542L584.715 383.863L582.16 381.803M588.884 387.225L535.956 387.225M588.884 387.225L641.811 387.225M535.956 387.225L528.113 381.803M535.956 387.225L483.03 387.225M483.03 387.225L474.065 381.803M582.16 381.803L528.113 381.803M582.16 381.803L636.207 381.803M519.929 376.146L528.113 381.803M519.929 376.146L511.383 370.24M519.929 376.146L464.712 376.146M528.113 381.803L474.065 381.803M636.207 381.803L690.255 381.803M636.207 381.803L637.631 383.18L641.811 387.225M474.065 381.803L464.712 376.146M641.811 387.225L694.737 387.225M511.383 370.24L502.452 364.066M511.383 370.24L454.946 370.24M464.712 376.146L454.946 370.24M454.946 370.24L444.739 364.066M560.165 364.066L552.155 357.607M560.165 364.066L502.452 364.066M560.165 364.066L617.879 364.066M502.452 364.066L493.107 357.607M502.452 364.066L444.739 364.066M444.739 364.066L434.059 357.607M552.155 357.607L493.107 357.607M552.155 357.607L611.203 357.607M483.32 350.842L493.107 357.607M483.32 350.842L473.057 343.749M483.32 350.842L422.872 350.842M493.107 357.607L434.059 357.607M611.203 357.607L670.252 357.607M611.203 357.607L617.879 364.066M434.059 357.607L422.872 350.842M617.879 364.066L675.591 364.066M473.057 343.749L462.285 336.303M473.057 343.749L411.144 343.749M422.872 350.842L411.144 343.749M411.144 343.749L398.833 336.303M525.735 336.303L516.031 328.477M525.735 336.303L462.285 336.303M525.735 336.303L589.187 336.303M462.285 336.303L450.963 328.477M462.285 336.303L398.833 336.303M398.833 336.303L385.894 328.477M516.031 328.477L450.963 328.477M516.031 328.477L581.1 328.477M439.048 320.243L450.963 328.477M439.048 320.243L426.494 311.565M439.048 320.243L372.277 320.243M450.963 328.477L385.894 328.477M581.1 328.477L646.169 328.477M581.1 328.477L589.187 336.303M385.894 328.477L372.277 320.243M589.187 336.303L652.639 336.303M426.494 311.565L413.247 302.409M426.494 311.565L357.93 311.565M372.277 320.243L357.93 311.565M357.93 311.565L342.791 302.409M483.704 302.409L471.705 292.733M483.704 302.409L413.247 302.409M483.704 302.409L554.161 302.409M413.247 302.409L399.249 292.733M413.247 302.409L342.791 302.409M342.791 302.409L326.792 292.733M471.705 292.733L399.249 292.733M471.705 292.733L544.162 292.733M384.432 282.491L399.249 292.733M384.432 282.491L368.722 271.634M384.432 282.491L309.858 282.491M399.249 292.733L326.792 292.733M544.162 292.733L616.618 292.733M544.162 292.733L554.161 302.409M326.792 292.733L309.858 282.491M554.161 302.409L624.617 302.409M368.722 271.634L352.039 260.102M368.722 271.634L291.906 271.634M309.858 282.491L291.906 271.634M291.906 271.634L272.838 260.102M431.24 260.102L416.024 247.832M431.24 260.102L352.039 260.102M431.24 260.102L510.441 260.102M352.039 260.102L334.287 247.832M352.039 260.102L272.838 260.102M272.838 260.102L252.551 247.832M416.024 247.832L334.287 247.832M416.024 247.832L497.761 247.832M315.361 234.75L334.287 247.832M315.361 234.75L295.14 220.774M315.361 234.75L230.92 234.75M334.287 247.832L252.551 247.832M497.761 247.832L579.498 247.832M497.761 247.832L510.441 260.102M252.551 247.832L230.92 234.75M510.441 260.102L589.642 260.102M295.14 220.774L273.486 205.807M295.14 220.774L207.81 220.774M230.92 234.75L207.81 220.774M207.81 220.774L183.063 205.807M363.909 205.807L343.985 189.74M363.909 205.807L273.486 205.807M363.909 205.807L454.331 205.807M273.486 205.807L250.242 189.74M273.486 205.807L183.063 205.807M183.063 205.807L156.498 189.74M343.985 189.74L250.242 189.74M343.985 189.74L437.729 189.74M225.225 172.449L250.242 189.74M225.225 172.449L198.225 153.787M225.225 172.449L127.908 172.449M250.242 189.74L156.498 189.74M437.729 189.74L531.472 189.74M437.729 189.74L454.331 205.807M156.498 189.74L127.908 172.449M156.498 189.74L62.7545 189.74M454.331 205.807L544.754 205.807M198.225 153.787L168.997 133.585M198.225 153.787L97.0516 153.787M127.908 172.449L97.0516 153.787M62.7545 189.74L1.43236 189.74M97.0516 153.787L63.6473 133.585M97.0516 153.787L1.43236 153.787M274.347 133.585L247.138 111.643M274.347 133.585L168.997 133.585M274.347 133.585L379.696 133.585M168.997 133.585L137.253 111.643M168.997 133.585L63.6473 133.585M63.6473 133.585L27.3685 111.643M63.6473 133.585L1.43236 133.585M247.138 111.643L137.253 111.643M247.138 111.643L357.022 111.643M102.652 87.7278L137.253 111.643M102.652 87.7278L64.7926 61.5596M102.652 87.7278L1.43237 87.7278M137.253 111.643L27.3685 111.643M357.022 111.643L466.907 111.643M357.022 111.643L379.696 133.585M27.3685 111.643L1.43237 111.643M27.3685 111.643L1.43237 95.9569M379.696 133.585L485.047 133.585M64.7926 61.5596L23.1903 32.8039M64.7926 61.5596L1.43237 61.5596M149.37 32.8039L110.002 1.05756M149.37 32.8039L23.1903 32.8039M149.37 32.8039L275.548 32.8039M23.1903 32.8039L1.43237 17.7645M23.1903 32.8039L1.43237 32.8039M110.002 1.05756L242.743 1.05757M110.002 1.05756L1.43238 1.05813M242.743 1.05757L375.483 1.05758M242.743 1.05757L275.548 32.8039M275.548 32.8039L401.728 32.8039M815.651 423.657L815.449 423.168L815.246 422.677L815.041 422.183L814.837 421.687L814.216 420.186L814.007 419.68M815.651 423.657L770.254 423.657M815.651 423.657L861.048 423.657M772.634 427.495L774.365 430.287L774.932 431.202M772.634 427.495L771.156 425.112L770.254 423.657M772.634 427.495L728.03 427.495M774.932 431.202L731.094 431.202M774.932 431.202L776.604 433.899L777.153 434.782M820.25 434.782L820.431 435.222L821.149 436.96L821.681 438.244M820.25 434.782L777.153 434.782M820.25 434.782L863.347 434.782M770.254 423.657L769.951 423.168L769.646 422.677L769.34 422.183L769.032 421.687L767.788 419.68M770.254 423.657L724.857 423.657M728.03 427.495L730.338 430.287L731.094 431.202M728.03 427.495L724.857 423.657M731.094 431.202L732.587 433.007L733.69 434.341L734.054 434.782M777.153 434.782L777.424 435.222L777.965 436.094L778.503 436.96L778.768 437.39L779.299 438.244M777.153 434.782L734.054 434.782M724.857 423.657L722.402 420.688L721.57 419.68M690.957 434.782L693.651 437.39L694.534 438.244M690.957 434.782L734.054 434.782M734.054 434.782L736.564 437.818L736.917 438.244M814.007 419.68L767.788 419.68M814.007 419.68L860.226 419.68M765.232 415.557L767.788 419.68M765.232 415.557L762.579 411.278M765.232 415.557L718.161 415.557M767.788 419.68L721.57 419.68M860.226 419.68L906.445 419.68M860.226 419.68L861.048 423.657M721.57 419.68L718.161 415.557M861.048 423.657L906.445 423.657M762.579 411.278L761.899 410.184L760.869 408.522L759.824 406.836M762.579 411.278L714.623 411.278M718.161 415.557L717.725 415.031L714.623 411.278M714.623 411.278L714.172 410.732L713.718 410.184L713.262 409.632L710.951 406.836M808.698 406.836L806.79 402.22M808.698 406.836L759.824 406.836M808.698 406.836L857.571 406.836M759.824 406.836L756.962 402.22M759.824 406.836L710.951 406.836M710.951 406.836L708.103 403.391L707.619 402.807L707.135 402.22M806.79 402.22L756.962 402.22M806.79 402.22L856.617 402.22M753.986 397.421L753.606 396.807L753.223 396.191L752.84 395.571L750.889 392.426M753.986 397.421L755.489 399.844L755.86 400.443L756.229 401.038L756.962 402.22M753.986 397.421L703.167 397.421M756.962 402.22L707.135 402.22M856.617 402.22L906.445 402.22M856.617 402.22L857.571 406.836M707.135 402.22L703.167 397.421M857.571 406.836L906.445 406.836M750.889 392.426L748.074 387.887L747.664 387.225M750.889 392.426L699.038 392.426M703.167 397.421L702.15 396.191L699.038 392.426M699.038 392.426L697.446 390.501L694.737 387.225M800.591 387.225L799.482 384.543L799.202 383.863L798.35 381.803M800.591 387.225L747.664 387.225M800.591 387.225L853.518 387.225M747.664 387.225L744.303 381.803M747.664 387.225L694.737 387.225M694.737 387.225L690.255 381.803M798.35 381.803L744.303 381.803M798.35 381.803L852.398 381.803M740.796 376.146L744.303 381.803M740.796 376.146L737.133 370.24M740.796 376.146L685.579 376.146M744.303 381.803L690.255 381.803M852.398 381.803L906.445 381.803M852.398 381.803L852.682 383.18L853.242 385.891L853.518 387.225M690.255 381.803L685.579 376.146M853.518 387.225L906.445 387.225M737.133 370.24L734.279 365.636L733.305 364.066M737.133 370.24L680.695 370.24M685.579 376.146L680.695 370.24M680.695 370.24L678.173 367.188L675.591 364.066M791.018 364.066L788.348 357.607M791.018 364.066L733.305 364.066M791.018 364.066L848.732 364.066M733.305 364.066L729.3 357.607M733.305 364.066L675.591 364.066M675.591 364.066L670.252 357.607M788.348 357.607L729.3 357.607M788.348 357.607L847.397 357.607M725.105 350.842L726.173 352.563L729.3 357.607M725.105 350.842L720.707 343.749M725.105 350.842L664.659 350.842M729.3 357.607L670.252 357.607M847.397 357.607L906.445 357.607M847.397 357.607L848.732 364.066M670.252 357.607L664.659 350.842M848.732 364.066L906.445 364.066M720.707 343.749L716.091 336.303M720.707 343.749L658.795 343.749M664.659 350.842L658.795 343.749M658.795 343.749L652.639 336.303M779.541 336.303L776.307 328.477M779.541 336.303L716.091 336.303M779.541 336.303L842.993 336.303M716.091 336.303L711.238 328.477M716.091 336.303L652.639 336.303M652.639 336.303L646.169 328.477M776.307 328.477L711.238 328.477M776.307 328.477L841.376 328.477M706.132 320.243L711.238 328.477M706.132 320.243L700.752 311.565M706.132 320.243L639.362 320.243M711.238 328.477L646.169 328.477M841.376 328.477L906.445 328.477M841.376 328.477L842.796 335.346L842.993 336.303M646.169 328.477L639.362 320.243M842.993 336.303L906.445 336.303M700.752 311.565L695.075 302.409M700.752 311.565L632.187 311.565M639.362 320.243L634.017 313.778L632.187 311.565M632.187 311.565L624.617 302.409M765.532 302.409L761.532 292.733M765.532 302.409L695.075 302.409M765.532 302.409L835.988 302.409M695.075 302.409L689.075 292.733M695.075 302.409L624.617 302.409M624.617 302.409L616.618 292.733M761.532 292.733L689.075 292.733M761.532 292.733L833.988 292.733M682.725 282.491L689.075 292.733M682.725 282.491L675.993 271.634M682.725 282.491L608.152 282.491M689.075 292.733L616.618 292.733M833.988 292.733L906.445 292.733M833.988 292.733L835.988 302.409M616.618 292.733L608.152 282.491M835.988 302.409L906.445 302.409M675.993 271.634L668.842 260.102M675.993 271.634L599.175 271.634M608.152 282.491L599.175 271.634M599.175 271.634L589.642 260.102M748.043 260.102L742.971 247.832M748.043 260.102L668.842 260.102M748.043 260.102L827.244 260.102M668.842 260.102L661.235 247.832M668.842 260.102L589.642 260.102M589.642 260.102L579.498 247.832M742.971 247.832L661.235 247.832M742.971 247.832L824.708 247.832M653.123 234.75L661.235 247.832M653.123 234.75L644.457 220.774M653.123 234.75L568.683 234.75M661.235 247.832L579.498 247.832M824.708 247.832L906.445 247.832M824.708 247.832L827.244 260.102M579.498 247.832L568.683 234.75M827.244 260.102L906.445 260.102M644.457 220.774L635.177 205.807M644.457 220.774L557.128 220.774M568.683 234.75L557.128 220.774M557.128 220.774L544.754 205.807M725.6 205.807L718.958 189.74M725.6 205.807L635.177 205.807M725.6 205.807L816.022 205.807M635.177 205.807L625.215 189.74M635.177 205.807L544.754 205.807M544.754 205.807L531.472 189.74M718.958 189.74L625.215 189.74M718.958 189.74L812.702 189.74M614.494 172.449L625.215 189.74M614.494 172.449L602.923 153.787M614.494 172.449L517.176 172.449M625.215 189.74L531.472 189.74M812.702 189.74L906.445 189.74M812.702 189.74L816.022 205.807M531.472 189.74L517.176 172.449M816.022 205.807L906.445 205.807M602.923 153.787L590.396 133.585M602.923 153.787L501.748 153.787M517.176 172.449L501.748 153.787M501.748 153.787L485.047 133.585M695.746 133.585L686.676 111.643M695.746 133.585L590.396 133.585M695.746 133.585L801.095 133.585M590.396 133.585L576.791 111.643M590.396 133.585L485.047 133.585M485.047 133.585L466.907 111.643M686.676 111.643L576.791 111.643M686.676 111.643L796.56 111.643M561.962 87.7278L576.791 111.643M561.962 87.7278L545.737 61.5596M561.962 87.7278L447.135 87.7278M576.791 111.643L466.907 111.643M796.56 111.643L906.445 111.643M796.56 111.643L801.095 133.585M466.907 111.643L447.135 87.7278M801.095 133.585L906.445 133.585M545.737 61.5596L527.907 32.804M545.737 61.5596L425.501 61.5596M447.135 87.7278L425.501 61.5596M425.501 61.5596L401.728 32.8039M654.087 32.804L640.964 1.0576M654.087 32.804L527.907 32.804M654.087 32.804L780.266 32.804M527.907 32.804L508.223 1.05759M527.907 32.804L401.728 32.8039M401.728 32.8039L375.483 1.05758M508.223 1.05759L640.964 1.0576M508.223 1.05759L375.483 1.05758M640.964 1.0576L773.704 1.05761M773.704 1.05761L906.445 1.05763M773.704 1.05761L780.266 32.804M780.266 32.804L906.445 32.804M997.238 423.657L997.441 423.168L997.644 422.677L997.848 422.183L998.053 421.687L998.466 420.688L998.674 420.186L998.883 419.68M997.238 423.657L951.842 423.657M997.238 423.657L1042.64 423.657M951.049 427.495L950.282 431.202M951.049 427.495L951.842 423.657M951.049 427.495L906.445 427.495M950.282 431.202L950.189 431.656L950.095 432.108L950.002 432.559L949.542 434.782M950.282 431.202L906.445 431.202M992.64 434.782L992.459 435.222L991.74 436.96L991.209 438.244M992.64 434.782L949.542 434.782M992.64 434.782L1035.74 434.782M951.842 423.657L951.943 423.168L952.044 422.677L952.147 422.183L952.664 419.68M951.842 423.657L906.445 423.657M906.445 427.495L906.445 431.202M906.445 427.495L906.445 423.657M906.445 431.202L906.445 434.782M949.542 434.782L906.445 434.782M949.542 434.782L949.272 436.094L949.181 436.528L948.827 438.244M906.445 423.657L906.445 419.68M863.347 434.782L863.618 436.094L863.709 436.528L863.797 436.96L863.887 437.39L863.974 437.818L864.063 438.244M863.347 434.782L906.445 434.782M906.445 434.782L906.445 438.244M998.883 419.68L952.664 419.68M998.883 419.68L1045.1 419.68M953.516 415.557L953.625 415.031L953.734 414.502L954.4 411.278M953.516 415.557L952.664 419.68M953.516 415.557L906.445 415.557M952.664 419.68L906.445 419.68M1045.1 419.68L1091.32 419.68M1045.1 419.68L1044.48 420.688L1044.17 421.188L1043.86 421.687L1043.55 422.183L1043.24 422.677L1042.94 423.168L1042.64 423.657M906.445 419.68L906.445 415.557M1042.64 423.657L1088.03 423.657M954.4 411.278L955.318 406.836M954.4 411.278L906.445 411.278M906.445 415.557L906.445 411.278M906.445 411.278L906.445 406.836M1004.19 406.836L1006.1 402.22M1004.19 406.836L955.318 406.836M1004.19 406.836L1053.07 406.836M955.318 406.836L956.272 402.22M955.318 406.836L906.445 406.836M906.445 406.836L906.445 402.22M1006.1 402.22L956.272 402.22M1006.1 402.22L1055.93 402.22M957.264 397.421L956.272 402.22M957.264 397.421L958.296 392.426M957.264 397.421L906.445 397.421M956.272 402.22L906.445 402.22M1055.93 402.22L1105.76 402.22M1055.93 402.22L1053.07 406.836M906.445 402.22L906.445 397.421M1053.07 406.836L1101.94 406.836M958.296 392.426L958.694 390.501L959.099 388.546L959.372 387.225M958.296 392.426L906.445 392.426M906.445 397.421L906.445 392.426M906.445 392.426L906.445 387.225M1012.3 387.225L1013.41 384.543L1013.69 383.863L1014.54 381.803M1012.3 387.225L959.372 387.225M1012.3 387.225L1065.23 387.225M959.372 387.225L959.647 385.891L960.207 383.18L960.492 381.803M959.372 387.225L906.445 387.225M906.445 387.225L906.445 381.803M1014.54 381.803L960.492 381.803M1014.54 381.803L1068.59 381.803M961.661 376.146L961.513 376.867L960.492 381.803M961.661 376.146L962.882 370.24M961.661 376.146L906.445 376.146M960.492 381.803L906.445 381.803M1068.59 381.803L1122.63 381.803M1068.59 381.803L1065.23 387.225M906.445 381.803L906.445 376.146M1065.23 387.225L1118.15 387.225M962.882 370.24L964.158 364.066M962.882 370.24L906.445 370.24M906.445 376.146L906.445 370.24M906.445 370.24L906.445 364.066M1021.87 364.066L1024.54 357.607M1021.87 364.066L964.158 364.066M1021.87 364.066L1079.59 364.066M964.158 364.066L965.493 357.607M964.158 364.066L906.445 364.066M906.445 364.066L906.445 357.607M1024.54 357.607L965.493 357.607M1024.54 357.607L1083.59 357.607M966.891 350.842L965.493 357.607M966.891 350.842L968.357 343.749M966.891 350.842L906.445 350.842M965.493 357.607L906.445 357.607M1083.59 357.607L1142.64 357.607M1083.59 357.607L1079.59 364.066M906.445 357.607L906.445 350.842M1079.59 364.066L1137.3 364.066M968.357 343.749L969.897 336.303M968.357 343.749L906.445 343.749M906.445 350.842L906.445 343.749M906.445 343.749L906.445 336.303M1033.35 336.303L1036.58 328.478M1033.35 336.303L969.897 336.303M1033.35 336.303L1096.8 336.303M969.897 336.303L971.513 328.477M969.897 336.303L906.445 336.303M906.445 336.303L906.445 328.477M1036.58 328.478L971.513 328.477M1036.58 328.478L1101.65 328.478M973.216 320.243L971.513 328.477M973.216 320.243L975.009 311.566M973.216 320.243L906.445 320.243M971.513 328.477L906.445 328.477M1101.65 328.478L1166.72 328.478M1101.65 328.478L1096.8 336.303M906.445 328.477L906.445 320.243M1096.8 336.303L1160.25 336.303M975.009 311.566L976.902 302.409M975.009 311.566L906.445 311.566M906.445 320.243L906.445 311.566M906.445 311.566L906.445 302.409M1047.36 302.409L1051.36 292.733M1047.36 302.409L976.902 302.409M1047.36 302.409L1117.82 302.409M976.902 302.409L978.902 292.733M976.902 302.409L906.445 302.409M906.445 302.409L906.445 292.733M1051.36 292.733L978.902 292.733M1051.36 292.733L1123.81 292.733M981.018 282.491L978.902 292.733M981.018 282.491L983.263 271.634M981.018 282.491L906.445 282.491M978.902 292.733L906.445 292.733M1123.81 292.733L1196.27 292.733M1123.81 292.733L1117.82 302.409M906.445 292.733L906.445 282.491M1117.82 302.409L1188.27 302.409M983.263 271.634L985.646 260.102M983.263 271.634L906.445 271.634M906.445 282.491L906.445 271.634M906.445 271.634L906.445 260.102M1064.85 260.102L1069.92 247.832M1064.85 260.102L985.646 260.102M1064.85 260.102L1144.05 260.102M985.646 260.102L988.182 247.832M985.646 260.102L906.445 260.102M906.445 260.102L906.445 247.832M1069.92 247.832L988.182 247.832M1069.92 247.832L1151.66 247.832M990.885 234.75L988.182 247.832M990.885 234.75L993.774 220.774M990.885 234.75L906.445 234.75M988.182 247.832L906.445 247.832M1151.66 247.832L1233.39 247.832M1151.66 247.832L1144.05 260.102M906.445 247.832L906.445 234.75M1144.05 260.102L1223.25 260.102M993.774 220.774L996.868 205.807M993.774 220.774L906.445 220.774M906.445 234.75L906.445 220.774M906.445 220.774L906.445 205.807M1087.29 205.807L1093.93 189.74M1087.29 205.807L996.868 205.807M1087.29 205.807L1177.71 205.807M996.868 205.807L1000.19 189.74M996.868 205.807L906.445 205.807M906.445 205.807L906.445 189.74M1093.93 189.74L1000.19 189.74M1093.93 189.74L1187.67 189.74M1003.76 172.449L1000.19 189.74M1003.76 172.449L1007.62 153.787M1003.76 172.449L906.445 172.449M1000.19 189.74L906.445 189.74M1187.67 189.74L1281.42 189.74M1187.67 189.74L1177.71 205.807M906.445 189.74L906.445 172.449M1177.71 205.807L1268.14 205.807M1007.62 153.787L1011.79 133.585M1007.62 153.787L906.445 153.787M906.445 172.449L906.445 153.787M906.445 153.787L906.445 133.585M1117.14 133.585L1126.21 111.643M1117.14 133.585L1011.79 133.585M1117.14 133.585L1222.49 133.585M1011.79 133.585L1016.33 111.643M1011.79 133.585L906.445 133.585M906.445 133.585L906.445 111.643M1126.21 111.643L1016.33 111.643M1126.21 111.643L1236.1 111.643M1021.27 87.7279L1016.33 111.643M1021.27 87.7279L1026.68 61.5596M1021.27 87.7279L906.445 87.7279M1016.33 111.643L906.445 111.643M1236.1 111.643L1345.98 111.643M1236.1 111.643L1222.49 133.585M906.445 111.643L906.445 87.7279M1222.49 133.585L1327.84 133.585M1026.68 61.5596L1032.62 32.804M1026.68 61.5596L906.445 61.5596M906.445 87.7279L906.445 61.5596M906.445 61.5596L906.445 32.804M1158.8 32.804L1171.93 1.05765M1158.8 32.804L1032.62 32.804M1158.8 32.804L1284.98 32.804M1032.62 32.804L1039.19 1.05764M1032.62 32.804L906.445 32.804M906.445 32.804L906.445 1.05763M1039.19 1.05764L1171.93 1.05765M1039.19 1.05764L906.445 1.05763M1171.93 1.05765L1304.67 1.05766M1304.67 1.05766L1437.41 1.05767M1304.67 1.05766L1284.98 32.804M1284.98 32.804L1411.16 32.804M1178.83 423.657L1181.27 421.687L1183.76 419.68M1178.83 423.657L1133.43 423.657M1178.83 423.657L1224.22 423.657M1129.46 427.495L1125.63 431.202M1129.46 427.495L1133.43 423.657M1129.46 427.495L1084.86 427.495M1125.63 431.202L1081.8 431.202M1125.63 431.202L1122.85 433.899L1121.93 434.782M1165.03 434.782L1121.93 434.782M1165.03 434.782L1163.4 436.094L1160.74 438.244M1165.03 434.782L1208.13 434.782M1133.43 423.657L1137.54 419.68M1133.43 423.657L1088.03 423.657M1084.86 427.495L1081.8 431.202M1084.86 427.495L1088.03 423.657M1081.8 431.202L1080.3 433.007L1079.2 434.341L1078.84 434.782M1121.93 434.782L1078.84 434.782M1121.93 434.782L1119.24 437.39L1118.36 438.244M1088.03 423.657L1090.49 420.688L1091.32 419.68M1035.74 434.782L1035.47 435.222L1034.92 436.094L1034.12 437.39L1033.59 438.244M1035.74 434.782L1078.84 434.782M1078.84 434.782L1078.47 435.222L1077.75 436.094L1075.97 438.244M1183.76 419.68L1137.54 419.68M1183.76 419.68L1229.98 419.68M1141.8 415.557L1141.26 416.081L1140.72 416.602L1138.59 418.664L1137.54 419.68M1141.8 415.557L1145.1 412.364L1146.22 411.278M1141.8 415.557L1094.73 415.557M1137.54 419.68L1091.32 419.68M1229.98 419.68L1276.2 419.68M1229.98 419.68L1225.64 422.677L1224.22 423.657M1091.32 419.68L1094.73 415.557M1224.22 423.657L1269.62 423.657M1146.22 411.278L1146.79 410.732L1147.35 410.184L1149.07 408.522L1149.65 407.963L1150.81 406.836M1146.22 411.278L1098.27 411.278M1094.73 415.557L1095.16 415.031L1098.27 411.278M1098.27 411.278L1098.72 410.732L1099.17 410.184L1099.63 409.632L1101.94 406.836M1199.69 406.836L1205.41 402.22M1199.69 406.836L1150.81 406.836M1199.69 406.836L1248.56 406.836M1150.81 406.836L1155.58 402.22M1150.81 406.836L1101.94 406.836M1101.94 406.836L1105.76 402.22M1205.41 402.22L1155.58 402.22M1205.41 402.22L1255.24 402.22M1160.54 397.421L1155.58 402.22M1160.54 397.421L1165.7 392.426M1160.54 397.421L1109.72 397.421M1155.58 402.22L1105.76 402.22M1255.24 402.22L1305.07 402.22M1255.24 402.22L1248.56 406.836M1105.76 402.22L1109.72 397.421M1248.56 406.836L1297.43 406.836M1165.7 392.426L1171.08 387.225M1165.7 392.426L1113.85 392.426M1109.72 397.421L1110.74 396.191L1113.85 392.426M1113.85 392.426L1115.44 390.501L1117.06 388.546L1118.15 387.225M1224.01 387.225L1227.33 384.543L1230.73 381.803M1224.01 387.225L1171.08 387.225M1224.01 387.225L1276.93 387.225M1171.08 387.225L1176.68 381.803M1171.08 387.225L1118.15 387.225M1118.15 387.225L1122.63 381.803M1230.73 381.803L1176.68 381.803M1230.73 381.803L1284.78 381.803M1182.53 376.146L1176.68 381.803M1182.53 376.146L1188.63 370.24M1182.53 376.146L1127.31 376.146M1176.68 381.803L1122.63 381.803M1284.78 381.803L1338.83 381.803M1284.78 381.803L1276.93 387.225M1122.63 381.803L1127.31 376.146M1276.93 387.225L1329.86 387.225M1188.63 370.24L1190.2 368.723L1195.01 364.066M1188.63 370.24L1132.19 370.24M1127.31 376.146L1132.19 370.24M1132.19 370.24L1132.82 369.483L1134.72 367.188L1137.3 364.066M1252.72 364.066L1260.73 357.607M1252.72 364.066L1195.01 364.066M1252.72 364.066L1310.44 364.066M1195.01 364.066L1201.69 357.607M1195.01 364.066L1137.3 364.066M1137.3 364.066L1142.64 357.607M1260.73 357.607L1201.69 357.607M1260.73 357.607L1319.78 357.607M1208.68 350.842L1204.27 355.107L1201.69 357.607M1208.68 350.842L1216.01 343.749M1208.68 350.842L1148.23 350.842M1201.69 357.607L1142.64 357.607M1319.78 357.607L1378.83 357.607M1319.78 357.607L1310.44 364.066M1142.64 357.607L1148.23 350.842M1310.44 364.066L1368.15 364.066M1216.01 343.749L1223.7 336.303M1216.01 343.749L1154.1 343.749M1148.23 350.842L1154.1 343.749M1154.1 343.749L1160.25 336.303M1287.15 336.303L1296.86 328.478M1287.15 336.303L1223.7 336.303M1287.15 336.303L1350.61 336.303M1223.7 336.303L1231.79 328.478M1223.7 336.303L1160.25 336.303M1160.25 336.303L1166.72 328.478M1296.86 328.478L1231.79 328.478M1296.86 328.478L1361.93 328.478M1240.3 320.243L1231.79 328.478M1240.3 320.243L1249.27 311.566M1240.3 320.243L1173.53 320.243M1231.79 328.478L1166.72 328.478M1361.93 328.478L1427 328.478M1361.93 328.478L1350.61 336.303M1166.72 328.478L1173.53 320.243M1350.61 336.303L1414.06 336.303M1249.27 311.566L1258.73 302.409M1249.27 311.566L1180.7 311.566M1173.53 320.243L1180.7 311.566M1180.7 311.566L1188.27 302.409M1329.19 302.409L1341.18 292.733M1329.19 302.409L1258.73 302.409M1329.19 302.409L1399.64 302.409M1258.73 302.409L1268.73 292.733M1258.73 302.409L1188.27 302.409M1188.27 302.409L1196.27 292.733M1341.18 292.733L1268.73 292.733M1341.18 292.733L1413.64 292.733M1279.31 282.491L1268.73 292.733M1279.31 282.491L1290.53 271.634M1279.31 282.491L1204.74 282.491M1268.73 292.733L1196.27 292.733M1413.64 292.733L1486.1 292.733M1413.64 292.733L1399.64 302.409M1196.27 292.733L1204.74 282.491M1399.64 302.409L1470.1 302.409M1290.53 271.634L1302.45 260.102M1290.53 271.634L1213.71 271.634M1204.74 282.491L1213.71 271.634M1213.71 271.634L1223.25 260.102M1381.65 260.102L1396.87 247.832M1381.65 260.102L1302.45 260.102M1381.65 260.102L1460.85 260.102M1302.45 260.102L1315.13 247.832M1302.45 260.102L1223.25 260.102M1223.25 260.102L1233.39 247.832M1396.87 247.832L1315.13 247.832M1396.87 247.832L1478.6 247.832M1328.65 234.75L1315.13 247.832M1328.65 234.75L1343.09 220.774M1328.65 234.75L1244.21 234.75M1315.13 247.832L1233.39 247.832M1478.6 247.832L1560.34 247.832M1478.6 247.832L1460.85 260.102M1233.39 247.832L1244.21 234.75M1460.85 260.102L1540.05 260.102M1343.09 220.774L1358.56 205.807M1343.09 220.774L1255.76 220.774M1244.21 234.75L1255.76 220.774M1255.76 220.774L1268.14 205.807M1448.98 205.807L1468.9 189.74M1448.98 205.807L1358.56 205.807M1448.98 205.807L1539.4 205.807M1358.56 205.807L1375.16 189.74M1358.56 205.807L1268.14 205.807M1268.14 205.807L1281.42 189.74M1468.9 189.74L1375.16 189.74M1468.9 189.74L1562.65 189.74M1393.03 172.449L1375.16 189.74M1393.03 172.449L1412.32 153.787M1393.03 172.449L1295.71 172.449M1375.16 189.74L1281.42 189.74M1562.65 189.74L1656.39 189.74M1562.65 189.74L1539.4 205.807M1281.42 189.74L1295.71 172.449M1539.4 205.807L1629.83 205.807M1412.32 153.787L1433.19 133.585M1412.32 153.787L1311.14 153.787M1295.71 172.449L1311.14 153.787M1311.14 153.787L1327.84 133.585M1538.54 133.585L1565.75 111.643M1538.54 133.585L1433.19 133.585M1538.54 133.585L1643.89 133.585M1433.19 133.585L1455.87 111.643M1433.19 133.585L1327.84 133.585M1327.84 133.585L1345.98 111.643M1565.75 111.643L1455.87 111.643M1565.75 111.643L1675.64 111.643M1480.58 87.7279L1455.87 111.643M1480.58 87.7279L1507.63 61.5597M1480.58 87.7279L1365.75 87.7279M1455.87 111.643L1345.98 111.643M1675.64 111.643L1785.52 111.643M1675.64 111.643L1643.89 133.585M1345.98 111.643L1365.75 87.7279M1643.89 133.585L1749.24 133.585M1507.63 61.5597L1537.34 32.804M1507.63 61.5597L1387.39 61.5597M1365.75 87.7279L1387.39 61.5597M1387.39 61.5597L1411.16 32.804M1663.52 32.8041L1702.89 1.05769M1663.52 32.8041L1537.34 32.804M1663.52 32.8041L1789.7 32.8041M1537.34 32.804L1570.15 1.05768M1537.34 32.804L1411.16 32.804M1411.16 32.804L1437.41 1.05767M1570.15 1.05768L1702.89 1.05769M1570.15 1.05768L1437.41 1.05767M1702.89 1.05769L1811.46 1.05829M1789.7 32.8041L1811.46 17.7646M1789.7 32.8041L1811.46 32.8041M1360.41 423.657L1368.63 419.68M1360.41 423.657L1315.02 423.657M1360.41 423.657L1405.81 423.657M1307.88 427.495L1300.98 431.202M1307.88 427.495L1315.02 423.657M1307.88 427.495L1263.27 427.495M1300.98 431.202L1257.15 431.202M1300.98 431.202L1294.32 434.782M1337.42 434.782L1294.32 434.782M1337.42 434.782L1334.71 436.094L1330.27 438.244M1337.42 434.782L1380.52 434.782M1315.02 423.657L1322.42 419.68M1315.02 423.657L1269.62 423.657M1263.27 427.495L1257.15 431.202M1263.27 427.495L1269.62 423.657M1257.15 431.202L1252.69 433.899L1251.23 434.782M1294.32 434.782L1293.51 435.222L1287.88 438.244M1294.32 434.782L1251.23 434.782M1269.62 423.657L1276.2 419.68M1208.13 434.782L1203.12 438.244M1208.13 434.782L1251.23 434.782M1251.23 434.782L1249.06 436.094L1245.5 438.244M1368.63 419.68L1322.42 419.68M1368.63 419.68L1414.85 419.68M1330.09 415.557L1322.42 419.68M1330.09 415.557L1338.04 411.278M1330.09 415.557L1283.01 415.557M1322.42 419.68L1276.2 419.68M1414.85 419.68L1461.07 419.68M1414.85 419.68L1405.81 423.657M1276.2 419.68L1283.01 415.557M1405.81 423.657L1451.21 423.657M1338.04 411.278L1340.08 410.184L1346.31 406.836M1338.04 411.278L1290.09 411.278M1283.01 415.557L1290.09 411.278M1290.09 411.278L1297.43 406.836M1395.18 406.836L1396.35 406.269L1404.72 402.22M1395.18 406.836L1346.31 406.836M1395.18 406.836L1444.05 406.836M1346.31 406.836L1354.89 402.22M1346.31 406.836L1297.43 406.836M1297.43 406.836L1298.37 406.269L1305.07 402.22M1404.72 402.22L1354.89 402.22M1404.72 402.22L1454.55 402.22M1363.82 397.421L1354.89 402.22M1363.82 397.421L1373.11 392.426M1363.82 397.421L1313 397.421M1354.89 402.22L1305.07 402.22M1454.55 402.22L1504.38 402.22M1454.55 402.22L1444.05 406.836M1305.07 402.22L1313 397.421M1444.05 406.836L1492.93 406.836M1373.11 392.426L1382.79 387.225M1373.11 392.426L1321.26 392.426M1313 397.421L1321.26 392.426M1321.26 392.426L1329.86 387.225M1435.71 387.225L1446.92 381.803M1435.71 387.225L1382.79 387.225M1435.71 387.225L1488.64 387.225M1382.79 387.225L1392.87 381.803M1382.79 387.225L1329.86 387.225M1329.86 387.225L1338.83 381.803M1446.92 381.803L1392.87 381.803M1446.92 381.803L1500.97 381.803M1403.39 376.146L1392.87 381.803M1403.39 376.146L1414.38 370.24M1403.39 376.146L1348.18 376.146M1392.87 381.803L1338.83 381.803M1500.97 381.803L1555.01 381.803M1500.97 381.803L1488.64 387.225M1338.83 381.803L1348.18 376.146M1488.64 387.225L1541.57 387.225M1414.38 370.24L1425.86 364.066M1414.38 370.24L1357.94 370.24M1348.18 376.146L1357.94 370.24M1357.94 370.24L1368.15 364.066M1483.58 364.066L1496.93 357.607M1483.58 364.066L1425.86 364.066M1483.58 364.066L1541.29 364.066M1425.86 364.066L1437.88 357.607M1425.86 364.066L1368.15 364.066M1368.15 364.066L1378.83 357.607M1496.93 357.607L1437.88 357.607M1496.93 357.607L1555.98 357.607M1450.46 350.842L1437.88 357.607M1450.46 350.842L1463.66 343.749M1450.46 350.842L1390.02 350.842M1437.88 357.607L1378.83 357.607M1555.98 357.607L1615.02 357.607M1555.98 357.607L1541.29 364.066M1378.83 357.607L1390.02 350.842M1541.29 364.066L1599 364.066M1463.66 343.749L1477.51 336.303M1463.66 343.749L1401.75 343.749M1390.02 350.842L1401.75 343.749M1401.75 343.749L1414.06 336.303M1540.96 336.303L1557.13 328.478M1540.96 336.303L1477.51 336.303M1540.96 336.303L1604.41 336.303M1477.51 336.303L1492.07 328.478M1477.51 336.303L1414.06 336.303M1414.06 336.303L1427 328.478M1557.13 328.478L1492.07 328.478M1557.13 328.478L1622.2 328.478M1507.38 320.243L1492.07 328.478M1507.38 320.243L1523.52 311.566M1507.38 320.243L1440.61 320.243M1492.07 328.478L1427 328.478M1622.2 328.478L1687.27 328.478M1622.2 328.478L1604.41 336.303M1427 328.478L1440.61 320.243M1604.41 336.303L1667.86 336.303M1523.52 311.566L1540.56 302.409M1523.52 311.566L1454.96 311.566M1440.61 320.243L1454.96 311.566M1454.96 311.566L1470.1 302.409M1611.01 302.409L1631.01 292.733M1611.01 302.409L1540.56 302.409M1611.01 302.409L1681.47 302.409M1540.56 302.409L1558.55 292.733M1540.56 302.409L1470.1 302.409M1470.1 302.409L1486.1 292.733M1631.01 292.733L1558.55 292.733M1631.01 292.733L1703.47 292.733M1577.61 282.491L1558.55 292.733M1577.61 282.491L1597.8 271.634M1577.61 282.491L1503.03 282.491M1558.55 292.733L1486.1 292.733M1703.47 292.733L1775.92 292.733M1703.47 292.733L1681.47 302.409M1486.1 292.733L1503.03 282.491M1681.47 302.409L1751.93 302.409M1597.8 271.634L1619.25 260.102M1597.8 271.634L1520.98 271.634M1503.03 282.491L1520.98 271.634M1520.98 271.634L1540.05 260.102M1698.45 260.102L1723.81 247.832M1698.45 260.102L1619.25 260.102M1698.45 260.102L1777.65 260.102M1619.25 260.102L1642.08 247.832M1619.25 260.102L1540.05 260.102M1540.05 260.102L1560.34 247.832M1723.81 247.832L1642.08 247.832M1723.81 247.832L1805.55 247.832M1666.41 234.75L1642.08 247.832M1666.41 234.75L1692.41 220.774M1666.41 234.75L1581.97 234.75M1642.08 247.832L1560.34 247.832M1805.55 247.832L1777.65 260.102M1805.55 247.832L1811.46 247.832M1805.55 247.832L1811.46 245.234M1560.34 247.832L1581.97 234.75M1777.65 260.102L1811.46 260.102M1692.41 220.774L1720.25 205.807M1692.41 220.774L1605.08 220.774M1581.97 234.75L1605.08 220.774M1605.08 220.774L1629.83 205.807M1810.67 205.807L1720.25 205.807M1810.67 205.807L1811.46 205.807M1810.67 205.807L1811.46 205.427M1720.25 205.807L1750.14 189.74M1720.25 205.807L1629.83 205.807M1629.83 205.807L1656.39 189.74M1782.3 172.449L1750.14 189.74M1782.3 172.449L1684.98 172.449M1782.3 172.449L1811.46 172.449M1782.3 172.449L1811.46 156.774M1750.14 189.74L1656.39 189.74M1750.14 189.74L1811.46 189.74M1656.39 189.74L1684.98 172.449M1684.98 172.449L1715.84 153.787M1715.84 153.787L1749.24 133.585M1715.84 153.787L1811.46 153.787M1749.24 133.585L1785.52 111.643M1749.24 133.585L1811.46 133.585M1785.52 111.643L1811.46 111.643M1785.52 111.643L1811.46 95.9571M1542 423.657L1553.51 419.68M1542 423.657L1496.6 423.657M1542 423.657L1587.4 423.657M1486.29 427.495L1476.34 431.202M1486.29 427.495L1496.6 423.657M1486.29 427.495L1441.69 427.495M1476.34 431.202L1432.5 431.202M1476.34 431.202L1466.71 434.782M1509.81 434.782L1466.71 434.782M1509.81 434.782L1499.79 438.244M1509.81 434.782L1552.91 434.782M1496.6 423.657L1507.29 419.68M1496.6 423.657L1451.21 423.657M1441.69 427.495L1432.5 431.202M1441.69 427.495L1451.21 423.657M1432.5 431.202L1423.62 434.782M1466.71 434.782L1465.53 435.222L1457.41 438.244M1466.71 434.782L1423.62 434.782M1451.21 423.657L1461.07 419.68M1380.52 434.782L1372.65 438.244M1380.52 434.782L1423.62 434.782M1423.62 434.782L1422.53 435.222L1415.03 438.244M1553.51 419.68L1507.29 419.68M1553.51 419.68L1599.73 419.68M1518.37 415.557L1507.29 419.68M1518.37 415.557L1529.87 411.279M1518.37 415.557L1471.3 415.557M1507.29 419.68L1461.07 419.68M1599.73 419.68L1645.95 419.68M1599.73 419.68L1587.4 423.657M1461.07 419.68L1471.3 415.557M1587.4 423.657L1632.8 423.657M1529.87 411.279L1541.8 406.836M1529.87 411.279L1481.91 411.278M1471.3 415.557L1472.6 415.031L1481.91 411.278M1481.91 411.278L1492.93 406.836M1590.68 406.836L1604.03 402.22M1590.68 406.836L1541.8 406.836M1590.68 406.836L1639.55 406.836M1541.8 406.836L1554.2 402.22M1541.8 406.836L1492.93 406.836M1492.93 406.836L1504.38 402.22M1604.03 402.22L1554.2 402.22M1604.03 402.22L1653.86 402.22M1567.1 397.421L1554.2 402.22M1567.1 397.421L1580.52 392.426M1567.1 397.421L1516.28 397.421M1554.2 402.22L1504.38 402.22M1653.86 402.22L1703.69 402.22M1653.86 402.22L1639.55 406.836M1504.38 402.22L1516.28 397.421M1639.55 406.836L1688.42 406.836M1580.52 392.426L1594.49 387.225M1580.52 392.426L1528.67 392.426M1516.28 397.421L1528.67 392.426M1528.67 392.426L1541.57 387.225M1647.42 387.225L1663.11 381.803M1647.42 387.225L1594.49 387.225M1647.42 387.225L1700.35 387.225M1594.49 387.225L1609.06 381.803M1594.49 387.225L1541.57 387.225M1541.57 387.225L1555.01 381.803M1663.11 381.803L1609.06 381.803M1663.11 381.803L1717.16 381.803M1624.26 376.146L1609.06 381.803M1624.26 376.146L1640.13 370.24M1624.26 376.146L1569.04 376.146M1609.06 381.803L1555.01 381.803M1717.16 381.803L1771.2 381.803M1717.16 381.803L1700.35 387.225M1555.01 381.803L1569.04 376.146M1700.35 387.225L1753.27 387.225M1640.13 370.24L1656.72 364.066M1640.13 370.24L1583.69 370.24M1569.04 376.146L1583.69 370.24M1583.69 370.24L1599 364.066M1714.43 364.066L1733.12 357.607M1714.43 364.066L1656.72 364.066M1714.43 364.066L1772.14 364.066M1656.72 364.066L1674.07 357.607M1656.72 364.066L1599 364.066M1599 364.066L1615.02 357.607M1733.12 357.607L1674.07 357.607M1692.25 350.842L1674.07 357.607M1692.25 350.842L1711.31 343.749M1692.25 350.842L1631.8 350.842M1674.07 357.607L1615.02 357.607M1615.02 357.607L1631.8 350.842M1772.14 364.066L1811.46 364.066M1711.31 343.749L1731.31 336.303M1711.31 343.749L1649.4 343.749M1631.8 350.842L1649.4 343.749M1649.4 343.749L1667.86 336.303M1794.77 336.303L1731.31 336.303M1794.77 336.303L1811.46 336.303M1794.77 336.303L1811.46 330.535M1731.31 336.303L1752.34 328.478M1731.31 336.303L1667.86 336.303M1667.86 336.303L1687.27 328.478M1774.47 320.243L1752.34 328.478M1774.47 320.243L1797.78 311.566M1774.47 320.243L1707.7 320.243M1774.47 320.243L1811.46 320.243M1752.34 328.478L1687.27 328.478M1752.34 328.478L1811.46 328.478M1687.27 328.478L1707.7 320.243M1811.64 330.471L1811.46 330.535M1797.78 311.566L1729.22 311.566M1797.78 311.566L1811.46 311.566M1797.78 311.566L1811.46 306.476M1707.7 320.243L1729.22 311.566M1729.22 311.566L1751.93 302.409M1751.93 302.409L1775.92 292.733M1751.93 302.409L1811.46 302.409M1801.33 282.491L1775.92 292.733M1801.33 282.491L1811.46 282.491M1801.33 282.491L1811.46 278.406M1775.92 292.733L1811.46 292.733M1723.59 423.657L1738.38 419.68M1723.59 423.657L1678.19 423.657M1723.59 423.657L1768.99 423.657M1664.71 427.495L1651.69 431.202M1664.71 427.495L1678.19 423.657M1664.71 427.495L1620.1 427.495M1651.69 431.202L1607.85 431.202M1651.69 431.202L1639.1 434.782M1682.2 434.782L1639.1 434.782M1682.2 434.782L1669.32 438.244M1682.2 434.782L1725.3 434.782M1678.19 423.657L1692.17 419.68M1678.19 423.657L1632.8 423.657M1620.1 427.495L1607.85 431.202M1620.1 427.495L1632.8 423.657M1607.85 431.202L1596.01 434.782M1639.1 434.782L1596.01 434.782M1639.1 434.782L1626.94 438.244M1632.8 423.657L1645.95 419.68M1552.91 434.782L1542.18 438.244M1552.91 434.782L1596.01 434.782M1596.01 434.782L1584.56 438.244M1738.38 419.68L1692.17 419.68M1738.38 419.68L1784.6 419.68M1706.65 415.557L1692.17 419.68M1706.65 415.557L1721.69 411.279M1706.65 415.557L1659.58 415.557M1692.17 419.68L1645.95 419.68M1784.6 419.68L1768.99 423.657M1784.6 419.68L1811.46 419.68M1645.95 419.68L1659.58 415.557M1768.99 423.657L1811.46 423.657M1721.69 411.279L1737.3 406.836M1721.69 411.279L1673.73 411.279M1659.58 415.557L1673.73 411.279M1673.73 411.279L1688.42 406.836M1786.17 406.836L1803.34 402.22M1786.17 406.836L1737.3 406.836M1786.17 406.836L1811.46 406.836M1737.3 406.836L1753.51 402.22M1737.3 406.836L1688.42 406.836M1688.42 406.836L1703.69 402.22M1770.38 397.421L1753.51 402.22M1770.38 397.421L1787.93 392.426M1770.38 397.421L1719.56 397.421M1770.38 397.421L1811.46 397.421M1753.51 402.22L1803.34 402.22M1753.51 402.22L1703.69 402.22M1803.34 402.22L1811.46 400.039M1803.34 402.22L1811.46 402.22M1703.69 402.22L1719.56 397.421M1787.93 392.426L1806.2 387.225M1787.93 392.426L1736.07 392.426M1787.93 392.426L1811.46 392.426M1719.56 397.421L1736.07 392.426M1736.07 392.426L1753.27 387.225M1806.2 387.225L1753.27 387.225M1806.2 387.225L1811.46 385.729M1806.2 387.225L1811.46 387.225M1753.27 387.225L1771.2 381.803M1789.91 376.146L1771.2 381.803M1789.91 376.146L1809.44 370.24M1789.91 376.146L1811.46 376.146M1771.2 381.803L1811.46 381.803M1811.74 381.803L1811.46 381.803M1809.44 370.24L1811.46 370.24M1809.44 370.24L1811.46 369.631M1811.94 369.483L1811.46 369.631M1798.52 427.495L1783.2 431.202M1798.52 427.495L1811.46 427.495M1798.52 427.495L1811.46 424.366M1783.2 431.202L1768.4 434.782M1783.2 431.202L1811.46 431.202M1725.3 434.782L1711.7 438.244M1725.3 434.782L1768.4 434.782M1768.4 434.782L1754.09 438.244M1768.4 434.782L1811.46 434.782M313.096 438.244L270.714 438.244M313.096 438.244L355.478 438.244M281.096 441.593L278.533 440.766L270.714 438.244M281.096 441.593L239.406 441.593M270.714 438.244L228.332 438.244M239.406 441.593L236.672 440.766L235.296 440.351L228.332 438.244M228.332 438.244L185.95 438.244M185.95 438.244L143.567 438.244M355.478 438.244L397.86 438.244M143.567 438.244L101.185 438.244M101.185 438.244L114.337 441.593M101.185 438.244L58.8036 438.244M114.337 441.593L72.6474 441.593M482.625 438.244L440.242 438.244M482.625 438.244L525.007 438.244M447.856 441.593L445.976 440.766L445.03 440.351L440.242 438.244M447.856 441.593L406.166 441.593M440.242 438.244L397.86 438.244M406.166 441.593L397.86 438.244M525.007 438.244L567.389 438.244M652.152 438.244L609.771 438.244M652.152 438.244L694.534 438.244M614.616 441.593L614.018 441.181L613.42 440.766L612.817 440.351L609.771 438.244M614.616 441.593L572.926 441.593M609.771 438.244L567.389 438.244M572.926 441.593L567.389 438.244M694.534 438.244L736.917 438.244M821.681 438.244L779.299 438.244M821.681 438.244L864.063 438.244M781.375 441.593L779.299 438.244M781.375 441.593L739.685 441.593M779.299 438.244L736.917 438.244M739.685 441.593L739.344 441.181L739.002 440.766L738.657 440.351L736.917 438.244M864.063 438.244L906.445 438.244M991.209 438.244L948.827 438.244M991.209 438.244L1033.59 438.244M948.135 441.593L948.827 438.244M948.135 441.593L906.445 441.593M948.827 438.244L906.445 438.244M906.445 441.593L906.445 438.244M1033.59 438.244L1075.97 438.244M1160.74 438.244L1118.36 438.244M1160.74 438.244L1203.12 438.244M1114.89 441.593L1115.75 440.766L1117.48 439.092L1118.36 438.244M1114.89 441.593L1073.2 441.593M1118.36 438.244L1075.97 438.244M1073.2 441.593L1073.55 441.181L1073.89 440.766L1074.23 440.351L1075.97 438.244M1203.12 438.244L1245.5 438.244M1330.27 438.244L1287.88 438.244M1330.27 438.244L1372.65 438.244M1281.65 441.593L1283.19 440.766L1283.97 440.351L1287.88 438.244M1281.65 441.593L1239.96 441.593M1287.88 438.244L1245.5 438.244M1239.96 441.593L1240.65 441.181L1245.5 438.244M1372.65 438.244L1415.03 438.244M1499.79 438.244L1457.41 438.244M1499.79 438.244L1542.18 438.244M1448.41 441.593L1450.64 440.766L1451.75 440.351L1457.41 438.244M1448.41 441.593L1406.72 441.593M1457.41 438.244L1415.03 438.244M1406.72 441.593L1407.75 441.181L1415.03 438.244M1542.18 438.244L1584.56 438.244M1669.32 438.244L1626.94 438.244M1669.32 438.244L1711.7 438.244M1615.17 441.593L1626.94 438.244M1615.17 441.593L1573.48 441.593M1626.94 438.244L1584.56 438.244M1573.48 441.593L1576.22 440.766L1577.59 440.351L1584.56 438.244M1711.7 438.244L1754.09 438.244M1781.93 441.593L1796.47 438.244M1781.93 441.593L1740.24 441.593M1781.93 441.593L1811.46 441.593M1796.47 438.244L1754.09 438.244M1796.47 438.244L1811.46 434.791M1796.47 438.244L1811.46 438.244M1740.24 441.593L1743.66 440.766L1754.09 438.244M72.6474 441.593L69.2291 440.766L58.8036 438.244M58.8036 438.244L16.4216 438.244M16.4216 438.244L1.43234 434.791M16.4216 438.244L1.43234 438.244M1.43235 278.406L1.43235 282.491M1.43235 278.406L1.43235 271.634M1.43235 282.491L1.43235 292.733M1.43235 271.634L1.43235 269.61L1.43235 260.102M1.43235 260.102L1.43235 247.832M1.43234 357.607L1.43234 364.066M1.43234 357.607L1.43234 351.386M1.43234 441.593L1.43234 438.244M1.43234 438.244L1.43234 434.791M1.43234 434.791L1.39563 434.782L1.43234 434.782M1.43234 434.791L1.43234 434.782M1.43234 434.782L1.43234 431.201M1.43234 431.201L1.43234 427.495M1.43234 427.495L1.43234 424.365M1.43234 424.365L1.43234 423.657M1.43234 423.657L1.43234 419.68M1.43234 419.68L1.43234 415.557M1.43234 415.557L1.43234 412.842M1.43234 412.842L1.43234 411.278M1.43234 411.278L1.43234 406.836M1.43234 406.836L1.43234 402.22M1.43234 402.22L1.43234 400.039M1.43234 400.039L1.43234 397.421M1.43234 397.421L1.43234 392.426M1.43234 392.426L1.43234 387.225M1.43234 387.225L1.43234 385.729M1.43234 385.729L1.43234 381.803M1.43234 381.803L1.43234 376.146M1.43234 376.146L1.43234 370.24M1.43234 370.24L1.43234 369.631M1.43234 369.631L1.43234 364.066M1.43234 350.842L1.43235 343.749M1.43234 350.842L1.43234 351.386M1.43235 343.749L1.43235 336.303M1.43235 336.303L1.43235 330.535M1.43235 330.535L1.43235 328.477M1.43235 328.477L1.43235 320.242M1.43235 320.242L1.43235 311.565M1.43235 311.565L1.43235 306.475M1.43235 306.475L1.43235 302.409M1.43235 302.409L1.43235 292.733M1.43235 247.832L1.43235 245.233M1.43235 245.233L1.43235 234.75M1.43235 234.75L1.43236 220.774M1.43236 220.774L1.43236 205.807M1.43236 205.807L1.43236 205.427M1.43236 205.427L1.43236 189.74M1.43236 189.74L1.43236 172.449M1.43236 172.449L1.43236 156.773M1.43236 156.773L1.43236 153.787M1.43236 153.787L1.43236 133.585M1.43236 133.585L1.43237 111.643M1.43237 111.643L1.43237 95.9569M1.43237 95.9569L1.43237 87.7278M1.43237 87.7278L1.43237 61.5596M1.43237 61.5596L1.43237 32.8039M1.43237 32.8039L1.43237 17.7645M1.43237 17.7645L1.43238 1.05813M1.43238 1.05813L1.43238 0.944773L1811.46 0.944931L1811.46 1.05829M1811.46 350.842L1811.46 343.749M1811.46 350.842L1811.46 351.386M1811.46 351.386L1811.46 357.607M1811.46 357.607L1811.46 364.066M1811.46 364.066L1811.46 369.631M1811.46 369.631L1811.46 370.24M1811.46 370.24L1811.46 376.146M1811.46 376.146L1811.46 381.803M1811.46 381.803L1811.46 385.729M1811.46 385.729L1811.46 387.225M1811.46 387.225L1811.46 392.426M1811.46 392.426L1811.46 397.421M1811.46 397.421L1811.46 400.039M1811.46 400.039L1811.46 402.22M1811.46 402.22L1811.46 406.836M1811.46 406.836L1811.46 411.279M1811.46 411.279L1811.46 412.843M1811.46 412.843L1811.46 415.557M1811.46 415.557L1811.46 419.68M1811.46 419.68L1811.46 423.657M1811.46 423.657L1811.46 424.366M1811.46 424.366L1811.46 427.495M1811.46 427.495L1811.46 431.202M1811.46 431.202L1811.46 434.782M1811.46 434.782L1811.49 434.782L1811.46 434.791M1811.46 434.782L1811.46 434.791M1811.46 434.791L1811.46 438.244M1811.46 438.244L1811.46 441.593M1811.46 1.05829L1811.46 17.7646M1811.46 17.7646L1811.46 32.8041M1811.46 32.8041L1811.46 61.5592M1811.46 61.5592L1811.46 87.7279M1811.46 87.7279L1811.46 95.9571M1811.46 95.9571L1811.46 111.643M1811.46 111.643L1811.46 133.585M1811.46 133.585L1811.46 153.787M1811.46 153.787L1811.46 156.774M1811.46 156.774L1811.46 172.449M1811.46 172.449L1811.46 189.74M1811.46 189.74L1811.46 205.427M1811.46 205.427L1811.46 205.807M1811.46 205.807L1811.46 220.774M1811.46 220.774L1811.46 234.75M1811.46 234.75L1811.46 245.234M1811.46 245.234L1811.46 247.832M1811.46 247.832L1811.46 260.102M1811.46 260.102L1811.46 271.634M1811.46 271.634L1811.46 278.406M1811.46 278.406L1811.46 282.491M1811.46 282.491L1811.46 292.733M1811.46 292.733L1811.46 302.409M1811.46 302.409L1811.46 306.476M1811.46 306.476L1811.46 311.566M1811.46 311.566L1811.46 320.243M1811.46 320.243L1811.46 328.478M1811.46 328.478L1811.46 330.535M1811.46 330.535L1811.46 336.303M1811.46 336.303L1811.46 343.749" stroke="url(#paint0_radial_1_62)" stroke-opacity="0.25" stroke-width="1.8895" stroke-miterlimit="10" stroke-linecap="round" stroke-linejoin="round"/>
<defs>
<radialGradient id="paint0_radial_1_62" cx="0" cy="0" r="1" gradientUnits="userSpaceOnUse" gradientTransform="translate(906.445 17.3052) rotate(90) scale(694.851 2834.88)">
<stop stop-color="#5813C1"/>
<stop offset="0.489074" stop-color="#CED2DF" stop-opacity="0"/>
</radialGradient>
</defs>
</svg>
