<svg width="1813" height="446" viewBox="0 0 1813 446" fill="none" xmlns="http://www.w3.org/2000/svg">
<path d="M1781.93 4.18646L1767.86 0.944763M1781.93 4.18646H1740.24M1781.93 4.18646L1796.47 7.53522M1781.93 4.18646H1811.46M1767.86 0.944763L1772.98 0.946027L1778.05 0.953046L1783.01 0.972781L1787.82 1.01165L1792.41 1.07472L1796.75 1.16967L1800.78 1.30155L1804.52 1.46974L1807.73 1.70231L1810.65 1.97181L1811.46 2.06621V4.18646M1767.86 0.944763H1726.84M1726.84 0.944763H1685.83M1726.84 0.944763L1740.24 4.18646M1685.83 0.944763H1644.8M1685.83 0.944763L1698.55 4.18646M1644.8 0.944763H1603.78M1644.8 0.944763L1656.86 4.18646M1603.78 0.944763H1562.76M1603.78 0.944763L1615.17 4.18646M1562.76 0.944763H1521.74M1562.76 0.944763L1573.48 4.18646M1521.74 0.944763H1480.72M1521.74 0.944763L1531.79 4.18646M1480.72 0.944763H1439.7M1480.72 0.944763L1490.1 4.18646M1439.7 0.944763H1398.68M1439.7 0.944763L1448.41 4.18646M1398.68 0.944763H1357.66M1398.68 0.944763L1406.72 4.18646M1357.66 0.944763H1316.64M1357.66 0.944763L1365.03 4.18646M1316.64 0.944763H1275.63M1316.64 0.944763L1323.34 4.18646M1275.63 0.944763H1234.6M1275.63 0.944763L1277.11 1.74563L1279.37 2.95809L1281.65 4.18646M1234.6 0.944763H1193.58M1234.6 0.944763L1235.93 1.74563L1239.96 4.18646M1193.58 0.944763H1152.57M1193.58 0.944763L1198.27 4.18646M1152.57 0.944763H1111.54M1152.57 0.944763L1154.06 2.14829L1155.57 3.36585L1156.07 3.77552L1156.58 4.18646M1111.54 0.944763H1070.52M1111.54 0.944763L1112.79 2.14829L1113.21 2.55223L1113.63 2.95809L1114.89 4.18646M1070.52 0.944763H1029.51M1070.52 0.944763L1073.2 4.18646M1029.51 0.944763L1029.75 1.34423L1030 1.74563L1031.26 3.77552L1031.51 4.18646M1029.51 0.944763H988.485M988.485 0.944763H947.465M988.485 0.944763L989.825 4.18646M947.465 0.944763H906.445M947.465 0.944763L947.714 2.14829L948.135 4.18646M906.445 0.944763H865.425M906.445 0.944763V4.18646M865.425 0.944763H824.405M865.425 0.944763L865.176 2.14829L864.755 4.18646M824.405 0.944763H783.385M824.405 0.944763L823.065 4.18646M783.385 0.944763L783.137 1.34423L782.889 1.74563L781.631 3.77552L781.375 4.18646M783.385 0.944763H742.365M742.365 0.944763H701.345M742.365 0.944763L740.025 3.77552L739.685 4.18646M701.345 0.944763H660.325M701.345 0.944763L700.102 2.14829L699.684 2.55223L698.843 3.36585L698.42 3.77552L697.995 4.18646M660.325 0.944763H619.305M660.325 0.944763L658.834 2.14829L657.322 3.36585L656.815 3.77552L656.305 4.18646M619.305 0.944763H578.286M619.305 0.944763L614.616 4.18646M578.286 0.944763H537.265M578.286 0.944763L576.962 1.74563L572.926 4.18646M537.265 0.944763H496.245M537.265 0.944763L531.236 4.18646M496.245 0.944763H455.226M496.245 0.944763L489.546 4.18646M455.226 0.944763H414.205M455.226 0.944763L447.856 4.18646M414.205 0.944763H373.185M414.205 0.944763L406.166 4.18646M373.185 0.944763H332.165M373.185 0.944763L364.476 4.18646M332.165 0.944763H291.146M332.165 0.944763L322.786 4.18646M291.146 0.944763H250.125M291.146 0.944763L281.096 4.18646M250.125 0.944763H209.105M250.125 0.944763L239.406 4.18646M209.105 0.944763H168.086M209.105 0.944763L197.716 4.18646M168.086 0.944763H127.065M168.086 0.944763L156.026 4.18646M127.065 0.944763H86.0454M127.065 0.944763L114.337 4.18646M86.0454 0.944763H45.0257M86.0454 0.944763L72.6475 4.18646M45.0257 0.944763L39.9067 0.946027L34.8406 0.953046L29.88 0.972781L25.0749 1.01165L20.4782 1.07472L16.1389 1.16967L12.1087 1.30155L8.368 1.46974L5.15803 1.70231L2.2356 1.97181L1.4324 2.06623V4.18646M45.0257 0.944763L30.9575 4.18646M114.337 4.18646H156.026M114.337 4.18646H72.6475M114.337 4.18646L101.186 7.53522M156.026 4.18646L143.567 7.53522M156.026 4.18646H197.716M281.096 4.18646H322.786M281.096 4.18646H239.406M281.096 4.18646L278.533 5.01346L270.714 7.53522M322.786 4.18646L313.096 7.53522M322.786 4.18646H364.476M447.856 4.18646H489.546M447.856 4.18646H406.166M447.856 4.18646L445.976 5.01346L445.03 5.42887L440.242 7.53522M489.546 4.18646L488.693 4.59869L487.837 5.01346L482.625 7.53522M489.546 4.18646H531.236M614.616 4.18646L614.019 4.59869L609.771 7.53522M614.616 4.18646H656.305M614.616 4.18646H572.926M656.305 4.18646L655.28 5.01346L654.764 5.42887L654.246 5.84683L652.153 7.53522M656.305 4.18646H697.995M781.375 4.18646H823.065M781.375 4.18646H739.685M781.375 4.18646L779.299 7.53522M823.065 4.18646L822.894 4.59869L822.724 5.01346L822.551 5.42887L822.031 6.68721L821.681 7.53522M823.065 4.18646H864.755M948.135 4.18646H989.825M948.135 4.18646H906.445M948.135 4.18646L948.827 7.53522M989.825 4.18646L989.996 4.59869L990.166 5.01346L990.339 5.42887L991.209 7.53522M989.825 4.18646H1031.51M1114.89 4.18646H1156.58M1114.89 4.18646H1073.2M1114.89 4.18646L1115.75 5.01346L1117.48 6.68721L1117.92 7.11026L1118.36 7.53522M1156.58 4.18646L1157.61 5.01346L1158.13 5.42887L1158.64 5.84683L1160.74 7.53522M1156.58 4.18646H1198.27M1281.65 4.18646H1323.34M1281.65 4.18646H1239.96M1281.65 4.18646L1283.19 5.01346L1283.97 5.42887L1287.88 7.53522M1323.34 4.18646L1324.2 4.59869L1325.05 5.01346L1330.27 7.53522M1323.34 4.18646H1365.03M1448.41 4.18646H1490.1M1448.41 4.18646H1406.72M1448.41 4.18646L1450.64 5.01346L1451.75 5.42887L1457.41 7.53522M1490.1 4.18646L1499.79 7.53522M1490.1 4.18646H1531.79M1615.17 4.18646H1656.86M1615.17 4.18646H1573.48M1615.17 4.18646L1626.94 7.53522M1656.86 4.18646L1669.32 7.53522M1656.86 4.18646H1698.55M1.28628 34.5011H1.4324M43.2477 34.5011L59.1647 30.2228M43.2477 34.5011L26.7209 38.9431M43.2477 34.5011H91.2031M43.2477 34.5011H1.4324M59.1647 30.2228H12.0936M59.1647 30.2228L74.5056 26.0992M59.1647 30.2228H106.236M12.0936 30.2228L28.2868 26.0992M12.0936 30.2228H1.4324M12.0936 30.2228L1.4324 32.937M58.9742 18.2842H103.578M58.9742 18.2842L73.528 14.578M58.9742 18.2842H14.3713M58.9742 18.2842L43.9029 22.1223M103.578 18.2842L117.366 14.578M103.578 18.2842L89.3006 22.1223M103.578 18.2842H148.182M73.528 14.578H117.366M73.528 14.578L87.5905 10.9974M73.528 14.578H29.6905M117.366 14.578H161.204M117.366 14.578L130.688 10.9974M0.973295 102.03H1.4324M39.6682 102.03L60.1932 94.9372M39.6682 102.03L18.1233 109.476M39.6682 102.03H101.581M39.6682 102.03H1.4324M60.1932 94.9372L79.7688 88.1722M60.1932 94.9372H120.64M60.1932 94.9372H1.4324M20.7205 88.1722H79.7688M20.7205 88.1722L40.7458 81.713M20.7205 88.1722H1.4324M20.7205 88.1722L1.4324 94.3935M59.8849 75.5392H116.322M59.8849 75.5392L78.1963 69.633M59.8849 75.5392H3.44794M59.8849 75.5392L40.7458 81.713M116.322 75.5392L133.413 69.633M116.322 75.5392L98.4582 81.713M116.322 75.5392H172.76M78.1963 69.633H133.413M78.1963 69.633H22.9802M78.1963 69.633L95.7328 63.9766M133.413 69.633L149.78 63.9766M133.413 69.633H188.63M128.668 53.3531H180.519M128.668 53.3531L144.152 48.3586M128.668 53.3531H76.8162M128.668 53.3531L112.542 58.5546M180.519 53.3531L194.971 48.3586M180.519 53.3531L165.469 58.5546M180.519 53.3531H232.372M144.152 48.3586H194.971M144.152 48.3586H93.3327M144.152 48.3586L159.032 43.5591M194.971 48.3586L208.859 43.5591M194.971 48.3586H245.791M187.114 34.5011H235.069M187.114 34.5011L200.378 30.2228M187.114 34.5011H139.158M187.114 34.5011L173.341 38.9431M235.069 34.5011L247.449 30.2228M235.069 34.5011L222.215 38.9431M235.069 34.5011H283.024M200.378 30.2228H247.449M200.378 30.2228H153.307M200.378 30.2228L213.162 26.0992M247.449 30.2228L259.381 26.0992M247.449 30.2228H294.52M237.389 18.2842H281.993M237.389 18.2842L248.879 14.578M237.389 18.2842H192.786M237.389 18.2842L225.491 22.1223M281.993 18.2842L292.716 14.578M281.993 18.2842L270.888 22.1223M281.993 18.2842H326.597M248.879 14.578H292.716M248.879 14.578L259.981 10.9974M248.879 14.578H205.041M292.716 14.578H336.555M292.716 14.578L303.079 10.9974M33.1521 225.005L62.039 211.029M33.1521 225.005L2.21769 239.972M33.1521 225.005H120.481M33.1521 225.005H1.4324M62.039 211.029L89.0772 197.947M62.039 211.029H146.48M62.039 211.029H1.4324M61.4526 174.145H138.27M61.4526 174.145L86.1378 163.288M61.4526 174.145L35.2356 185.677M61.4526 174.145H1.4324M138.27 174.145L160.711 163.288M138.27 174.145L114.436 185.677M138.27 174.145H215.088M86.1378 163.288H160.711M86.1378 163.288H11.5648M86.1378 163.288L109.422 153.046M160.711 163.288L181.879 153.046M160.711 163.288H235.285M152.237 134.214H220.802M152.237 134.214L171.965 125.537M152.237 134.214H83.6726M152.237 134.214L131.421 143.37M220.802 134.214L238.736 125.537M220.802 134.214L201.877 143.37M220.802 134.214H289.366M171.965 125.537H238.736M171.965 125.537H105.194M171.965 125.537L190.687 117.302M238.736 125.537L255.756 117.302M238.736 125.537H305.506M225.406 102.03H287.319M225.406 102.03L241.533 94.9372M225.406 102.03H163.494M225.406 102.03L208.479 109.476M287.319 102.03L301.98 94.9372M287.319 102.03L271.929 109.476M287.319 102.03H349.232M241.533 94.9372H301.98M241.533 94.9372H181.087M241.533 94.9372L256.914 88.1722M301.98 94.9372L315.962 88.1722M301.98 94.9372H362.426M285.635 75.5392H342.072M285.635 75.5392L299.063 69.633M285.635 75.5392H229.197M285.635 75.5392L271.598 81.713M342.072 75.5392L354.28 69.633M342.072 75.5392L329.312 81.713M342.072 75.5392H398.509M299.063 69.633H354.28M299.063 69.633H243.847M299.063 69.633L311.922 63.9766M354.28 69.633L365.971 63.9766M354.28 69.633H409.496M336.075 53.3531H387.927M336.075 53.3531L347.43 48.3586M336.075 53.3531H284.223M336.075 53.3531L324.249 58.5546M387.927 53.3531L389.241 52.7179L398.249 48.3586M387.927 53.3531L377.177 58.5546M387.927 53.3531H439.779M347.43 48.3586H398.249M347.43 48.3586H296.611M347.43 48.3586L358.342 43.5591M398.249 48.3586L408.17 43.5591M398.249 48.3586H449.07M378.935 34.5011H426.891M378.935 34.5011L388.663 30.2228M378.935 34.5011H330.98M378.935 34.5011L368.835 38.9431M426.891 34.5011L435.734 30.2228M426.891 34.5011L423.489 36.1474L417.709 38.9431M426.891 34.5011H474.846M388.663 30.2228H435.734M388.663 30.2228H341.592M388.663 30.2228L398.037 26.0992M435.734 30.2228L444.256 26.0992M435.734 30.2228H482.805M415.804 18.2842H460.408M415.804 18.2842L424.23 14.578M415.804 18.2842H371.201M415.804 18.2842L407.079 22.1223M460.408 18.2842L466.178 15.493L467.125 15.0342L468.068 14.578M460.408 18.2842L452.476 22.1223M460.408 18.2842H505.012M424.23 14.578H468.068M424.23 14.578L432.371 10.9974M424.23 14.578H380.392M468.068 14.578H511.906M468.068 14.578L475.469 10.9974M64.7927 384.219H185.029M64.7927 384.219L102.652 358.051M64.7927 384.219L23.1904 412.974M64.7927 384.219L1.4324 384.219M185.029 384.219L217.481 358.051M185.029 384.219L149.37 412.974M185.029 384.219H305.265M102.652 358.051H217.481M102.652 358.051L137.253 334.135M102.652 358.051H1.4324M217.481 358.051L247.138 334.135M217.481 358.051H332.308M198.226 291.992H299.4M198.226 291.992L225.225 273.33M198.226 291.992H97.0517M198.226 291.992L168.997 312.194M299.4 291.992L322.542 273.33M299.4 291.992L274.347 312.194M299.4 291.992H400.574M225.225 273.33H322.542M225.225 273.33H127.908M225.225 273.33L250.242 256.039M322.542 273.33L343.985 256.039M322.542 273.33H419.859M295.14 225.005H382.469M295.14 225.005L315.361 211.029M295.14 225.005H207.81M295.14 225.005L273.486 239.972M382.469 225.005L399.802 211.029M382.469 225.005L363.909 239.972M382.469 225.005H469.798M315.361 211.029H399.802M315.361 211.029H230.92M315.361 211.029L334.288 197.947M399.802 211.029L416.024 197.947M399.802 211.029H484.242M368.722 174.145H445.54M368.722 174.145L384.432 163.288M368.722 174.145H291.906M368.722 174.145L352.039 185.677M445.54 174.145L459.005 163.288M445.54 174.145L431.24 185.677M445.54 174.145H522.358M384.432 163.288H459.005M384.432 163.288H309.858M384.432 163.288L399.249 153.046M459.005 163.288L471.705 153.046M459.005 163.288H533.578M426.494 134.214H495.059M426.494 134.214L439.048 125.537M426.494 134.214H357.93M426.494 134.214L413.247 143.37M495.059 134.214L505.82 125.537M495.059 134.214L483.704 143.37M495.059 134.214H563.623M439.048 125.537H505.82M439.048 125.537H372.277M439.048 125.537L450.962 117.302M505.82 125.537L516.031 117.302M505.82 125.537H572.591M473.057 102.03H534.969M473.057 102.03L483.32 94.9372M473.057 102.03H411.144M473.057 102.03L462.285 109.476M534.969 102.03L543.766 94.9372M534.969 102.03L525.735 109.476M534.969 102.03H596.882M483.32 94.9372H543.766M483.32 94.9372H422.872M483.32 94.9372L493.107 88.1722M543.766 94.9372L552.155 88.1722M543.766 94.9372H604.212M511.383 75.5392H567.821M511.383 75.5392L519.929 69.633M511.383 75.5392H454.946M511.383 75.5392L502.452 81.713M567.821 75.5392L575.145 69.633M567.821 75.5392L560.166 81.713M567.821 75.5392H624.258M519.929 69.633H575.145M519.929 69.633H464.712M519.929 69.633L528.113 63.9766M575.145 69.633L582.16 63.9766M575.145 69.633H630.362M543.482 53.3531H595.335M543.482 53.3531L550.708 48.3586M543.482 53.3531H491.631M543.482 53.3531L535.956 58.5546M595.335 53.3531L594.542 53.9915L588.884 58.5546M595.335 53.3531L601.527 48.3586M595.335 53.3531H647.186M550.708 48.3586H601.527M550.708 48.3586H499.889M550.708 48.3586L557.652 43.5591M601.527 48.3586L607.48 43.5591M601.527 48.3586H652.348M570.757 34.5011H618.712M570.757 34.5011L576.947 30.2228M570.757 34.5011H522.802M570.757 34.5011L564.33 38.9431M618.712 34.5011L624.018 30.2228M618.712 34.5011L616.671 36.1474L615.294 37.2579L613.204 38.9431M618.712 34.5011H666.668M576.947 30.2228H624.018M576.947 30.2228H529.876M576.947 30.2228L582.912 26.0992M624.018 30.2228L625.958 28.6586L627.236 27.6277L629.132 26.0992M624.018 30.2228H671.089M594.219 18.2842H638.822M594.219 18.2842L598.258 15.493L599.581 14.578M594.219 18.2842H549.616M594.219 18.2842L589.371 21.6349L588.667 22.1223M638.822 18.2842L642.285 15.493L642.853 15.0342L643.419 14.578M638.822 18.2842L636.464 20.186L634.064 22.1223M638.822 18.2842H683.426M599.581 14.578H643.419M599.581 14.578L604.762 10.9974M599.581 14.578H555.743M643.419 14.578H687.257M643.419 14.578L647.859 10.9974M545.737 384.219H665.973M545.737 384.219L561.962 358.051M545.737 384.219H425.501M545.737 384.219L527.908 412.974M665.973 384.219L676.791 358.051M665.973 384.219L654.087 412.974M665.973 384.219H786.209M561.962 358.051H676.791M561.962 358.051H447.135M561.962 358.051L576.791 334.135M676.791 358.051L686.676 334.135M676.791 358.051H791.618M602.923 291.992H704.096M602.923 291.992L614.494 273.33M602.923 291.992H501.748M602.923 291.992L590.396 312.194M704.096 291.992L711.811 273.33M704.096 291.992L695.746 312.194M704.096 291.992H805.271M614.494 273.33H711.811M614.494 273.33H517.177M614.494 273.33L625.215 256.039M711.811 273.33L718.958 256.039M711.811 273.33H809.128M644.457 225.005H731.786M644.457 225.005L653.124 211.029M644.457 225.005H557.128M644.457 225.005L635.177 239.972M731.786 225.005L737.564 211.029M731.786 225.005L725.6 239.972M731.786 225.005H819.116M653.124 211.029H737.564M653.124 211.029H568.683M653.124 211.029L661.235 197.947M737.564 211.029L742.971 197.947M737.564 211.029H822.005M675.993 174.145H752.81M675.993 174.145L682.725 163.288M675.993 174.145H599.175M675.993 174.145L668.842 185.677M752.81 174.145L757.298 163.288M752.81 174.145L748.043 185.677M752.81 174.145H829.627M682.725 163.288H757.298M682.725 163.288H608.152M682.725 163.288L689.075 153.046M757.298 163.288L761.532 153.046M757.298 163.288H831.872M700.752 134.214H769.317M700.752 134.214L706.132 125.537M700.752 134.214H632.188M700.752 134.214L695.075 143.37M769.317 134.214L772.903 125.537M769.317 134.214L765.532 143.37M769.317 134.214H837.881M706.132 125.537H772.903M706.132 125.537H639.362M706.132 125.537L711.239 117.302M772.903 125.537L776.307 117.302M772.903 125.537H839.674M720.707 102.03H782.62M720.707 102.03L725.105 94.9372M720.707 102.03H658.795M720.707 102.03L716.091 109.476M782.62 102.03L785.552 94.9372M782.62 102.03L779.542 109.476M782.62 102.03H844.533M725.105 94.9372H785.552M725.105 94.9372H664.659M725.105 94.9372L726.702 92.3632L729.3 88.1722M785.552 94.9372L788.348 88.1722M785.552 94.9372H845.999M737.133 75.5392H793.57M737.133 75.5392L740.796 69.633M737.133 75.5392H680.695M737.133 75.5392L734.279 80.1437L733.305 81.713M793.57 75.5392L794.499 73.2939L796.012 69.633M793.57 75.5392L791.018 81.713M793.57 75.5392H850.008M740.796 69.633L741.242 68.9124L744.303 63.9766M740.796 69.633H796.012M740.796 69.633H685.579M796.012 69.633L796.901 67.4833L797.193 66.7742L797.485 66.0696L798.35 63.9766M796.012 69.633H851.229M750.889 53.3531H802.741M750.889 53.3531L752.453 50.8307L752.84 50.2082L753.224 49.5883L753.606 48.9722L753.986 48.3586M750.889 53.3531H699.038M750.889 53.3531L747.664 58.5546M802.741 53.3531L804.297 49.5883L804.553 48.9722L804.806 48.3586M802.741 53.3531L800.592 58.5546M802.741 53.3531H854.593M753.986 48.3586H804.806M753.986 48.3586H703.167M753.986 48.3586L755.86 45.3367L756.229 44.741L756.962 43.5591M804.806 48.3586L806.055 45.3367L806.302 44.741L806.546 44.1485L806.79 43.5591M804.806 48.3586H855.626M762.579 34.5011H810.534M762.579 34.5011L765.232 30.2228M762.579 34.5011H714.623M762.579 34.5011L761.899 35.5957L760.869 37.2579L759.825 38.9431M810.534 34.5011L810.308 35.0471L808.931 38.3786L808.698 38.9431M810.534 34.5011L812.303 30.2228M810.534 34.5011H858.49M765.232 30.2228H812.303M765.232 30.2228H718.161M765.232 30.2228L767.789 26.0992M812.303 30.2228L812.95 28.6586L813.163 28.1419L813.376 27.6277L814.007 26.0992M812.303 30.2228H859.374M772.634 18.2842H817.237M772.634 18.2842L774.365 15.493L774.932 14.578M772.634 18.2842H728.03M772.634 18.2842L771.751 19.7076L771.455 20.186L771.156 20.6671L770.254 22.1223M817.237 18.2842L817.432 17.814L817.818 16.8793L818.202 15.953L818.769 14.578M817.237 18.2842L816.451 20.186L816.253 20.6671L815.852 21.6349L815.652 22.1223M817.237 18.2842H861.841M774.932 14.578H818.769M774.932 14.578L776.878 11.4383L777.153 10.9974M774.932 14.578H731.094M818.769 14.578L818.958 14.1238L819.144 13.6714L819.331 13.221L819.516 12.7724L820.067 11.4383L820.25 10.9974M818.769 14.578H862.608M1026.68 384.219H1146.92M1026.68 384.219L1021.27 358.051M1026.68 384.219H906.445M1026.68 384.219L1032.62 412.974M1146.92 384.219L1136.1 358.051M1146.92 384.219L1158.8 412.974M1146.92 384.219H1267.15M1021.27 358.051H1136.1M1021.27 358.051H906.445M1021.27 358.051L1016.33 334.135M1136.1 358.051L1126.21 334.135M1136.1 358.051H1250.93M1007.62 291.992H1108.79M1007.62 291.992L1003.76 273.33M1007.62 291.992H906.445M1007.62 291.992L1011.8 312.194M1108.79 291.992L1101.08 273.33M1108.79 291.992L1117.14 312.194M1108.79 291.992H1209.97M1003.76 273.33H1101.08M1003.76 273.33H906.445M1003.76 273.33L1000.19 256.039M1101.08 273.33L1093.93 256.039M1101.08 273.33H1198.4M993.774 225.005H1081.1M993.774 225.005L990.886 211.029M993.774 225.005H906.445M993.774 225.005L996.868 239.972M1081.1 225.005L1075.33 211.029M1081.1 225.005L1087.29 239.972M1081.1 225.005H1168.43M990.886 211.029H1075.33M990.886 211.029H906.445M990.886 211.029L988.182 197.947M1075.33 211.029L1069.92 197.947M1075.33 211.029H1159.77M983.263 174.145H1060.08M983.263 174.145L981.018 163.288M983.263 174.145H906.445M983.263 174.145L985.646 185.677M1060.08 174.145L1055.59 163.288M1060.08 174.145L1064.85 185.677M1060.08 174.145H1136.9M981.018 163.288H1055.59M981.018 163.288H906.445M981.018 163.288L978.902 153.046M1055.59 163.288L1051.36 153.046M1055.59 163.288H1130.17M975.009 134.214H1043.57M975.009 134.214L973.216 125.537M975.009 134.214H906.445M975.009 134.214L976.902 143.37M1043.57 134.214L1039.99 125.537M1043.57 134.214L1047.36 143.37M1043.57 134.214H1112.14M973.216 125.537H1039.99M973.216 125.537H906.445M973.216 125.537L971.513 117.302M1039.99 125.537L1036.58 117.302M1039.99 125.537H1106.76M968.357 102.03H1030.27M968.357 102.03L966.891 94.9372M968.357 102.03H906.445M968.357 102.03L969.897 109.476M1030.27 102.03L1027.34 94.9372M1030.27 102.03L1033.35 109.476M1030.27 102.03H1092.18M966.891 94.9372H1027.34M966.891 94.9372H906.445M966.891 94.9372L965.493 88.1722M1027.34 94.9372L1024.54 88.1722M1027.34 94.9372H1087.79M962.882 75.5392H1019.32M962.882 75.5392L961.661 69.633M962.882 75.5392H906.445M962.882 75.5392L964.158 81.713M1019.32 75.5392L1017.18 70.3574L1016.88 69.633M1019.32 75.5392L1021.87 81.713M1019.32 75.5392H1075.76M961.661 69.633L961.513 68.9124L960.492 63.9766M961.661 69.633H1016.88M961.661 69.633H906.445M1016.88 69.633L1015.99 67.4833L1015.7 66.7742L1015.4 66.0696L1014.54 63.9766M1016.88 69.633H1072.09M958.297 53.3531H1010.15M958.297 53.3531L957.264 48.3586M958.297 53.3531H906.445M958.297 53.3531L958.695 55.2785L958.829 55.9271L958.963 56.5789L959.235 57.8926L959.372 58.5546M1010.15 53.3531L1008.59 49.5883L1008.08 48.3586M1010.15 53.3531L1012.3 58.5546M1010.15 53.3531H1062M957.264 48.3586H1008.08M957.264 48.3586H906.445M957.264 48.3586L956.273 43.5591M1008.08 48.3586L1006.84 45.3367L1006.59 44.741L1006.34 44.1485L1006.1 43.5591M1008.08 48.3586H1058.9M954.4 34.5011H1002.36M954.4 34.5011L953.516 30.2228M954.4 34.5011H906.445M954.4 34.5011L955.319 38.9431M1002.36 34.5011L1002.58 35.0471L1003.96 38.3786L1004.19 38.9431M1002.36 34.5011L1000.59 30.2228M1002.36 34.5011H1050.31M953.516 30.2228H1000.59M953.516 30.2228H906.445M953.516 30.2228L952.664 26.0992M1000.59 30.2228L999.94 28.6586L999.727 28.1419L999.514 27.6277L998.883 26.0992M1000.59 30.2228H1047.66M951.049 18.2842H995.653M951.049 18.2842L950.283 14.578M951.049 18.2842H906.445M951.049 18.2842L951.842 22.1223M995.653 18.2842L995.458 17.814L995.071 16.8793L994.88 16.4149L994.498 15.493L994.309 15.0342L994.12 14.578M995.653 18.2842L996.439 20.186L996.637 20.6671L997.038 21.6349L997.239 22.1223M995.653 18.2842H1040.26M950.283 14.578L950.189 14.1238L950.095 13.6714L950.003 13.221L949.543 10.9974M950.283 14.578H994.12M950.283 14.578H906.445M994.12 14.578H1037.96M994.12 14.578L993.746 13.6714L993.559 13.221L993.374 12.7724L992.823 11.4383L992.64 10.9974M1507.63 384.219H1627.86M1507.63 384.219L1480.58 358.051M1507.63 384.219H1387.39M1507.63 384.219L1537.34 412.974M1627.86 384.219L1595.41 358.051M1627.86 384.219L1663.52 412.974M1627.86 384.219H1748.1M1480.58 358.051H1595.41M1480.58 358.051H1365.75M1480.58 358.051L1455.87 334.135M1595.41 358.051L1565.75 334.135M1595.41 358.051H1710.24M1412.32 291.992H1513.49M1412.32 291.992L1393.03 273.33M1412.32 291.992H1311.14M1412.32 291.992L1433.19 312.194M1513.49 291.992L1490.35 273.33M1513.49 291.992L1538.54 312.194M1513.49 291.992H1614.66M1393.03 273.33H1490.35M1393.03 273.33H1295.71M1393.03 273.33L1375.16 256.039M1490.35 273.33L1468.9 256.039M1490.35 273.33H1587.66M1343.09 225.005H1430.42M1343.09 225.005L1328.65 211.029M1343.09 225.005H1255.76M1343.09 225.005L1358.56 239.972M1430.42 225.005L1413.09 211.029M1430.42 225.005L1448.98 239.972M1430.42 225.005H1517.75M1328.65 211.029H1413.09M1328.65 211.029H1244.21M1328.65 211.029L1315.13 197.947M1413.09 211.029L1396.87 197.947M1413.09 211.029H1497.53M1290.53 174.145H1367.35M1290.53 174.145L1279.31 163.288M1290.53 174.145H1213.71M1290.53 174.145L1302.45 185.677M1367.35 174.145L1353.89 163.288M1367.35 174.145L1381.65 185.677M1367.35 174.145H1444.17M1279.31 163.288H1353.89M1279.31 163.288H1204.74M1279.31 163.288L1268.73 153.046M1353.89 163.288L1341.18 153.046M1353.89 163.288H1428.46M1249.27 134.214H1317.83M1249.27 134.214L1240.3 125.537M1249.27 134.214H1180.7M1249.27 134.214L1258.73 143.37M1317.83 134.214L1307.07 125.537M1317.83 134.214L1329.19 143.37M1317.83 134.214H1386.4M1240.3 125.537H1307.07M1240.3 125.537H1173.53M1240.3 125.537L1231.79 117.302M1307.07 125.537L1296.86 117.302M1307.07 125.537H1373.84M1216.01 102.03H1277.92M1216.01 102.03L1208.68 94.9372M1216.01 102.03H1154.1M1216.01 102.03L1223.7 109.476M1277.92 102.03L1269.12 94.9372M1277.92 102.03L1287.15 109.476M1277.92 102.03H1339.83M1208.68 94.9372H1269.12M1208.68 94.9372H1148.23M1208.68 94.9372L1201.69 88.1722M1269.12 94.9372L1260.73 88.1722M1269.12 94.9372H1329.57M1188.63 75.5392L1189.41 76.2961L1190.2 77.0568L1195.01 81.713M1188.63 75.5392H1245.07M1188.63 75.5392L1182.53 69.633M1188.63 75.5392H1132.19M1245.07 75.5392L1237.74 69.633M1245.07 75.5392L1252.72 81.713M1245.07 75.5392H1301.51M1182.53 69.633H1237.74M1182.53 69.633H1127.31M1182.53 69.633L1176.68 63.9766M1237.74 69.633L1230.73 63.9766M1237.74 69.633H1292.96M1165.7 53.3531H1217.56M1165.7 53.3531L1160.54 48.3586M1165.7 53.3531H1113.85M1165.7 53.3531L1171.08 58.5546M1217.56 53.3531L1213.66 50.2082L1211.36 48.3586M1217.56 53.3531L1224.01 58.5546M1217.56 53.3531H1269.41M1160.54 48.3586H1211.36M1160.54 48.3586H1109.72M1160.54 48.3586L1156.19 44.1485L1155.58 43.5591M1211.36 48.3586L1205.41 43.5591M1211.36 48.3586H1262.18M1146.22 34.5011H1194.18M1146.22 34.5011L1145.1 33.416L1141.8 30.2228M1146.22 34.5011H1098.27M1146.22 34.5011L1147.35 35.5957L1149.65 37.8167L1150.81 38.9431M1194.18 34.5011L1188.87 30.2228M1194.18 34.5011L1196.22 36.1474L1197.6 37.2579L1199.69 38.9431M1194.18 34.5011H1242.13M1141.8 30.2228H1188.87M1141.8 30.2228H1094.73M1141.8 30.2228L1138.59 27.1155L1137.54 26.0992M1188.87 30.2228L1186.93 28.6586L1185.65 27.6277L1183.76 26.0992M1188.87 30.2228H1235.94M1129.46 18.2842H1174.07M1129.46 18.2842L1127.05 15.953L1125.63 14.578M1129.46 18.2842H1084.86M1129.46 18.2842L1133.43 22.1223M1174.07 18.2842L1170.6 15.493L1170.04 15.0342L1169.47 14.578M1174.07 18.2842L1176.43 20.186L1178.83 22.1223M1174.07 18.2842H1218.67M1125.63 14.578H1169.47M1125.63 14.578L1123.77 12.7724L1122.85 11.8811L1122.39 11.4383L1121.93 10.9974M1125.63 14.578H1081.8M1169.47 14.578H1213.31M1169.47 14.578L1165.03 10.9974M1782.3 273.33H1684.98M1782.3 273.33L1750.14 256.039M1782.3 273.33H1811.46M1782.3 273.33L1811.46 289.005M1692.41 225.005H1779.74M1692.41 225.005L1666.41 211.029M1692.41 225.005H1605.08M1692.41 225.005L1720.25 239.972M1779.74 225.005L1750.85 211.029M1779.74 225.005L1810.67 239.972M1779.74 225.005H1811.46M1666.41 211.029H1750.85M1666.41 211.029H1581.97M1666.41 211.029L1642.08 197.947M1750.85 211.029L1723.81 197.947M1750.85 211.029H1811.46M1597.8 174.145H1674.62M1597.8 174.145L1577.61 163.288M1597.8 174.145H1520.98M1597.8 174.145L1619.25 185.677M1674.62 174.145L1652.18 163.288M1674.62 174.145L1698.45 185.677M1674.62 174.145H1751.44M1577.61 163.288H1652.18M1577.61 163.288H1503.03M1577.61 163.288L1558.55 153.046M1652.18 163.288L1631.01 153.046M1652.18 163.288H1726.75M1523.52 134.214H1592.09M1523.52 134.214L1507.38 125.537M1523.52 134.214H1454.96M1523.52 134.214L1540.56 143.37M1592.09 134.214L1574.15 125.537M1592.09 134.214L1611.01 143.37M1592.09 134.214H1660.65M1507.38 125.537H1574.15M1507.38 125.537H1440.61M1507.38 125.537L1492.07 117.302M1574.15 125.537L1557.13 117.302M1574.15 125.537H1640.92M1463.66 102.03H1525.57M1463.66 102.03L1450.46 94.9372M1463.66 102.03H1401.75M1463.66 102.03L1477.51 109.476M1525.57 102.03L1510.91 94.9372M1525.57 102.03L1540.96 109.476M1525.57 102.03H1587.48M1450.46 94.9372H1510.91M1450.46 94.9372H1390.02M1450.46 94.9372L1437.88 88.1722M1510.91 94.9372L1496.93 88.1722M1510.91 94.9372H1571.36M1414.38 75.5392H1470.82M1414.38 75.5392L1403.39 69.633M1414.38 75.5392H1357.94M1414.38 75.5392L1425.86 81.713M1470.82 75.5392L1458.61 69.633M1470.82 75.5392L1483.58 81.713M1470.82 75.5392H1527.26M1403.39 69.633H1458.61M1403.39 69.633H1348.18M1403.39 69.633L1392.87 63.9766M1458.61 69.633L1446.92 63.9766M1458.61 69.633H1513.83M1373.11 53.3531H1424.96M1373.11 53.3531L1363.82 48.3586M1373.11 53.3531H1321.26M1373.11 53.3531L1382.79 58.5546M1424.96 53.3531L1414.64 48.3586M1424.96 53.3531L1435.71 58.5546M1424.96 53.3531H1476.82M1363.82 48.3586H1414.64M1363.82 48.3586H1313M1363.82 48.3586L1354.89 43.5591M1414.64 48.3586L1404.72 43.5591M1414.64 48.3586H1465.46M1338.04 34.5011H1386M1338.04 34.5011L1330.09 30.2228M1338.04 34.5011H1290.09M1338.04 34.5011L1340.08 35.5957L1341.11 36.1474L1346.31 38.9431M1386 34.5011L1377.16 30.2228M1386 34.5011L1395.18 38.9431M1386 34.5011H1433.95M1330.09 30.2228H1377.16M1330.09 30.2228H1283.01M1330.09 30.2228L1322.42 26.0992M1377.16 30.2228L1368.63 26.0992M1377.16 30.2228H1424.23M1307.88 18.2842H1352.48M1307.88 18.2842L1300.98 14.578M1307.88 18.2842H1263.27M1307.88 18.2842L1315.02 22.1223M1352.48 18.2842L1346.71 15.493L1345.77 15.0342L1344.82 14.578M1352.48 18.2842L1360.41 22.1223M1352.48 18.2842H1397.09M1300.98 14.578H1344.82M1300.98 14.578L1295.14 11.4383L1294.32 10.9974M1300.98 14.578H1257.15M1344.82 14.578H1388.66M1344.82 14.578L1337.42 10.9974M1797.78 134.214L1774.47 125.537M1797.78 134.214H1729.22M1797.78 134.214L1811.46 139.304M1797.78 134.214H1811.46M1774.47 125.537H1707.7M1774.47 125.537L1752.34 117.302M1774.47 125.537H1811.46M1711.31 102.03H1773.22M1711.31 102.03L1692.25 94.9372M1711.31 102.03H1649.4M1711.31 102.03L1731.32 109.476M1773.22 102.03L1752.7 94.9372M1773.22 102.03L1794.77 109.476M1773.22 102.03H1811.46M1692.25 94.9372H1752.7M1692.25 94.9372H1631.8M1692.25 94.9372L1674.07 88.1722M1752.7 94.9372L1733.12 88.1722M1752.7 94.9372H1811.46M1640.13 75.5392H1696.57M1640.13 75.5392L1624.26 69.633M1640.13 75.5392H1583.69M1640.13 75.5392L1656.72 81.713M1696.57 75.5392L1679.48 69.633M1696.57 75.5392L1714.43 81.713M1696.57 75.5392H1753.01M1624.26 69.633H1679.48M1624.26 69.633H1569.04M1624.26 69.633L1609.06 63.9766M1679.48 69.633L1663.11 63.9766M1679.48 69.633H1734.69M1580.52 53.3531H1632.37M1580.52 53.3531L1567.1 48.3586M1580.52 53.3531H1528.67M1580.52 53.3531L1594.49 58.5546M1632.37 53.3531L1617.92 48.3586M1632.37 53.3531L1647.42 58.5546M1632.37 53.3531H1684.22M1567.1 48.3586H1617.92M1567.1 48.3586H1516.28M1567.1 48.3586L1554.2 43.5591M1617.92 48.3586L1604.03 43.5591M1617.92 48.3586H1668.74M1529.87 34.5011H1577.82M1529.87 34.5011L1518.37 30.2228M1529.87 34.5011H1481.91M1529.87 34.5011L1541.8 38.9431M1577.82 34.5011L1565.44 30.2228M1577.82 34.5011L1590.68 38.9431M1577.82 34.5011H1625.78M1518.37 30.2228H1565.44M1518.37 30.2228H1471.3M1518.37 30.2228L1507.29 26.0992M1565.44 30.2228L1553.51 26.0992M1565.44 30.2228H1612.51M1486.29 18.2842H1530.9M1486.29 18.2842L1476.34 14.578M1486.29 18.2842H1441.69M1486.29 18.2842L1496.6 22.1223M1530.9 18.2842L1520.17 14.578M1530.9 18.2842L1542 22.1223M1530.9 18.2842H1575.5M1476.34 14.578H1520.17M1476.34 14.578L1466.71 10.9974M1476.34 14.578H1432.5M1520.17 14.578H1564.01M1520.17 14.578L1509.81 10.9974M1787.93 53.3531L1770.38 48.3586M1787.93 53.3531H1736.07M1787.93 53.3531L1806.2 58.5546M1787.93 53.3531H1811.46M1770.38 48.3586H1719.56M1770.38 48.3586L1753.51 43.5591M1770.38 48.3586H1811.46M1721.69 34.5011H1769.64M1721.69 34.5011L1706.65 30.2228M1721.69 34.5011H1673.73M1721.69 34.5011L1737.3 38.9431M1769.64 34.5011L1753.73 30.2228M1769.64 34.5011L1786.17 38.9431M1769.64 34.5011H1811.46M1706.65 30.2228H1753.73M1706.65 30.2228H1659.58M1706.65 30.2228L1692.17 26.0992M1753.73 30.2228L1738.38 26.0992M1753.73 30.2228H1800.8M1664.71 18.2842H1709.31M1664.71 18.2842L1651.69 14.578M1664.71 18.2842H1620.1M1664.71 18.2842L1678.19 22.1223M1709.31 18.2842L1695.52 14.578M1709.31 18.2842L1723.59 22.1223M1709.31 18.2842H1753.92M1651.69 14.578H1695.52M1651.69 14.578L1639.1 10.9974M1651.69 14.578H1607.85M1695.52 14.578H1739.36M1695.52 14.578L1682.2 10.9974M1723.59 22.1223L1738.38 26.0992M1723.59 22.1223H1768.99M1723.59 22.1223H1678.19M1753.92 18.2842L1739.36 14.578M1753.92 18.2842L1768.99 22.1223M1753.92 18.2842H1798.52M1739.36 14.578H1783.2M1739.36 14.578L1725.3 10.9974M1682.2 10.9974H1639.1M1682.2 10.9974H1725.3M1682.2 10.9974L1669.32 7.53522M1768.99 22.1223L1784.6 26.0992M1768.99 22.1223H1811.46M1798.52 18.2842L1783.2 14.578M1798.52 18.2842L1811.46 21.4141M1798.52 18.2842H1811.46M1783.2 14.578L1768.4 10.9974M1783.2 14.578H1811.46M1725.3 10.9974H1768.4M1725.3 10.9974L1711.7 7.53522M1768.4 10.9974L1754.09 7.53522M1768.4 10.9974H1811.46M1738.38 26.0992H1784.6M1738.38 26.0992H1692.17M1800.8 30.2228L1784.6 26.0992M1800.8 30.2228L1811.46 32.937M1800.8 30.2228H1811.46M1784.6 26.0992H1811.46M1692.17 26.0992H1645.95M1692.17 26.0992L1678.19 22.1223M1678.19 22.1223H1632.8M1786.17 38.9431L1803.34 43.5591M1786.17 38.9431H1737.3M1786.17 38.9431H1811.46M1811.6 34.5011H1811.46M1803.34 43.5591H1753.51M1803.34 43.5591L1811.46 45.7407M1803.34 43.5591H1811.46M1753.51 43.5591H1703.69M1753.51 43.5591L1737.3 38.9431M1737.3 38.9431H1688.42M1542 22.1223L1553.51 26.0992M1542 22.1223H1587.4M1542 22.1223H1496.6M1575.5 18.2842L1564.01 14.578M1575.5 18.2842L1587.4 22.1223M1575.5 18.2842H1620.1M1564.01 14.578H1607.85M1564.01 14.578L1552.91 10.9974M1509.81 10.9974H1552.91M1509.81 10.9974L1499.79 7.53522M1509.81 10.9974H1466.71M1587.4 22.1223L1599.73 26.0992M1587.4 22.1223H1632.8M1620.1 18.2842L1607.85 14.578M1620.1 18.2842L1632.8 22.1223M1607.85 14.578L1596.01 10.9974M1552.91 10.9974H1596.01M1552.91 10.9974L1542.18 7.53522M1632.8 22.1223L1645.95 26.0992M1639.1 10.9974H1596.01M1639.1 10.9974L1626.94 7.53522M1596.01 10.9974L1584.56 7.53522M1553.51 26.0992H1599.73M1553.51 26.0992H1507.29M1612.51 30.2228L1599.73 26.0992M1612.51 30.2228L1625.78 34.5011M1612.51 30.2228H1659.58M1599.73 26.0992H1645.95M1507.29 26.0992H1461.07M1507.29 26.0992L1496.6 22.1223M1645.95 26.0992L1659.58 30.2228M1496.6 22.1223H1451.21M1625.78 34.5011L1639.55 38.9431M1625.78 34.5011H1673.73M1659.58 30.2228L1673.73 34.5011M1673.73 34.5011L1688.42 38.9431M1590.68 38.9431L1604.03 43.5591M1590.68 38.9431H1639.55M1590.68 38.9431H1541.8M1639.55 38.9431L1653.86 43.5591M1639.55 38.9431H1688.42M1688.42 38.9431L1703.69 43.5591M1604.03 43.5591H1653.86M1604.03 43.5591H1554.2M1668.74 48.3586L1653.86 43.5591M1668.74 48.3586L1684.22 53.3531M1668.74 48.3586H1719.56M1653.86 43.5591H1703.69M1554.2 43.5591H1504.38M1554.2 43.5591L1541.8 38.9431M1703.69 43.5591L1719.56 48.3586M1541.8 38.9431H1492.93M1684.22 53.3531L1700.35 58.5546M1684.22 53.3531H1736.07M1719.56 48.3586L1736.07 53.3531M1736.07 53.3531L1753.27 58.5546M1647.42 58.5546L1663.11 63.9766M1647.42 58.5546H1700.35M1647.42 58.5546H1594.49M1700.35 58.5546L1717.16 63.9766M1700.35 58.5546H1753.27M1753.27 58.5546L1771.2 63.9766M1753.27 58.5546H1806.2M1806.2 58.5546H1811.46M1806.2 58.5546L1811.46 60.0501M1663.11 63.9766H1717.16M1663.11 63.9766H1609.06M1734.69 69.633L1717.16 63.9766M1734.69 69.633L1753.01 75.5392M1734.69 69.633H1789.91M1717.16 63.9766H1771.2M1609.06 63.9766H1555.01M1609.06 63.9766L1594.49 58.5546M1771.2 63.9766L1789.91 69.633M1771.2 63.9766H1811.46M1594.49 58.5546H1541.57M1753.01 75.5392L1772.14 81.713M1753.01 75.5392H1809.44M1789.91 69.633L1809.44 75.5392M1789.91 69.633H1811.46M1811.74 63.9766H1811.46M1809.44 75.5392L1811.46 76.1487M1809.44 75.5392H1811.46M1714.43 81.713L1733.12 88.1722M1714.43 81.713H1772.14M1714.43 81.713H1656.72M1772.14 81.713L1792.17 88.1722M1772.14 81.713H1811.46M1811.94 76.2961L1811.46 76.1487M1733.12 88.1722H1792.17M1733.12 88.1722H1674.07M1792.17 88.1722H1811.46M1792.17 88.1722L1811.46 94.3935M1674.07 88.1722H1615.02M1674.07 88.1722L1656.72 81.713M1656.72 81.713H1599M1794.77 109.476H1731.32M1794.77 109.476L1811.46 115.245M1794.77 109.476H1811.46M1811.92 102.03H1811.46M1731.32 109.476H1667.86M1731.32 109.476L1752.34 117.302M1811.64 115.308L1811.46 115.245M1360.41 22.1223L1368.63 26.0992M1360.41 22.1223H1405.81M1360.41 22.1223H1315.02M1397.09 18.2842L1388.66 14.578M1397.09 18.2842L1405.81 22.1223M1397.09 18.2842H1441.69M1388.66 14.578H1432.5M1388.66 14.578L1380.52 10.9974M1337.42 10.9974H1380.52M1337.42 10.9974L1334.71 9.68553L1330.27 7.53522M1337.42 10.9974H1294.32M1405.81 22.1223L1414.85 26.0992M1405.81 22.1223H1451.21M1441.69 18.2842L1432.5 14.578M1441.69 18.2842L1451.21 22.1223M1432.5 14.578L1423.62 10.9974M1380.52 10.9974H1423.62M1380.52 10.9974L1372.65 7.53522M1451.21 22.1223L1461.07 26.0992M1466.71 10.9974L1457.41 7.53522M1466.71 10.9974H1423.62M1423.62 10.9974L1422.53 10.5578L1420.36 9.68553L1415.03 7.53522M1368.63 26.0992H1414.85M1368.63 26.0992H1322.42M1424.23 30.2228L1414.85 26.0992M1424.23 30.2228L1433.95 34.5011M1424.23 30.2228H1471.3M1414.85 26.0992H1461.07M1322.42 26.0992H1276.2M1322.42 26.0992L1315.02 22.1223M1461.07 26.0992L1471.3 30.2228M1315.02 22.1223H1269.62M1433.95 34.5011L1444.05 38.9431M1433.95 34.5011H1481.91M1471.3 30.2228L1472.6 30.7484L1481.91 34.5011M1481.91 34.5011L1492.93 38.9431M1395.18 38.9431L1396.35 39.5108L1404.72 43.5591M1395.18 38.9431H1444.05M1395.18 38.9431H1346.31M1444.05 38.9431L1454.55 43.5591M1444.05 38.9431H1492.93M1492.93 38.9431L1504.38 43.5591M1404.72 43.5591H1454.55M1404.72 43.5591H1354.89M1465.46 48.3586L1454.55 43.5591M1465.46 48.3586L1476.82 53.3531M1465.46 48.3586H1516.28M1454.55 43.5591H1504.38M1354.89 43.5591H1305.07M1354.89 43.5591L1346.31 38.9431M1504.38 43.5591L1516.28 48.3586M1346.31 38.9431H1297.43M1476.82 53.3531L1488.64 58.5546M1476.82 53.3531H1528.67M1516.28 48.3586L1528.67 53.3531M1528.67 53.3531L1541.57 58.5546M1435.71 58.5546L1446.92 63.9766M1435.71 58.5546H1488.64M1435.71 58.5546H1382.79M1488.64 58.5546L1500.97 63.9766M1488.64 58.5546H1541.57M1541.57 58.5546L1555.01 63.9766M1446.92 63.9766H1500.97M1446.92 63.9766H1392.87M1513.83 69.633L1500.97 63.9766M1513.83 69.633L1527.26 75.5392M1513.83 69.633H1569.04M1500.97 63.9766H1555.01M1392.87 63.9766H1338.83M1392.87 63.9766L1382.79 58.5546M1555.01 63.9766L1569.04 69.633M1382.79 58.5546H1329.86M1527.26 75.5392L1541.29 81.713M1527.26 75.5392H1583.69M1569.04 69.633L1583.69 75.5392M1583.69 75.5392L1599 81.713M1483.58 81.713L1496.93 88.1722M1483.58 81.713H1541.29M1483.58 81.713H1425.86M1541.29 81.713L1555.98 88.1722M1541.29 81.713H1599M1599 81.713L1615.02 88.1722M1496.93 88.1722H1555.98M1496.93 88.1722H1437.88M1571.36 94.9372L1555.98 88.1722M1571.36 94.9372L1587.48 102.03M1571.36 94.9372H1631.8M1555.98 88.1722H1615.02M1437.88 88.1722H1378.83M1437.88 88.1722L1425.86 81.713M1615.02 88.1722L1631.8 94.9372M1425.86 81.713H1368.15M1587.48 102.03L1604.41 109.476M1587.48 102.03H1649.4M1631.8 94.9372L1649.4 102.03M1649.4 102.03L1667.86 109.476M1540.96 109.476L1557.13 117.302M1540.96 109.476H1604.41M1540.96 109.476H1477.51M1604.41 109.476L1622.2 117.302M1604.41 109.476H1667.86M1667.86 109.476L1687.27 117.302M1557.13 117.302H1622.2M1557.13 117.302H1492.07M1640.92 125.537L1622.2 117.302M1640.92 125.537L1660.65 134.214M1640.92 125.537H1707.7M1622.2 117.302H1687.27M1492.07 117.302H1427M1492.07 117.302L1477.51 109.476M1687.27 117.302L1707.7 125.537M1687.27 117.302H1752.34M1477.51 109.476H1414.06M1660.65 134.214L1681.47 143.37M1660.65 134.214H1729.22M1707.7 125.537L1729.22 134.214M1752.34 117.302H1811.46M1729.22 134.214L1751.93 143.37M1611.01 143.37L1631.01 153.046M1611.01 143.37H1681.47M1611.01 143.37H1540.56M1681.47 143.37L1703.47 153.046M1681.47 143.37H1751.93M1751.93 143.37L1775.92 153.046M1751.93 143.37H1811.46M1631.01 153.046H1703.47M1631.01 153.046H1558.55M1726.75 163.288L1703.47 153.046M1726.75 163.288L1751.44 174.145M1726.75 163.288H1801.33M1703.47 153.046H1775.92M1558.55 153.046H1486.1M1558.55 153.046L1540.56 143.37M1775.92 153.046L1801.33 163.288M1775.92 153.046H1811.46M1540.56 143.37H1470.1M1751.44 174.145L1777.65 185.677M1751.44 174.145H1811.46M1801.33 163.288H1811.46M1801.33 163.288L1811.46 167.373M1698.45 185.677L1723.81 197.947M1698.45 185.677H1777.65M1698.45 185.677H1619.25M1777.65 185.677L1805.55 197.947M1777.65 185.677H1811.46M1723.81 197.947H1805.55M1723.81 197.947H1642.08M1805.55 197.947L1811.46 200.545M1805.55 197.947H1811.46M1642.08 197.947H1560.34M1642.08 197.947L1619.25 185.677M1619.25 185.677H1540.05M1810.67 239.972H1720.25M1810.67 239.972H1811.46M1810.67 239.972L1811.46 240.352M1720.25 239.972H1629.83M1720.25 239.972L1750.14 256.039M1178.83 22.1223L1180.66 23.5966L1181.27 24.0929L1183.76 26.0992M1178.83 22.1223H1224.22M1178.83 22.1223H1133.43M1218.67 18.2842L1214.63 15.493L1213.31 14.578M1218.67 18.2842L1223.52 21.6349L1224.22 22.1223M1218.67 18.2842H1263.27M1213.31 14.578H1257.15M1213.31 14.578L1208.13 10.9974M1165.03 10.9974H1208.13M1165.03 10.9974L1163.4 9.68553L1160.74 7.53522M1165.03 10.9974H1121.93M1224.22 22.1223L1225.64 23.1028L1229.98 26.0992M1224.22 22.1223H1269.62M1263.27 18.2842L1257.15 14.578M1263.27 18.2842L1269.62 22.1223M1257.15 14.578L1252.69 11.8811L1251.23 10.9974M1208.13 10.9974H1251.23M1208.13 10.9974L1203.12 7.53522M1269.62 22.1223L1276.2 26.0992M1294.32 10.9974L1293.51 10.5578L1287.88 7.53522M1294.32 10.9974H1251.23M1251.23 10.9974L1249.06 9.68553L1245.5 7.53522M1183.76 26.0992H1229.98M1183.76 26.0992H1137.54M1235.94 30.2228L1229.98 26.0992M1235.94 30.2228L1242.13 34.5011M1235.94 30.2228H1283.01M1229.98 26.0992H1276.2M1137.54 26.0992H1091.32M1137.54 26.0992L1133.43 22.1223M1276.2 26.0992L1283.01 30.2228M1133.43 22.1223H1088.03M1242.13 34.5011L1246.12 37.2579L1246.93 37.8167L1248.56 38.9431M1242.13 34.5011H1290.09M1283.01 30.2228L1290.09 34.5011M1290.09 34.5011L1297.43 38.9431M1199.69 38.9431L1205.41 43.5591M1199.69 38.9431H1248.56M1199.69 38.9431H1150.81M1248.56 38.9431L1255.24 43.5591M1248.56 38.9431H1297.43M1297.43 38.9431L1305.07 43.5591M1205.41 43.5591H1255.24M1205.41 43.5591H1155.58M1262.18 48.3586L1257.81 45.3367L1256.95 44.741L1255.24 43.5591M1262.18 48.3586L1269.41 53.3531M1262.18 48.3586H1313M1255.24 43.5591H1305.07M1155.58 43.5591H1105.76M1155.58 43.5591L1150.81 38.9431M1305.07 43.5591L1313 48.3586M1150.81 38.9431H1101.94M1269.41 53.3531L1276.93 58.5546M1269.41 53.3531H1321.26M1313 48.3586L1321.26 53.3531M1321.26 53.3531L1329.86 58.5546M1224.01 58.5546L1227.33 61.2369L1228.18 61.9167L1230.73 63.9766M1224.01 58.5546H1276.93M1224.01 58.5546H1171.08M1276.93 58.5546L1284.78 63.9766M1276.93 58.5546H1329.86M1329.86 58.5546L1338.83 63.9766M1230.73 63.9766H1284.78M1230.73 63.9766H1176.68M1292.96 69.633L1284.78 63.9766M1292.96 69.633L1301.51 75.5392M1292.96 69.633H1348.18M1284.78 63.9766H1338.83M1176.68 63.9766H1122.63M1176.68 63.9766L1175.26 62.5997L1171.08 58.5546M1338.83 63.9766L1348.18 69.633M1171.08 58.5546H1118.15M1301.51 75.5392L1310.44 81.713M1301.51 75.5392H1357.94M1348.18 69.633L1357.94 75.5392M1357.94 75.5392L1368.15 81.713M1252.72 81.713L1260.73 88.1722M1252.72 81.713H1310.44M1252.72 81.713H1195.01M1310.44 81.713L1319.78 88.1722M1310.44 81.713H1368.15M1368.15 81.713L1378.83 88.1722M1260.73 88.1722H1319.78M1260.73 88.1722H1201.69M1329.57 94.9372L1319.78 88.1722M1329.57 94.9372L1339.83 102.03M1329.57 94.9372H1390.02M1319.78 88.1722H1378.83M1201.69 88.1722H1142.64M1201.69 88.1722L1195.01 81.713M1378.83 88.1722L1390.02 94.9372M1195.01 81.713H1137.3M1339.83 102.03L1350.61 109.476M1339.83 102.03H1401.75M1390.02 94.9372L1401.75 102.03M1401.75 102.03L1414.06 109.476M1287.15 109.476L1296.86 117.302M1287.15 109.476H1350.61M1287.15 109.476H1223.7M1350.61 109.476L1361.93 117.302M1350.61 109.476H1414.06M1414.06 109.476L1427 117.302M1296.86 117.302H1361.93M1296.86 117.302H1231.79M1373.84 125.537L1361.93 117.302M1373.84 125.537L1386.4 134.214M1373.84 125.537H1440.61M1361.93 117.302H1427M1231.79 117.302H1166.72M1231.79 117.302L1223.7 109.476M1427 117.302L1440.61 125.537M1223.7 109.476H1160.25M1386.4 134.214L1399.64 143.37M1386.4 134.214H1454.96M1440.61 125.537L1454.96 134.214M1454.96 134.214L1470.1 143.37M1329.19 143.37L1341.18 153.046M1329.19 143.37H1399.64M1329.19 143.37H1258.73M1399.64 143.37L1413.64 153.046M1399.64 143.37H1470.1M1470.1 143.37L1486.1 153.046M1341.18 153.046H1413.64M1341.18 153.046H1268.73M1428.46 163.288L1413.64 153.046M1428.46 163.288L1444.17 174.145M1428.46 163.288H1503.03M1413.64 153.046H1486.1M1268.73 153.046H1196.27M1268.73 153.046L1258.73 143.37M1486.1 153.046L1503.03 163.288M1258.73 143.37H1188.27M1444.17 174.145L1460.85 185.677M1444.17 174.145H1520.98M1503.03 163.288L1520.98 174.145M1520.98 174.145L1540.05 185.677M1381.65 185.677L1396.87 197.947M1381.65 185.677H1460.85M1381.65 185.677H1302.45M1460.85 185.677L1478.6 197.947M1460.85 185.677H1540.05M1540.05 185.677L1560.34 197.947M1396.87 197.947H1478.6M1396.87 197.947H1315.13M1497.53 211.029L1478.6 197.947M1497.53 211.029L1517.75 225.005M1497.53 211.029H1581.97M1478.6 197.947H1560.34M1315.13 197.947H1233.39M1315.13 197.947L1302.45 185.677M1560.34 197.947L1581.97 211.029M1302.45 185.677H1223.25M1517.75 225.005L1539.4 239.972M1517.75 225.005H1605.08M1581.97 211.029L1605.08 225.005M1605.08 225.005L1629.83 239.972M1448.98 239.972L1468.9 256.039M1448.98 239.972H1539.4M1448.98 239.972H1358.56M1539.4 239.972L1562.65 256.039M1539.4 239.972H1629.83M1629.83 239.972L1656.39 256.039M1468.9 256.039H1562.65M1468.9 256.039H1375.16M1587.66 273.33L1562.65 256.039M1587.66 273.33L1614.66 291.992M1587.66 273.33H1684.98M1562.65 256.039H1656.39M1375.16 256.039H1281.42M1375.16 256.039L1358.56 239.972M1656.39 256.039L1684.98 273.33M1656.39 256.039H1750.14M1358.56 239.972H1268.14M1614.66 291.992L1643.89 312.194M1614.66 291.992H1715.84M1684.98 273.33L1715.84 291.992M1750.14 256.039H1811.46M1715.84 291.992L1749.24 312.194M1715.84 291.992H1811.46M1538.54 312.194L1565.75 334.135M1538.54 312.194H1643.89M1538.54 312.194H1433.19M1643.89 312.194L1675.64 334.135M1643.89 312.194H1749.24M1749.24 312.194L1785.52 334.135M1749.24 312.194H1811.46M1565.75 334.135H1675.64M1565.75 334.135H1455.87M1710.24 358.051L1675.64 334.135M1710.24 358.051L1748.1 384.219M1710.24 358.051H1811.46M1675.64 334.135H1785.52M1455.87 334.135H1345.98M1455.87 334.135L1433.19 312.194M1785.52 334.135H1811.46M1785.52 334.135L1811.46 349.821M1433.19 312.194H1327.84M1748.1 384.219L1789.7 412.974M1748.1 384.219H1811.46M1663.52 412.974L1702.89 444.72M1663.52 412.974H1789.7M1663.52 412.974H1537.34M1789.7 412.974L1811.46 428.014M1789.7 412.974H1811.46M1702.89 444.72H1570.15M1702.89 444.72L1811.46 444.72M1570.15 444.72H1437.41M1570.15 444.72L1537.34 412.974M1537.34 412.974H1411.16M997.239 22.1223L997.441 22.6116L997.644 23.1028L997.849 23.5966L998.053 24.0929L998.674 25.594L998.883 26.0992M997.239 22.1223H1042.64M997.239 22.1223H951.842M1040.26 18.2842L1038.52 15.493L1037.96 14.578M1040.26 18.2842L1041.73 20.6671L1042.64 22.1223M1040.26 18.2842H1084.86M1037.96 14.578H1081.8M1037.96 14.578L1036.29 11.8811L1035.74 10.9974M992.64 10.9974L992.459 10.5578L991.741 8.81967L991.209 7.53522M992.64 10.9974H1035.74M992.64 10.9974H949.543M1042.64 22.1223L1042.94 22.6116L1043.24 23.1028L1043.55 23.5966L1043.86 24.0929L1045.1 26.0992M1042.64 22.1223H1088.03M1084.86 18.2842L1082.55 15.493L1081.8 14.578M1084.86 18.2842L1088.03 22.1223M1081.8 14.578L1080.3 12.7724L1079.2 11.4383L1078.84 10.9974M1035.74 10.9974L1035.47 10.5578L1034.92 9.68553L1034.39 8.81967L1034.12 8.38961L1033.59 7.53522M1035.74 10.9974H1078.84M1088.03 22.1223L1090.49 25.0913L1091.32 26.0992M1121.93 10.9974L1119.24 8.38961L1118.36 7.53522M1121.93 10.9974H1078.84M1078.84 10.9974L1076.33 7.96147L1075.97 7.53522M998.883 26.0992H1045.1M998.883 26.0992H952.664M1047.66 30.2228L1045.1 26.0992M1047.66 30.2228L1050.31 34.5011M1047.66 30.2228H1094.73M1045.1 26.0992H1091.32M952.664 26.0992H906.445M952.664 26.0992L951.842 22.1223M1091.32 26.0992L1094.73 30.2228M951.842 22.1223H906.445M1050.31 34.5011L1050.99 35.5957L1052.02 37.2579L1053.07 38.9431M1050.31 34.5011H1098.27M1094.73 30.2228L1095.16 30.7484L1098.27 34.5011M1098.27 34.5011L1098.72 35.0471L1099.17 35.5957L1099.63 36.1474L1101.94 38.9431M1004.19 38.9431L1006.1 43.5591M1004.19 38.9431H1053.07M1004.19 38.9431H955.319M1053.07 38.9431L1055.93 43.5591M1053.07 38.9431H1101.94M1101.94 38.9431L1104.79 42.3881L1105.27 42.9723L1105.76 43.5591M1006.1 43.5591H1055.93M1006.1 43.5591H956.273M1058.9 48.3586L1059.28 48.9722L1059.67 49.5883L1060.05 50.2082L1062 53.3531M1058.9 48.3586L1057.4 45.935L1057.03 45.3367L1056.66 44.741L1055.93 43.5591M1058.9 48.3586H1109.72M1055.93 43.5591H1105.76M956.273 43.5591H906.445M956.273 43.5591L955.319 38.9431M1105.76 43.5591L1109.72 48.3586M955.319 38.9431H906.445M1062 53.3531L1064.82 57.8926L1065.23 58.5546M1062 53.3531H1113.85M1109.72 48.3586L1110.74 49.5883L1113.85 53.3531M1113.85 53.3531L1115.44 55.2785L1118.15 58.5546M1012.3 58.5546L1013.41 61.2369L1013.69 61.9167L1014.54 63.9766M1012.3 58.5546H1065.23M1012.3 58.5546H959.372M1065.23 58.5546L1068.59 63.9766M1065.23 58.5546H1118.15M1118.15 58.5546L1122.63 63.9766M1014.54 63.9766H1068.59M1014.54 63.9766H960.492M1072.09 69.633L1068.59 63.9766M1072.09 69.633L1075.76 75.5392M1072.09 69.633H1127.31M1068.59 63.9766H1122.63M960.492 63.9766H906.445M960.492 63.9766L960.208 62.5997L959.648 59.8887L959.372 58.5546M1122.63 63.9766L1127.31 69.633M959.372 58.5546H906.445M1075.76 75.5392L1078.61 80.1437L1079.59 81.713M1075.76 75.5392H1132.19M1127.31 69.633L1132.19 75.5392M1132.19 75.5392L1134.72 78.5917L1137.3 81.713M1021.87 81.713L1024.54 88.1722M1021.87 81.713H1079.59M1021.87 81.713H964.158M1079.59 81.713L1083.59 88.1722M1079.59 81.713H1137.3M1137.3 81.713L1142.64 88.1722M1024.54 88.1722H1083.59M1024.54 88.1722H965.493M1087.79 94.9372L1086.72 93.2163L1083.59 88.1722M1087.79 94.9372L1092.18 102.03M1087.79 94.9372H1148.23M1083.59 88.1722H1142.64M965.493 88.1722H906.445M965.493 88.1722L964.158 81.713M1142.64 88.1722L1148.23 94.9372M964.158 81.713H906.445M1092.18 102.03L1096.8 109.476M1092.18 102.03H1154.1M1148.23 94.9372L1154.1 102.03M1154.1 102.03L1160.25 109.476M1033.35 109.476L1036.58 117.302M1033.35 109.476H1096.8M1033.35 109.476H969.897M1096.8 109.476L1101.65 117.302M1096.8 109.476H1160.25M1160.25 109.476L1166.72 117.302M1036.58 117.302H1101.65M1036.58 117.302H971.513M1106.76 125.537L1101.65 117.302M1106.76 125.537L1112.14 134.214M1106.76 125.537H1173.53M1101.65 117.302H1166.72M971.513 117.302H906.445M971.513 117.302L970.094 110.433L969.897 109.476M1166.72 117.302L1173.53 125.537M969.897 109.476H906.445M1112.14 134.214L1117.82 143.37M1112.14 134.214H1180.7M1173.53 125.537L1178.87 132.002L1180.7 134.214M1180.7 134.214L1188.27 143.37M1047.36 143.37L1051.36 153.046M1047.36 143.37H1117.82M1047.36 143.37H976.902M1117.82 143.37L1123.81 153.046M1117.82 143.37H1188.27M1188.27 143.37L1196.27 153.046M1051.36 153.046H1123.81M1051.36 153.046H978.902M1130.17 163.288L1123.81 153.046M1130.17 163.288L1136.9 174.145M1130.17 163.288H1204.74M1123.81 153.046H1196.27M978.902 153.046H906.445M978.902 153.046L976.902 143.37M1196.27 153.046L1204.74 163.288M976.902 143.37H906.445M1136.9 174.145L1144.05 185.677M1136.9 174.145H1213.71M1204.74 163.288L1213.71 174.145M1213.71 174.145L1223.25 185.677M1064.85 185.677L1069.92 197.947M1064.85 185.677H1144.05M1064.85 185.677H985.646M1144.05 185.677L1151.66 197.947M1144.05 185.677H1223.25M1223.25 185.677L1233.39 197.947M1069.92 197.947H1151.66M1069.92 197.947H988.182M1159.77 211.029L1151.66 197.947M1159.77 211.029L1168.43 225.005M1159.77 211.029H1244.21M1151.66 197.947H1233.39M988.182 197.947H906.445M988.182 197.947L985.646 185.677M1233.39 197.947L1244.21 211.029M985.646 185.677H906.445M1168.43 225.005L1177.71 239.972M1168.43 225.005H1255.76M1244.21 211.029L1255.76 225.005M1255.76 225.005L1268.14 239.972M1087.29 239.972L1093.93 256.039M1087.29 239.972H1177.71M1087.29 239.972H996.868M1177.71 239.972L1187.67 256.039M1177.71 239.972H1268.14M1268.14 239.972L1281.42 256.039M1093.93 256.039H1187.67M1093.93 256.039H1000.19M1198.4 273.33L1187.67 256.039M1198.4 273.33L1209.97 291.992M1198.4 273.33H1295.71M1187.67 256.039H1281.42M1000.19 256.039H906.445M1000.19 256.039L996.868 239.972M1281.42 256.039L1295.71 273.33M996.868 239.972H906.445M1209.97 291.992L1222.49 312.194M1209.97 291.992H1311.14M1295.71 273.33L1311.14 291.992M1311.14 291.992L1327.84 312.194M1117.14 312.194L1126.21 334.135M1117.14 312.194H1222.49M1117.14 312.194H1011.8M1222.49 312.194L1236.1 334.135M1222.49 312.194H1327.84M1327.84 312.194L1345.98 334.135M1126.21 334.135H1236.1M1126.21 334.135H1016.33M1250.93 358.051L1236.1 334.135M1250.93 358.051L1267.15 384.219M1250.93 358.051H1365.75M1236.1 334.135H1345.98M1016.33 334.135H906.445M1016.33 334.135L1011.8 312.194M1345.98 334.135L1365.75 358.051M1011.8 312.194H906.445M1267.15 384.219L1284.98 412.974M1267.15 384.219H1387.39M1365.75 358.051L1387.39 384.219M1387.39 384.219L1411.16 412.974M1158.8 412.974L1171.93 444.72M1158.8 412.974H1284.98M1158.8 412.974H1032.62M1284.98 412.974L1304.67 444.72M1284.98 412.974H1411.16M1411.16 412.974L1437.41 444.72M1304.67 444.72H1171.93M1304.67 444.72H1437.41M1171.93 444.72H1039.19M1039.19 444.72H906.445M1039.19 444.72L1032.62 412.974M1032.62 412.974H906.445M815.652 22.1223L815.449 22.6116L815.246 23.1028L815.042 23.5966L814.837 24.0929L814.424 25.0913L814.216 25.594L814.007 26.0992M815.652 22.1223H861.048M815.652 22.1223H770.254M861.841 18.2842L862.608 14.578M861.841 18.2842L861.048 22.1223M861.841 18.2842H906.445M862.608 14.578L862.701 14.1238L862.795 13.6714L862.888 13.221L863.348 10.9974M862.608 14.578H906.445M820.25 10.9974L820.431 10.5578L821.149 8.81967L821.681 7.53522M820.25 10.9974H863.348M820.25 10.9974H777.153M861.048 22.1223L860.946 22.6116L860.846 23.1028L860.743 23.5966L860.226 26.0992M861.048 22.1223H906.445M906.445 18.2842V14.578M906.445 18.2842V22.1223M906.445 14.578V10.9974M863.348 10.9974H906.445M863.348 10.9974L863.618 9.68553L863.709 9.25165L864.063 7.53522M906.445 22.1223V26.0992M949.543 10.9974L949.272 9.68553L949.181 9.25165L949.093 8.81967L949.003 8.38961L948.916 7.96147L948.827 7.53522M949.543 10.9974H906.445M906.445 10.9974V7.53522M814.007 26.0992H860.226M814.007 26.0992H767.789M859.374 30.2228L859.265 30.7484L859.156 31.2772L858.49 34.5011M859.374 30.2228L860.226 26.0992M859.374 30.2228H906.445M860.226 26.0992H906.445M767.789 26.0992H721.57M767.789 26.0992L768.413 25.0913L768.724 24.5912L769.032 24.0929L769.34 23.5966L769.646 23.1028L769.951 22.6116L770.254 22.1223M906.445 26.0992V30.2228M770.254 22.1223H724.857M858.49 34.5011L857.572 38.9431M858.49 34.5011H906.445M906.445 30.2228V34.5011M906.445 34.5011V38.9431M808.698 38.9431L806.79 43.5591M808.698 38.9431H857.572M808.698 38.9431H759.825M857.572 38.9431L856.618 43.5591M857.572 38.9431H906.445M906.445 38.9431V43.5591M806.79 43.5591H856.618M806.79 43.5591H756.962M855.626 48.3586L856.618 43.5591M855.626 48.3586L854.593 53.3531M855.626 48.3586H906.445M856.618 43.5591H906.445M756.962 43.5591H707.135M756.962 43.5591L759.825 38.9431M906.445 43.5591V48.3586M759.825 38.9431H710.951M854.593 53.3531L854.196 55.2785L853.791 57.2338L853.518 58.5546M854.593 53.3531H906.445M906.445 48.3586V53.3531M906.445 53.3531V58.5546M800.592 58.5546L799.482 61.2369L799.202 61.9167L798.35 63.9766M800.592 58.5546H853.518M800.592 58.5546H747.664M853.518 58.5546L853.243 59.8887L852.683 62.5997L852.398 63.9766M853.518 58.5546H906.445M906.445 58.5546V63.9766M798.35 63.9766H852.398M798.35 63.9766H744.303M851.229 69.633L851.377 68.9124L852.398 63.9766M851.229 69.633L850.008 75.5392M851.229 69.633H906.445M852.398 63.9766H906.445M744.303 63.9766H690.255M744.303 63.9766L747.664 58.5546M906.445 63.9766V69.633M747.664 58.5546H694.737M850.008 75.5392L848.732 81.713M850.008 75.5392H906.445M906.445 69.633V75.5392M906.445 75.5392V81.713M791.018 81.713L788.348 88.1722M791.018 81.713H848.732M791.018 81.713H733.305M848.732 81.713L847.397 88.1722M848.732 81.713H906.445M906.445 81.713V88.1722M788.348 88.1722H847.397M788.348 88.1722H729.3M845.999 94.9372L847.397 88.1722M845.999 94.9372L844.533 102.03M845.999 94.9372H906.445M847.397 88.1722H906.445M729.3 88.1722H670.252M729.3 88.1722L733.305 81.713M906.445 88.1722V94.9372M733.305 81.713H675.591M844.533 102.03L842.993 109.476M844.533 102.03H906.445M906.445 94.9372V102.03M906.445 102.03V109.476M779.542 109.476L776.307 117.302M779.542 109.476H842.993M779.542 109.476H716.091M842.993 109.476L841.377 117.302M842.993 109.476H906.445M906.445 109.476V117.302M776.307 117.302H841.377M776.307 117.302H711.239M839.674 125.537L841.377 117.302M839.674 125.537L837.881 134.214M839.674 125.537H906.445M841.377 117.302H906.445M711.239 117.302H646.169M711.239 117.302L716.091 109.476M906.445 117.302V125.537M716.091 109.476H652.639M837.881 134.214L835.988 143.37M837.881 134.214H906.445M906.445 125.537V134.214M906.445 134.214V143.37M765.532 143.37L761.532 153.046M765.532 143.37H835.988M765.532 143.37H695.075M835.988 143.37L833.988 153.046M835.988 143.37H906.445M906.445 143.37V153.046M761.532 153.046H833.988M761.532 153.046H689.075M831.872 163.288L833.988 153.046M831.872 163.288L829.627 174.145M831.872 163.288H906.445M833.988 153.046H906.445M689.075 153.046H616.619M689.075 153.046L695.075 143.37M906.445 153.046V163.288M695.075 143.37H624.618M829.627 174.145L827.244 185.677M829.627 174.145H906.445M906.445 163.288V174.145M906.445 174.145V185.677M748.043 185.677L742.971 197.947M748.043 185.677H827.244M748.043 185.677H668.842M827.244 185.677L824.708 197.947M827.244 185.677H906.445M906.445 185.677V197.947M742.971 197.947H824.708M742.971 197.947H661.235M822.005 211.029L824.708 197.947M822.005 211.029L819.116 225.005M822.005 211.029H906.445M824.708 197.947H906.445M661.235 197.947H579.498M661.235 197.947L668.842 185.677M906.445 197.947V211.029M668.842 185.677H589.642M819.116 225.005L816.022 239.972M819.116 225.005H906.445M906.445 211.029V225.005M906.445 225.005V239.972M725.6 239.972L718.958 256.039M725.6 239.972H816.022M725.6 239.972H635.177M816.022 239.972L812.702 256.039M816.022 239.972H906.445M906.445 239.972V256.039M718.958 256.039H812.702M718.958 256.039H625.215M809.128 273.33L812.702 256.039M809.128 273.33L805.271 291.992M809.128 273.33H906.445M812.702 256.039H906.445M625.215 256.039H531.472M625.215 256.039L635.177 239.972M906.445 256.039V273.33M635.177 239.972H544.754M805.271 291.992L801.095 312.194M805.271 291.992H906.445M906.445 273.33V291.992M906.445 291.992V312.194M695.746 312.194L686.676 334.135M695.746 312.194H801.095M695.746 312.194H590.396M801.095 312.194L796.561 334.135M801.095 312.194H906.445M906.445 312.194V334.135M686.676 334.135H796.561M686.676 334.135H576.791M791.618 358.051L796.561 334.135M791.618 358.051L786.209 384.219M791.618 358.051H906.445M796.561 334.135H906.445M576.791 334.135H466.907M576.791 334.135L590.396 312.194M906.445 334.135V358.051M590.396 312.194H485.047M786.209 384.219L780.266 412.974M786.209 384.219H906.445M906.445 358.051V384.219M906.445 384.219V412.974M654.087 412.974L640.964 444.72M654.087 412.974H780.266M654.087 412.974H527.908M780.266 412.974L773.704 444.72M780.266 412.974H906.445M906.445 412.974V444.72M773.704 444.72H640.964M773.704 444.72H906.445M640.964 444.72H508.223M508.223 444.72H375.483M508.223 444.72L527.908 412.974M527.908 412.974H401.728M634.064 22.1223L631.62 24.0929L629.132 26.0992M634.064 22.1223H679.46M634.064 22.1223H588.667M683.426 18.2842L687.257 14.578M683.426 18.2842L679.46 22.1223M683.426 18.2842H728.03M687.257 14.578H731.094M687.257 14.578L690.043 11.8811L690.957 10.9974M647.859 10.9974H690.957M647.859 10.9974L649.487 9.68553L652.153 7.53522M647.859 10.9974H604.762M679.46 22.1223L675.351 26.0992M679.46 22.1223H724.857M728.03 18.2842L731.094 14.578M728.03 18.2842L724.857 22.1223M731.094 14.578L732.587 12.7724L733.69 11.4383L734.054 10.9974M690.957 10.9974H734.054M690.957 10.9974L693.651 8.38961L694.534 7.53522M724.857 22.1223L722.402 25.0913L721.57 26.0992M777.153 10.9974L777.424 10.5578L777.965 9.68553L778.768 8.38961L779.299 7.53522M777.153 10.9974H734.054M734.054 10.9974L734.417 10.5578L735.139 9.68553L736.916 7.53522M629.132 26.0992H675.351M629.132 26.0992H582.912M671.089 30.2228L671.631 29.699L672.169 29.1772L674.3 27.1155L675.351 26.0992M671.089 30.2228L667.789 33.416L666.668 34.5011M671.089 30.2228H718.161M675.351 26.0992H721.57M582.912 26.0992H536.694M582.912 26.0992L587.247 23.1028L588.667 22.1223M721.57 26.0992L718.161 30.2228M588.667 22.1223H543.269M666.668 34.5011L666.104 35.0471L665.536 35.5957L663.82 37.2579L663.241 37.8167L662.077 38.9431M666.668 34.5011H714.623M718.161 30.2228L717.725 30.7484L714.623 34.5011M714.623 34.5011L714.172 35.0471L713.718 35.5957L713.263 36.1474L710.951 38.9431M613.204 38.9431L607.48 43.5591M613.204 38.9431H662.077M613.204 38.9431H564.33M662.077 38.9431L657.307 43.5591M662.077 38.9431H710.951M710.951 38.9431L707.135 43.5591M607.48 43.5591H657.307M607.48 43.5591H557.652M652.348 48.3586L657.307 43.5591M652.348 48.3586L647.186 53.3531M652.348 48.3586H703.167M657.307 43.5591H707.135M557.652 43.5591H507.825M557.652 43.5591L564.33 38.9431M707.135 43.5591L703.167 48.3586M564.33 38.9431H515.456M647.186 53.3531L641.811 58.5546M647.186 53.3531H699.038M703.167 48.3586L702.15 49.5883L699.038 53.3531M699.038 53.3531L697.446 55.2785L695.829 57.2338L694.737 58.5546M588.884 58.5546L585.557 61.2369L582.16 63.9766M588.884 58.5546H641.811M588.884 58.5546H535.956M641.811 58.5546L636.207 63.9766M641.811 58.5546H694.737M694.737 58.5546L690.255 63.9766M582.16 63.9766H636.207M582.16 63.9766H528.113M630.362 69.633L636.207 63.9766M630.362 69.633L624.258 75.5392M630.362 69.633H685.579M636.207 63.9766H690.255M528.113 63.9766H474.065M528.113 63.9766L535.956 58.5546M690.255 63.9766L685.579 69.633M535.956 58.5546H483.03M624.258 75.5392L622.69 77.0568L617.879 81.713M624.258 75.5392H680.695M685.579 69.633L680.695 75.5392M680.695 75.5392L680.07 76.2961L678.173 78.5917L675.591 81.713M560.166 81.713L552.155 88.1722M560.166 81.713H617.879M560.166 81.713H502.452M617.879 81.713L611.204 88.1722M617.879 81.713H675.591M675.591 81.713L670.252 88.1722M552.155 88.1722H611.204M552.155 88.1722H493.107M604.212 94.9372L608.62 90.6723L611.204 88.1722M604.212 94.9372L596.882 102.03M604.212 94.9372H664.659M611.204 88.1722H670.252M493.107 88.1722H434.059M493.107 88.1722L502.452 81.713M670.252 88.1722L664.659 94.9372M502.452 81.713H444.739M596.882 102.03L589.187 109.476M596.882 102.03H658.795M664.659 94.9372L658.795 102.03M658.795 102.03L652.639 109.476M525.735 109.476L516.031 117.302M525.735 109.476H589.187M525.735 109.476H462.285M589.187 109.476L581.101 117.302M589.187 109.476H652.639M652.639 109.476L646.169 117.302M516.031 117.302H581.101M516.031 117.302H450.962M572.591 125.537L581.101 117.302M572.591 125.537L563.623 134.214M572.591 125.537H639.362M581.101 117.302H646.169M450.962 117.302H385.894M450.962 117.302L462.285 109.476M646.169 117.302L639.362 125.537M462.285 109.476H398.833M563.623 134.214L554.161 143.37M563.623 134.214H632.188M639.362 125.537L632.188 134.214M632.188 134.214L624.618 143.37M483.704 143.37L471.705 153.046M483.704 143.37H554.161M483.704 143.37H413.247M554.161 143.37L544.162 153.046M554.161 143.37H624.618M624.618 143.37L616.619 153.046M471.705 153.046H544.162M471.705 153.046H399.249M533.578 163.288L544.162 153.046M533.578 163.288L522.358 174.145M533.578 163.288H608.152M544.162 153.046H616.619M399.249 153.046H326.792M399.249 153.046L413.247 143.37M616.619 153.046L608.152 163.288M413.247 143.37H342.791M522.358 174.145L510.441 185.677M522.358 174.145H599.175M608.152 163.288L599.175 174.145M599.175 174.145L589.642 185.677M431.24 185.677L416.024 197.947M431.24 185.677H510.441M431.24 185.677H352.039M510.441 185.677L497.761 197.947M510.441 185.677H589.642M589.642 185.677L579.498 197.947M416.024 197.947H497.761M416.024 197.947H334.288M484.242 211.029L497.761 197.947M484.242 211.029L469.798 225.005M484.242 211.029H568.683M497.761 197.947H579.498M334.288 197.947H252.551M334.288 197.947L352.039 185.677M579.498 197.947L568.683 211.029M352.039 185.677H272.838M469.798 225.005L454.332 239.972M469.798 225.005H557.128M568.683 211.029L557.128 225.005M557.128 225.005L544.754 239.972M363.909 239.972L343.985 256.039M363.909 239.972H454.332M363.909 239.972H273.486M454.332 239.972L437.729 256.039M454.332 239.972H544.754M544.754 239.972L531.472 256.039M343.985 256.039H437.729M343.985 256.039H250.242M419.859 273.33L437.729 256.039M419.859 273.33L400.574 291.992M419.859 273.33H517.177M437.729 256.039H531.472M250.242 256.039H156.499M250.242 256.039L273.486 239.972M531.472 256.039L517.177 273.33M273.486 239.972H183.063M400.574 291.992L379.697 312.194M400.574 291.992H501.748M517.177 273.33L501.748 291.992M501.748 291.992L485.047 312.194M274.347 312.194L247.138 334.135M274.347 312.194H379.697M274.347 312.194H168.997M379.697 312.194L357.022 334.135M379.697 312.194H485.047M485.047 312.194L466.907 334.135M247.138 334.135H357.022M247.138 334.135H137.253M332.308 358.051L357.022 334.135M332.308 358.051L305.265 384.219M332.308 358.051H447.135M357.022 334.135H466.907M137.253 334.135H27.3685M137.253 334.135L168.997 312.194M466.907 334.135L447.135 358.051M168.997 312.194H63.6482M305.265 384.219L275.549 412.974M305.265 384.219H425.501M447.135 358.051L425.501 384.219M425.501 384.219L401.728 412.974M149.37 412.974L110.002 444.72M149.37 412.974H275.549M149.37 412.974H23.1904M275.549 412.974L242.743 444.72M275.549 412.974H401.728M401.728 412.974L375.483 444.72M242.743 444.72H110.002M242.743 444.72H375.483M110.002 444.72L1.4324 444.72M23.1904 412.974L1.4324 428.014M23.1904 412.974H1.4324M452.476 22.1223L444.256 26.0992M452.476 22.1223H497.872M452.476 22.1223H407.079M505.012 18.2842L511.906 14.578M505.012 18.2842L497.872 22.1223M505.012 18.2842H549.616M511.906 14.578H555.743M511.906 14.578L518.567 10.9974M475.469 10.9974H518.567M475.469 10.9974L478.181 9.68553L482.625 7.53522M475.469 10.9974H432.371M497.872 22.1223L490.475 26.0992M497.872 22.1223H543.269M549.616 18.2842L555.743 14.578M549.616 18.2842L543.269 22.1223M555.743 14.578L560.203 11.8811L561.664 10.9974M518.567 10.9974L519.383 10.5578L525.007 7.53522M518.567 10.9974H561.664M543.269 22.1223L536.694 26.0992M604.762 10.9974L609.771 7.53522M604.762 10.9974H561.664M561.664 10.9974L563.834 9.68553L567.389 7.53522M444.256 26.0992H490.475M444.256 26.0992H398.037M482.805 30.2228L490.475 26.0992M482.805 30.2228L474.846 34.5011M482.805 30.2228H529.876M490.475 26.0992H536.694M398.037 26.0992H351.818M398.037 26.0992L407.079 22.1223M536.694 26.0992L529.876 30.2228M407.079 22.1223H361.682M474.846 34.5011L472.809 35.5957L466.582 38.9431M474.846 34.5011H522.802M529.876 30.2228L522.802 34.5011M522.802 34.5011L515.456 38.9431M417.709 38.9431L416.537 39.5108L408.17 43.5591M417.709 38.9431H466.582M417.709 38.9431H368.835M466.582 38.9431L457.997 43.5591M466.582 38.9431H515.456M515.456 38.9431L514.519 39.5108L507.825 43.5591M408.17 43.5591H457.997M408.17 43.5591H358.342M449.07 48.3586L457.997 43.5591M449.07 48.3586L439.779 53.3531M449.07 48.3586H499.889M457.997 43.5591H507.825M358.342 43.5591H308.514M358.342 43.5591L368.835 38.9431M507.825 43.5591L499.889 48.3586M368.835 38.9431H319.962M439.779 53.3531L430.103 58.5546M439.779 53.3531H491.631M499.889 48.3586L491.631 53.3531M491.631 53.3531L483.03 58.5546M377.177 58.5546L365.971 63.9766M377.177 58.5546H430.103M377.177 58.5546H324.249M430.103 58.5546L420.018 63.9766M430.103 58.5546H483.03M483.03 58.5546L474.065 63.9766M365.971 63.9766H420.018M365.971 63.9766H311.922M409.496 69.633L420.018 63.9766M409.496 69.633L398.509 75.5392M409.496 69.633H464.712M420.018 63.9766H474.065M311.922 63.9766H257.875M311.922 63.9766L324.249 58.5546M474.065 63.9766L464.712 69.633M324.249 58.5546H271.322M398.509 75.5392L387.025 81.713M398.509 75.5392H454.946M464.712 69.633L454.946 75.5392M454.946 75.5392L444.739 81.713M329.312 81.713L315.962 88.1722M329.312 81.713H387.025M329.312 81.713H271.598M387.025 81.713L375.01 88.1722M387.025 81.713H444.739M444.739 81.713L434.059 88.1722M315.962 88.1722H375.01M315.962 88.1722H256.914M362.426 94.9372L375.01 88.1722M362.426 94.9372L349.232 102.03M362.426 94.9372H422.872M375.01 88.1722H434.059M256.914 88.1722H197.865M256.914 88.1722L271.598 81.713M434.059 88.1722L422.872 94.9372M271.598 81.713H213.885M349.232 102.03L335.381 109.476M349.232 102.03H411.144M422.872 94.9372L411.144 102.03M411.144 102.03L398.833 109.476M271.929 109.476L255.756 117.302M271.929 109.476H335.381M271.929 109.476H208.479M335.381 109.476L320.825 117.302M335.381 109.476H398.833M398.833 109.476L385.894 117.302M255.756 117.302H320.825M255.756 117.302H190.687M305.506 125.537L320.825 117.302M305.506 125.537L289.366 134.214M305.506 125.537H372.277M320.825 117.302H385.894M190.687 117.302H125.618M190.687 117.302L208.479 109.476M385.894 117.302L372.277 125.537M208.479 109.476H145.027M289.366 134.214L272.334 143.37M289.366 134.214H357.93M372.277 125.537L357.93 134.214M357.93 134.214L342.791 143.37M201.877 143.37L181.879 153.046M201.877 143.37H272.334M201.877 143.37H131.421M272.334 143.37L254.335 153.046M272.334 143.37H342.791M342.791 143.37L326.792 153.046M181.879 153.046H254.335M181.879 153.046H109.422M235.285 163.288L254.335 153.046M235.285 163.288L215.088 174.145M235.285 163.288H309.858M254.335 153.046H326.792M109.422 153.046H36.9655M109.422 153.046L131.421 143.37M326.792 153.046L309.858 163.288M131.421 143.37H60.9634M215.088 174.145L193.637 185.677M215.088 174.145H291.906M309.858 163.288L291.906 174.145M291.906 174.145L272.838 185.677M114.436 185.677L89.0772 197.947M114.436 185.677H193.637M114.436 185.677H35.2356M193.637 185.677L170.814 197.947M193.637 185.677H272.838M272.838 185.677L252.551 197.947M89.0772 197.947H170.814M89.0772 197.947H7.34043M146.48 211.029L170.814 197.947M146.48 211.029L120.481 225.005M146.48 211.029H230.92M170.814 197.947H252.551M7.34043 197.947L35.2356 185.677M7.34043 197.947H1.4324M7.34043 197.947L1.4324 200.545M252.551 197.947L230.92 211.029M35.2356 185.677H1.4324M120.481 225.005L92.6407 239.972M120.481 225.005H207.81M230.92 211.029L207.81 225.005M207.81 225.005L183.063 239.972M2.21769 239.972H92.6407M2.21769 239.972H1.4324M2.21769 239.972L1.4324 240.352M92.6407 239.972L62.7545 256.039M92.6407 239.972H183.063M183.063 239.972L156.499 256.039M30.5908 273.33L62.7545 256.039M30.5908 273.33H127.908M30.5908 273.33H1.4324M30.5908 273.33L1.4324 289.005M62.7545 256.039H156.499M62.7545 256.039H1.4324M156.499 256.039L127.908 273.33M127.908 273.33L97.0517 291.992M97.0517 291.992L63.6482 312.194M97.0517 291.992H1.4324M63.6482 312.194L27.3685 334.135M63.6482 312.194H1.4324M27.3685 334.135H1.4324M27.3685 334.135L1.4324 349.821M270.888 22.1223L259.381 26.0992M270.888 22.1223H316.285M270.888 22.1223H225.491M326.597 18.2842L336.555 14.578M326.597 18.2842L316.285 22.1223M326.597 18.2842H371.201M336.555 14.578H380.392M336.555 14.578L346.176 10.9974M303.079 10.9974H346.176M303.079 10.9974L313.096 7.53522M303.079 10.9974H259.981M316.285 22.1223L305.6 26.0992M316.285 22.1223H361.682M371.201 18.2842L380.392 14.578M371.201 18.2842L361.682 22.1223M380.392 14.578L389.274 10.9974M346.176 10.9974L347.356 10.5578L355.478 7.53522M346.176 10.9974H389.274M361.682 22.1223L351.818 26.0992M432.371 10.9974L440.242 7.53522M432.371 10.9974H389.274M389.274 10.9974L390.363 10.5578L397.86 7.53522M259.381 26.0992H305.6M259.381 26.0992H213.162M294.52 30.2228L305.6 26.0992M294.52 30.2228L283.024 34.5011M294.52 30.2228H341.592M305.6 26.0992H351.818M213.162 26.0992H166.943M213.162 26.0992L225.491 22.1223M351.818 26.0992L341.592 30.2228M225.491 22.1223H180.094M283.024 34.5011L271.088 38.9431M283.024 34.5011H330.98M341.592 30.2228L340.286 30.7484L330.98 34.5011M330.98 34.5011L319.962 38.9431M222.215 38.9431L208.859 43.5591M222.215 38.9431H271.088M222.215 38.9431H173.341M271.088 38.9431L258.687 43.5591M271.088 38.9431H319.962M319.962 38.9431L308.514 43.5591M208.859 43.5591H258.687M208.859 43.5591H159.032M245.791 48.3586L258.687 43.5591M245.791 48.3586L232.372 53.3531M245.791 48.3586H296.611M258.687 43.5591H308.514M159.032 43.5591H109.204M159.032 43.5591L173.341 38.9431M308.514 43.5591L296.611 48.3586M173.341 38.9431H124.468M232.372 53.3531L218.396 58.5546M232.372 53.3531H284.223M296.611 48.3586L284.223 53.3531M284.223 53.3531L271.322 58.5546M165.469 58.5546L149.78 63.9766M165.469 58.5546H218.396M165.469 58.5546H112.542M218.396 58.5546L203.828 63.9766M218.396 58.5546H271.322M271.322 58.5546L257.875 63.9766M149.78 63.9766H203.828M149.78 63.9766H95.7328M188.63 69.633L203.828 63.9766M188.63 69.633L172.76 75.5392M188.63 69.633H243.847M203.828 63.9766H257.875M95.7328 63.9766H41.6857M95.7328 63.9766L112.542 58.5546M257.875 63.9766L243.847 69.633M112.542 58.5546H59.6153M172.76 75.5392L156.172 81.713M172.76 75.5392H229.197M243.847 69.633L229.197 75.5392M229.197 75.5392L213.885 81.713M98.4582 81.713L79.7688 88.1722M98.4582 81.713H156.172M98.4582 81.713H40.7458M156.172 81.713L138.817 88.1722M156.172 81.713H213.885M213.885 81.713L197.865 88.1722M79.7688 88.1722H138.817M120.64 94.9372L138.817 88.1722M120.64 94.9372L101.581 102.03M120.64 94.9372H181.087M138.817 88.1722H197.865M197.865 88.1722L181.087 94.9372M40.7458 81.713H1.4324M101.581 102.03L81.575 109.476M101.581 102.03H163.494M181.087 94.9372L163.494 102.03M163.494 102.03L145.027 109.476M18.1233 109.476H81.575M18.1233 109.476H1.4324M18.1233 109.476L1.4324 115.245M81.575 109.476L60.5486 117.302M81.575 109.476H145.027M145.027 109.476L125.618 117.302M38.4229 125.537L60.5486 117.302M38.4229 125.537L15.1085 134.214M38.4229 125.537H105.194M38.4229 125.537H1.4324M60.5486 117.302H125.618M60.5486 117.302H1.4324M125.618 117.302L105.194 125.537M1.24857 115.308L1.4324 115.245M15.1085 134.214H83.6726M15.1085 134.214H1.4324M15.1085 134.214L1.4324 139.304M105.194 125.537L83.6726 134.214M83.6726 134.214L60.9634 143.37M60.9634 143.37L36.9655 153.046M60.9634 143.37H1.4324M11.5648 163.288L36.9655 153.046M11.5648 163.288H1.4324M11.5648 163.288L1.4324 167.373M36.9655 153.046H1.4324M89.3006 22.1223L74.5056 26.0992M89.3006 22.1223H134.697M89.3006 22.1223H43.9029M148.182 18.2842L161.204 14.578M148.182 18.2842L134.697 22.1223M148.182 18.2842H192.786M161.204 14.578H205.041M161.204 14.578L173.785 10.9974M130.688 10.9974H173.785M130.688 10.9974L143.567 7.53522M130.688 10.9974H87.5905M134.697 22.1223L120.724 26.0992M134.697 22.1223H180.094M192.786 18.2842L205.041 14.578M192.786 18.2842L180.094 22.1223M205.041 14.578L216.883 10.9974M173.785 10.9974H216.883M173.785 10.9974L185.95 7.53522M180.094 22.1223L166.943 26.0992M259.981 10.9974L270.714 7.53522M259.981 10.9974H216.883M216.883 10.9974L228.332 7.53522M74.5056 26.0992H120.724M74.5056 26.0992H28.2868M106.236 30.2228L120.724 26.0992M106.236 30.2228L91.2031 34.5011M106.236 30.2228H153.307M120.724 26.0992H166.943M28.2868 26.0992L43.9029 22.1223M28.2868 26.0992H1.4324M166.943 26.0992L153.307 30.2228M43.9029 22.1223H1.4324M91.2031 34.5011L75.5944 38.9431M91.2031 34.5011H139.158M153.307 30.2228L139.158 34.5011M139.158 34.5011L124.468 38.9431M26.7209 38.9431L9.54923 43.5591M26.7209 38.9431H75.5944M26.7209 38.9431H1.4324M75.5944 38.9431L59.3768 43.5591M75.5944 38.9431H124.468M124.468 38.9431L109.204 43.5591M42.5134 48.3586L59.3768 43.5591M42.5134 48.3586L24.9646 53.3531M42.5134 48.3586H93.3327M42.5134 48.3586H1.4324M59.3768 43.5591H9.54923M59.3768 43.5591H109.204M9.54923 43.5591L1.4324 45.7406M9.54923 43.5591H1.4324M109.204 43.5591L93.3327 48.3586M24.9646 53.3531L6.68807 58.5546M24.9646 53.3531H76.8162M24.9646 53.3531H1.4324M93.3327 48.3586L76.8162 53.3531M76.8162 53.3531L59.6153 58.5546M6.68807 58.5546H59.6153M6.68807 58.5546L1.4324 60.0502M6.68807 58.5546H1.4324M59.6153 58.5546L41.6857 63.9766M22.9802 69.633L41.6857 63.9766M22.9802 69.633L3.44794 75.5392M22.9802 69.633H1.4324M41.6857 63.9766H1.4324M1.14958 63.9766H1.4324M3.44794 75.5392H1.4324M3.44794 75.5392L1.4324 76.1487M0.945007 76.2961L1.4324 76.1487M14.3713 18.2842L29.6905 14.578M14.3713 18.2842H1.4324M14.3713 18.2842L1.4324 21.4141M29.6905 14.578L44.4931 10.9974M29.6905 14.578H1.4324M87.5905 10.9974L101.186 7.53522M87.5905 10.9974H44.4931M44.4931 10.9974L58.8036 7.53522M44.4931 10.9974H1.4324M1499.79 7.53522H1542.18M1499.79 7.53522H1457.41M1531.79 4.18646L1534.36 5.01346L1542.18 7.53522M1531.79 4.18646H1573.48M1542.18 7.53522H1584.56M1573.48 4.18646L1576.22 5.01346L1577.59 5.42887L1584.56 7.53522M1584.56 7.53522H1626.94M1626.94 7.53522H1669.32M1457.41 7.53522H1415.03M1669.32 7.53522H1711.7M1711.7 7.53522L1698.55 4.18646M1711.7 7.53522H1754.09M1698.55 4.18646H1740.24M1330.27 7.53522H1372.65M1330.27 7.53522H1287.88M1365.03 4.18646L1366.91 5.01346L1367.86 5.42887L1372.65 7.53522M1365.03 4.18646H1406.72M1372.65 7.53522H1415.03M1406.72 4.18646L1415.03 7.53522M1287.88 7.53522H1245.5M1160.74 7.53522H1203.12M1160.74 7.53522H1118.36M1198.27 4.18646L1198.87 4.59869L1199.47 5.01346L1200.07 5.42887L1203.12 7.53522M1198.27 4.18646H1239.96M1203.12 7.53522H1245.5M1239.96 4.18646L1245.5 7.53522M1118.36 7.53522H1075.97M991.209 7.53522H1033.59M991.209 7.53522H948.827M1031.51 4.18646L1033.59 7.53522M1031.51 4.18646H1073.2M1033.59 7.53522H1075.97M1073.2 4.18646L1073.55 4.59869L1073.89 5.01346L1074.23 5.42887L1075.97 7.53522M948.827 7.53522H906.445M821.681 7.53522H864.063M821.681 7.53522H779.299M864.755 4.18646L864.063 7.53522M864.755 4.18646H906.445M864.063 7.53522H906.445M906.445 4.18646V7.53522M779.299 7.53522H736.916M652.153 7.53522H694.534M652.153 7.53522H609.771M697.995 4.18646L697.141 5.01346L695.41 6.68721L694.534 7.53522M697.995 4.18646H739.685M694.534 7.53522H736.916M739.685 4.18646L739.344 4.59869L739.002 5.01346L738.658 5.42887L736.916 7.53522M609.771 7.53522H567.389M482.625 7.53522H525.007M482.625 7.53522H440.242M531.236 4.18646L529.698 5.01346L528.924 5.42887L525.007 7.53522M531.236 4.18646H572.926M525.007 7.53522H567.389M572.926 4.18646L572.244 4.59869L567.389 7.53522M440.242 7.53522H397.86M313.096 7.53522H355.478M313.096 7.53522H270.714M364.476 4.18646L362.254 5.01346L361.136 5.42887L355.478 7.53522M364.476 4.18646H406.166M355.478 7.53522H397.86M406.166 4.18646L405.143 4.59869L397.86 7.53522M270.714 7.53522H228.332M143.567 7.53522H185.95M143.567 7.53522H101.186M197.716 4.18646L185.95 7.53522M197.716 4.18646H239.406M185.95 7.53522H228.332M239.406 4.18646L236.673 5.01346L235.296 5.42887L228.332 7.53522M101.186 7.53522H58.8036M30.9575 4.18646L16.4217 7.53522M30.9575 4.18646H72.6475M30.9575 4.18646H1.4324M16.4217 7.53522H58.8036M16.4217 7.53522L1.4324 10.9889M16.4217 7.53522H1.4324M72.6475 4.18646L69.2292 5.01346L58.8036 7.53522M1740.24 4.18646L1743.66 5.01346L1754.09 7.53522M1754.09 7.53522H1796.47M1796.47 7.53522L1811.46 10.9889M1796.47 7.53522H1811.46M1811.46 167.373V163.288M1811.46 167.373V174.145M1811.46 163.288V153.046M1811.46 174.145V176.169V185.677M1811.46 185.677V197.947M1811.46 88.1722V81.713M1811.46 88.1722V94.3935M1811.46 4.18646V7.53522M1811.46 7.53522V10.9889M1811.46 10.9889L1811.49 10.9974H1811.46M1811.46 10.9889V10.9974M1811.46 10.9974V14.578M1811.46 14.578V18.2842M1811.46 18.2842V21.4141M1811.46 21.4141V22.1223M1811.46 22.1223V26.0992M1811.46 26.0992V30.2228M1811.46 30.2228V32.937M1811.46 32.937V34.5011M1811.46 34.5011V38.9431M1811.46 38.9431V43.5591M1811.46 43.5591V45.7407M1811.46 45.7407V48.3586M1811.46 48.3586V53.3531M1811.46 53.3531V58.5546M1811.46 58.5546V60.0501M1811.46 60.0501V63.9766M1811.46 63.9766V69.633M1811.46 69.633V75.5392M1811.46 75.5392V76.1487M1811.46 76.1487V81.713M1811.46 94.9372V102.03M1811.46 94.9372V94.3935M1811.46 102.03V109.476M1811.46 109.476V115.245M1811.46 115.245V117.302M1811.46 117.302V125.537M1811.46 125.537V134.214M1811.46 134.214V139.304M1811.46 139.304V143.37M1811.46 143.37V153.046M1811.46 197.947V200.545M1811.46 200.545V211.029M1811.46 211.029V225.005M1811.46 225.005V239.972M1811.46 239.972V240.352M1811.46 240.352V256.039M1811.46 256.039V273.33M1811.46 273.33V289.005M1811.46 289.005V291.992M1811.46 291.992V312.194M1811.46 312.194V334.135M1811.46 334.135V349.821M1811.46 349.821V358.051M1811.46 358.051V384.219M1811.46 384.219V412.974M1811.46 412.974V428.014M1811.46 428.014V444.72M1811.46 444.72V444.833H1.4324V444.72M1.4324 94.9372V102.03M1.4324 94.9372V94.3935M1.4324 94.3935V88.1722M1.4324 88.1722V81.713M1.4324 81.713V76.1487M1.4324 76.1487V75.5392M1.4324 75.5392V69.633M1.4324 69.633V63.9766M1.4324 63.9766V60.0502M1.4324 60.0502V58.5546M1.4324 58.5546V53.3531M1.4324 53.3531V48.3586M1.4324 48.3586V45.7406M1.4324 45.7406V43.5591M1.4324 43.5591V38.9431M1.4324 38.9431V34.5011M1.4324 34.5011V32.937M1.4324 32.937V30.2228M1.4324 30.2228V26.0992M1.4324 26.0992V22.1223M1.4324 22.1223V21.4141M1.4324 21.4141V18.2842M1.4324 18.2842V14.578M1.4324 14.578V10.9974M1.4324 10.9974H1.39563L1.4324 10.9889M1.4324 10.9974V10.9889M1.4324 10.9889V7.53522M1.4324 7.53522V4.18646M1.4324 444.72V428.014M1.4324 428.014V412.974M1.4324 412.974V384.219M1.4324 384.219V358.051M1.4324 358.051V349.821M1.4324 349.821V334.135M1.4324 334.135V312.194M1.4324 312.194V291.992M1.4324 291.992V289.005M1.4324 289.005V273.33M1.4324 273.33V256.039M1.4324 256.039V240.352M1.4324 240.352V239.972M1.4324 239.972V225.005M1.4324 225.005V211.029M1.4324 211.029V200.545M1.4324 200.545V197.947M1.4324 197.947V185.677M1.4324 185.677V174.145M1.4324 174.145V167.373M1.4324 167.373V163.288M1.4324 163.288V153.046M1.4324 153.046V143.37M1.4324 143.37V139.304M1.4324 139.304V134.214M1.4324 134.214V125.537M1.4324 125.537V117.302M1.4324 117.302V115.245M1.4324 115.245V109.476M1.4324 109.476V102.03" stroke="url(#paint0_radial_126_178)" stroke-opacity="0.3" stroke-width="1.8895" stroke-miterlimit="10" stroke-linecap="round" stroke-linejoin="round"/>
<defs>
<radialGradient id="paint0_radial_126_178" cx="0" cy="0" r="1" gradientUnits="userSpaceOnUse" gradientTransform="translate(906.445 428.473) rotate(-90) scale(694.849 2834.88)">
<stop stop-color="#C45037"/>
<stop offset="0.489074" stop-color="#CED2DF" stop-opacity="0"/>
</radialGradient>
</defs>
</svg>
